<mxfile host="app.diagrams.net" agent="Mozilla/5.0 (Windows NT 10.0; Win64; x64) AppleWebKit/537.36 (KHTML, like Gecko) Chrome/134.0.0.0 Safari/537.36 Edg/134.0.0.0" version="26.1.3">
  <diagram name="Page-1" id="zP8TJC6QjqMUT6sgF0I8">
    <mxGraphModel dx="3126" dy="789" grid="1" gridSize="10" guides="1" tooltips="1" connect="1" arrows="1" fold="1" page="1" pageScale="1" pageWidth="850" pageHeight="1100" background="none" math="0" shadow="0">
      <root>
        <mxCell id="0" />
        <mxCell id="1" parent="0" />
        <UserObject label="" plantUmlData="{&#xa;  &quot;data&quot;: &quot;@startuml\nactor User\n\nUser  --&gt; (Play Music)\nUser  --&gt; (Pause Music)\nUser  --&gt; (Stop Music)\nUser  --&gt; (Skip Track)\nUser  --&gt; (Add to Playlist)\nUser  --&gt; (View Playlist)\nUser  --&gt; (Search Music)\nUser  --&gt; (Rate Track)\n\n@enduml&quot;,&#xa;  &quot;format&quot;: &quot;svg&quot;&#xa;}" id="WXJgysBUuHvF9zrhM9b4-6">
          <mxCell style="shape=image;noLabel=1;verticalAlign=top;aspect=fixed;imageAspect=0;image=data:image/svg+xml,PD94bWwgdmVyc2lvbj0iMS4wIiBlbmNvZGluZz0idXMtYXNjaWkiIHN0YW5kYWxvbmU9Im5vIj8+PHN2ZyB4bWxucz0iaHR0cDovL3d3dy53My5vcmcvMjAwMC9zdmciIHhtbG5zOnhsaW5rPSJodHRwOi8vd3d3LnczLm9yZy8xOTk5L3hsaW5rIiBjb250ZW50U3R5bGVUeXBlPSJ0ZXh0L2NzcyIgaGVpZ2h0PSIxODBweCIgcHJlc2VydmVBc3BlY3RSYXRpbz0ibm9uZSIgc3R5bGU9IndpZHRoOjEyNTZweDtoZWlnaHQ6MTgwcHg7YmFja2dyb3VuZDojRkZGRkZGOyIgdmVyc2lvbj0iMS4xIiB2aWV3Qm94PSIwIDAgMTI1NiAxODAiIHdpZHRoPSIxMjU2cHgiIHpvb21BbmRQYW49Im1hZ25pZnkiPjxkZWZzLz48Zz48IS0tZW50aXR5IFVzZXItLT48ZyBpZD0iZWxlbV9Vc2VyIj48ZWxsaXBzZSBjeD0iNjA5LjUiIGN5PSIxNCIgZmlsbD0iI0YxRjFGMSIgcng9IjgiIHJ5PSI4IiBzdHlsZT0ic3Ryb2tlOiMxODE4MTg7c3Ryb2tlLXdpZHRoOjAuNTsiLz48cGF0aCBkPSJNNjA5LjUsMjIgTDYwOS41LDQ5IE01OTYuNSwzMCBMNjIyLjUsMzAgTTYwOS41LDQ5IEw1OTYuNSw2NCBNNjA5LjUsNDkgTDYyMi41LDY0ICIgZmlsbD0ibm9uZSIgc3R5bGU9InN0cm9rZTojMTgxODE4O3N0cm9rZS13aWR0aDowLjU7Ii8+PHRleHQgZmlsbD0iIzAwMDAwMCIgZm9udC1mYW1pbHk9InNhbnMtc2VyaWYiIGZvbnQtc2l6ZT0iMTQiIGxlbmd0aEFkanVzdD0ic3BhY2luZyIgdGV4dExlbmd0aD0iMjgiIHg9IjU5NS41IiB5PSI3OC43MzQ0Ij5Vc2VyPC90ZXh0PjwvZz48ZyBpZD0iZWxlbV9QbGF5IE11c2ljIj48ZWxsaXBzZSBjeD0iNjQuNTM2NyIgY3k9IjE1Ny42MDczIiBmaWxsPSIjRjFGMUYxIiByeD0iNTguNTM2NyIgcnk9IjE0LjEwNzMiIHN0eWxlPSJzdHJva2U6IzE4MTgxODtzdHJva2Utd2lkdGg6MC41OyIvPjx0ZXh0IGZpbGw9IiMwMDAwMDAiIGZvbnQtZmFtaWx5PSJzYW5zLXNlcmlmIiBmb250LXNpemU9IjE0IiBsZW5ndGhBZGp1c3Q9InNwYWNpbmciIHRleHRMZW5ndGg9IjcwIiB4PSIyOS41MzY3IiB5PSIxNjEuMzQ5NSI+UGxheSBNdXNpYzwvdGV4dD48L2c+PGcgaWQ9ImVsZW1fUGF1c2UgTXVzaWMiPjxlbGxpcHNlIGN4PSIyMTkuNjY4NSIgY3k9IjE1Ny42MzM3IiBmaWxsPSIjRjFGMUYxIiByeD0iNjEuMTY4NSIgcnk9IjE0LjYzMzciIHN0eWxlPSJzdHJva2U6IzE4MTgxODtzdHJva2Utd2lkdGg6MC41OyIvPjx0ZXh0IGZpbGw9IiMwMDAwMDAiIGZvbnQtZmFtaWx5PSJzYW5zLXNlcmlmIiBmb250LXNpemU9IjE0IiBsZW5ndGhBZGp1c3Q9InNwYWNpbmciIHRleHRMZW5ndGg9Ijc3IiB4PSIxODEuMTY4NSIgeT0iMTYxLjM3NTkiPlBhdXNlIE11c2ljPC90ZXh0PjwvZz48ZyBpZD0iZWxlbV9TdG9wIE11c2ljIj48ZWxsaXBzZSBjeD0iMzc0LjUzNjciIGN5PSIxNTcuNjA3MyIgZmlsbD0iI0YxRjFGMSIgcng9IjU4LjUzNjciIHJ5PSIxNC4xMDczIiBzdHlsZT0ic3Ryb2tlOiMxODE4MTg7c3Ryb2tlLXdpZHRoOjAuNTsiLz48dGV4dCBmaWxsPSIjMDAwMDAwIiBmb250LWZhbWlseT0ic2Fucy1zZXJpZiIgZm9udC1zaXplPSIxNCIgbGVuZ3RoQWRqdXN0PSJzcGFjaW5nIiB0ZXh0TGVuZ3RoPSI3MCIgeD0iMzM5LjUzNjciIHk9IjE2MS4zNDk1Ij5TdG9wIE11c2ljPC90ZXh0PjwvZz48ZyBpZD0iZWxlbV9Ta2lwIFRyYWNrIj48ZWxsaXBzZSBjeD0iNTI2LjUzNjciIGN5PSIxNTcuNjA3MyIgZmlsbD0iI0YxRjFGMSIgcng9IjU4LjUzNjciIHJ5PSIxNC4xMDczIiBzdHlsZT0ic3Ryb2tlOiMxODE4MTg7c3Ryb2tlLXdpZHRoOjAuNTsiLz48dGV4dCBmaWxsPSIjMDAwMDAwIiBmb250LWZhbWlseT0ic2Fucy1zZXJpZiIgZm9udC1zaXplPSIxNCIgbGVuZ3RoQWRqdXN0PSJzcGFjaW5nIiB0ZXh0TGVuZ3RoPSI3MCIgeD0iNDkxLjUzNjciIHk9IjE2MS4zNDk1Ij5Ta2lwIFRyYWNrPC90ZXh0PjwvZz48ZyBpZD0iZWxlbV9BZGQgdG8gUGxheWxpc3QiPjxlbGxpcHNlIGN4PSI2OTIuNDY2MyIgY3k9IjE1Ny4zOTMzIiBmaWxsPSIjRjFGMUYxIiByeD0iNzIuNDY2MyIgcnk9IjE2Ljg5MzMiIHN0eWxlPSJzdHJva2U6IzE4MTgxODtzdHJva2Utd2lkdGg6MC41OyIvPjx0ZXh0IGZpbGw9IiMwMDAwMDAiIGZvbnQtZmFtaWx5PSJzYW5zLXNlcmlmIiBmb250LXNpemU9IjE0IiBsZW5ndGhBZGp1c3Q9InNwYWNpbmciIHRleHRMZW5ndGg9IjEwNSIgeD0iNjM5Ljk2NjMiIHk9IjE2MS4xMzU1Ij5BZGQgdG8gUGxheWxpc3Q8L3RleHQ+PC9nPjxnIGlkPSJlbGVtX1ZpZXcgUGxheWxpc3QiPjxlbGxpcHNlIGN4PSI4NjcuNTg4NCIgY3k9IjE1Ny4zMTc3IiBmaWxsPSIjRjFGMUYxIiByeD0iNjcuMDg4NCIgcnk9IjE1LjgxNzciIHN0eWxlPSJzdHJva2U6IzE4MTgxODtzdHJva2Utd2lkdGg6MC41OyIvPjx0ZXh0IGZpbGw9IiMwMDAwMDAiIGZvbnQtZmFtaWx5PSJzYW5zLXNlcmlmIiBmb250LXNpemU9IjE0IiBsZW5ndGhBZGp1c3Q9InNwYWNpbmciIHRleHRMZW5ndGg9IjkyIiB4PSI4MjEuNTg4NCIgeT0iMTYxLjA1OTkiPlZpZXcgUGxheWxpc3Q8L3RleHQ+PC9nPjxnIGlkPSJlbGVtX1NlYXJjaCBNdXNpYyI+PGVsbGlwc2UgY3g9IjEwMzMuMzg3OCIgY3k9IjE1Ny42Nzc2IiBmaWxsPSIjRjFGMUYxIiByeD0iNjMuODg3OCIgcnk9IjE1LjE3NzYiIHN0eWxlPSJzdHJva2U6IzE4MTgxODtzdHJva2Utd2lkdGg6MC41OyIvPjx0ZXh0IGZpbGw9IiMwMDAwMDAiIGZvbnQtZmFtaWx5PSJzYW5zLXNlcmlmIiBmb250LXNpemU9IjE0IiBsZW5ndGhBZGp1c3Q9InNwYWNpbmciIHRleHRMZW5ndGg9Ijg0IiB4PSI5OTEuMzg3OCIgeT0iMTYxLjQxOTciPlNlYXJjaCBNdXNpYzwvdGV4dD48L2c+PGcgaWQ9ImVsZW1fUmF0ZSBUcmFjayI+PGVsbGlwc2UgY3g9IjExOTEuNTM2NyIgY3k9IjE1Ny42MDczIiBmaWxsPSIjRjFGMUYxIiByeD0iNTguNTM2NyIgcnk9IjE0LjEwNzMiIHN0eWxlPSJzdHJva2U6IzE4MTgxODtzdHJva2Utd2lkdGg6MC41OyIvPjx0ZXh0IGZpbGw9IiMwMDAwMDAiIGZvbnQtZmFtaWx5PSJzYW5zLXNlcmlmIiBmb250LXNpemU9IjE0IiBsZW5ndGhBZGp1c3Q9InNwYWNpbmciIHRleHRMZW5ndGg9IjcwIiB4PSIxMTU2LjUzNjciIHk9IjE2MS4zNDk1Ij5SYXRlIFRyYWNrPC90ZXh0PjwvZz48IS0tbGluayBVc2VyIHRvIFBsYXkgTXVzaWMtLT48ZyBpZD0ibGlua19Vc2VyX1BsYXkgTXVzaWMiPjxwYXRoIGQ9Ik01OTUuMyw0Ni45IEM1MzguMjIsNTguNTUgMzE5Ljk1LDEwMy4xNSAxNDAuNSwxNDAuNSBDMTI5LjQxLDE0Mi44MSAxMjMuMjkxMiwxNDQuMDgzNCAxMTIuMTgxMiwxNDYuNDIzNCAiIGZpbGw9Im5vbmUiIGlkPSJVc2VyLXRvLVBsYXkgTXVzaWMiIHN0eWxlPSJzdHJva2U6IzE4MTgxODtzdHJva2Utd2lkdGg6MS4wOyIvPjxwb2x5Z29uIGZpbGw9IiMxODE4MTgiIHBvaW50cz0iMTA2LjMxLDE0Ny42NiwxMTUuOTQxMiwxNDkuNzE5MiwxMTEuMjAyNywxNDYuNjI5NSwxMTQuMjkyNCwxNDEuODkxLDEwNi4zMSwxNDcuNjYiIHN0eWxlPSJzdHJva2U6IzE4MTgxODtzdHJva2Utd2lkdGg6MS4wOyIvPjwvZz48IS0tbGluayBVc2VyIHRvIFBhdXNlIE11c2ljLS0+PGcgaWQ9ImxpbmtfVXNlcl9QYXVzZSBNdXNpYyI+PHBhdGggZD0iTTU5NS4xNiw0OC4xNCBDNTM5LjkxLDY0LjA3IDM0NS42MDUsMTIwLjEyNzMgMjYyLjE4NSwxNDQuMTg3MyAiIGZpbGw9Im5vbmUiIGlkPSJVc2VyLXRvLVBhdXNlIE11c2ljIiBzdHlsZT0ic3Ryb2tlOiMxODE4MTg7c3Ryb2tlLXdpZHRoOjEuMDsiLz48cG9seWdvbiBmaWxsPSIjMTgxODE4IiBwb2ludHM9IjI1Ni40MiwxNDUuODUsMjY2LjE3NiwxNDcuMTk5MiwyNjEuMjI0MiwxNDQuNDY0NCwyNjMuOTU5LDEzOS41MTI1LDI1Ni40MiwxNDUuODUiIHN0eWxlPSJzdHJva2U6IzE4MTgxODtzdHJva2Utd2lkdGg6MS4wOyIvPjwvZz48IS0tbGluayBVc2VyIHRvIFN0b3AgTXVzaWMtLT48ZyBpZD0ibGlua19Vc2VyX1N0b3AgTXVzaWMiPjxwYXRoIGQ9Ik01OTUuMTUsNTAuODcgQzU1Ni4xOSw2OS41MiA0NTMuNDYyLDExOC42OTk2IDQwNC41MzIsMTQyLjExOTYgIiBmaWxsPSJub25lIiBpZD0iVXNlci10by1TdG9wIE11c2ljIiBzdHlsZT0ic3Ryb2tlOiMxODE4MTg7c3Ryb2tlLXdpZHRoOjEuMDsiLz48cG9seWdvbiBmaWxsPSIjMTgxODE4IiBwb2ludHM9IjM5OS4xMiwxNDQuNzEsNDA4Ljk2NDksMTQ0LjQzMjQsNDAzLjYzLDE0Mi41NTEzLDQwNS41MTExLDEzNy4yMTY0LDM5OS4xMiwxNDQuNzEiIHN0eWxlPSJzdHJva2U6IzE4MTgxODtzdHJva2Utd2lkdGg6MS4wOyIvPjwvZz48IS0tbGluayBVc2VyIHRvIFNraXAgVHJhY2stLT48ZyBpZD0ibGlua19Vc2VyX1NraXAgVHJhY2siPjxwYXRoIGQ9Ik01OTUuNDIsNjMuMDggQzU3OC40OSw4Ni4wMyA1NTQuMTEyNywxMTkuMDgyMiA1MzkuNTUyNywxMzguODEyMiAiIGZpbGw9Im5vbmUiIGlkPSJVc2VyLXRvLVNraXAgVHJhY2siIHN0eWxlPSJzdHJva2U6IzE4MTgxODtzdHJva2Utd2lkdGg6MS4wOyIvPjxwb2x5Z29uIGZpbGw9IiMxODE4MTgiIHBvaW50cz0iNTM1Ljk5LDE0My42NCw1NDQuNTUyNSwxMzguNzczNSw1MzguOTU4OSwxMzkuNjE2OSw1MzguMTE1NSwxMzQuMDIzMiw1MzUuOTksMTQzLjY0IiBzdHlsZT0ic3Ryb2tlOiMxODE4MTg7c3Ryb2tlLXdpZHRoOjEuMDsiLz48L2c+PCEtLWxpbmsgVXNlciB0byBBZGQgdG8gUGxheWxpc3QtLT48ZyBpZD0ibGlua19Vc2VyX0FkZCB0byBQbGF5bGlzdCI+PHBhdGggZD0iTTYyMy41OCw2My4wOCBDNjM5LjY4LDg0LjkgNjYyLjE2NzMsMTE1LjM5MjMgNjc3LjIwNzMsMTM1Ljc3MjMgIiBmaWxsPSJub25lIiBpZD0iVXNlci10by1BZGQgdG8gUGxheWxpc3QiIHN0eWxlPSJzdHJva2U6IzE4MTgxODtzdHJva2Utd2lkdGg6MS4wOyIvPjxwb2x5Z29uIGZpbGw9IiMxODE4MTgiIHBvaW50cz0iNjgwLjc3LDE0MC42LDY3OC42NDQ0LDEzMC45ODMzLDY3Ny44MDEsMTM2LjU3NjksNjcyLjIwNzQsMTM1LjczMzYsNjgwLjc3LDE0MC42IiBzdHlsZT0ic3Ryb2tlOiMxODE4MTg7c3Ryb2tlLXdpZHRoOjEuMDsiLz48L2c+PCEtLWxpbmsgVXNlciB0byBWaWV3IFBsYXlsaXN0LS0+PGcgaWQ9ImxpbmtfVXNlcl9WaWV3IFBsYXlsaXN0Ij48cGF0aCBkPSJNNjIzLjc0LDUwLjIxIEM2NjQuMyw2Ny45IDc3NS42NDAzLDExNi40NDE1IDgzMS41MjAzLDE0MC44MTE1ICIgZmlsbD0ibm9uZSIgaWQ9IlVzZXItdG8tVmlldyBQbGF5bGlzdCIgc3R5bGU9InN0cm9rZTojMTgxODE4O3N0cm9rZS13aWR0aDoxLjA7Ii8+PHBvbHlnb24gZmlsbD0iIzE4MTgxOCIgcG9pbnRzPSI4MzcuMDIsMTQzLjIxLDgzMC4zNjk0LDEzNS45NDU3LDgzMi40MzY5LDE0MS4yMTEyLDgyNy4xNzE0LDE0My4yNzg3LDgzNy4wMiwxNDMuMjEiIHN0eWxlPSJzdHJva2U6IzE4MTgxODtzdHJva2Utd2lkdGg6MS4wOyIvPjwvZz48IS0tbGluayBVc2VyIHRvIFNlYXJjaCBNdXNpYy0tPjxnIGlkPSJsaW5rX1VzZXJfU2VhcmNoIE11c2ljIj48cGF0aCBkPSJNNjIzLjYxLDQ3Ljc0IEM2ODEuNDQsNjMuMDkgODk1Ljg2MDYsMTE5Ljk4MTMgOTg3LjQxMDYsMTQ0LjI3MTMgIiBmaWxsPSJub25lIiBpZD0iVXNlci10by1TZWFyY2ggTXVzaWMiIHN0eWxlPSJzdHJva2U6IzE4MTgxODtzdHJva2Utd2lkdGg6MS4wOyIvPjxwb2x5Z29uIGZpbGw9IiMxODE4MTgiIHBvaW50cz0iOTkzLjIxLDE0NS44MSw5ODUuNTM2OCwxMzkuNjM1Nyw5ODguMzc3MiwxNDQuNTI3OCw5ODMuNDg1MiwxNDcuMzY4Miw5OTMuMjEsMTQ1LjgxIiBzdHlsZT0ic3Ryb2tlOiMxODE4MTg7c3Ryb2tlLXdpZHRoOjEuMDsiLz48L2c+PCEtLWxpbmsgVXNlciB0byBSYXRlIFRyYWNrLS0+PGcgaWQ9ImxpbmtfVXNlcl9SYXRlIFRyYWNrIj48cGF0aCBkPSJNNjIzLjYsNDYuNTkgQzY4My4yNyw1Ny41NiA5MjAuODQsMTAxLjQ1IDExMTUuNSwxNDAuNSBDMTEyNi42MSwxNDIuNzMgMTEzMi43Mzc3LDE0My45ODg1IDExNDMuODQ3NywxNDYuMzE4NSAiIGZpbGw9Im5vbmUiIGlkPSJVc2VyLXRvLVJhdGUgVHJhY2siIHN0eWxlPSJzdHJva2U6IzE4MTgxODtzdHJva2Utd2lkdGg6MS4wOyIvPjxwb2x5Z29uIGZpbGw9IiMxODE4MTgiIHBvaW50cz0iMTE0OS43MiwxNDcuNTUsMTE0MS43MzI2LDE0MS43ODc5LDExNDQuODI2NSwxNDYuNTIzNywxMTQwLjA5MDYsMTQ5LjYxNzUsMTE0OS43MiwxNDcuNTUiIHN0eWxlPSJzdHJva2U6IzE4MTgxODtzdHJva2Utd2lkdGg6MS4wOyIvPjwvZz48IS0tU1JDPVtJcW1rb0l6STIyckVCVUJZMGY0QTJoZ3dUV2VRMEpjOWJHZy1mU01Qb1BlZW1lY2JuUWJPbjhEQnlXa20yTVRkNVlZNDUyS2NQd0M4RXdRYUE5SmFBdTNpb0NhaUJhNkgyeWpDQlNTazR2b1FNOUlTV1NNTWVDSUlMQVdqMDAwMF0tLT48L2c+PC9zdmc+;" parent="1" vertex="1">
            <mxGeometry x="-1364.46" y="80" width="976.91" height="140" as="geometry" />
          </mxCell>
        </UserObject>
        <UserObject label="" plantUmlData="{&#xa;  &quot;data&quot;: &quot;@startuml\nactor Admin\n\nAdmin --&gt; (Manage Users)\nAdmin --&gt; (Manage Playlists)\nAdmin --&gt; (Upload Music)\nAdmin --&gt; (Delete Music)\nAdmin --&gt; (View Analytics)\n\n@enduml&quot;,&#xa;  &quot;format&quot;: &quot;svg&quot;&#xa;}" id="WXJgysBUuHvF9zrhM9b4-7">
          <mxCell style="shape=image;noLabel=1;verticalAlign=top;aspect=fixed;imageAspect=0;image=data:image/svg+xml,PD94bWwgdmVyc2lvbj0iMS4wIiBlbmNvZGluZz0idXMtYXNjaWkiIHN0YW5kYWxvbmU9Im5vIj8+PHN2ZyB4bWxucz0iaHR0cDovL3d3dy53My5vcmcvMjAwMC9zdmciIHhtbG5zOnhsaW5rPSJodHRwOi8vd3d3LnczLm9yZy8xOTk5L3hsaW5rIiBjb250ZW50U3R5bGVUeXBlPSJ0ZXh0L2NzcyIgaGVpZ2h0PSIxODFweCIgcHJlc2VydmVBc3BlY3RSYXRpbz0ibm9uZSIgc3R5bGU9IndpZHRoOjgyN3B4O2hlaWdodDoxODFweDtiYWNrZ3JvdW5kOiNGRkZGRkY7IiB2ZXJzaW9uPSIxLjEiIHZpZXdCb3g9IjAgMCA4MjcgMTgxIiB3aWR0aD0iODI3cHgiIHpvb21BbmRQYW49Im1hZ25pZnkiPjxkZWZzLz48Zz48IS0tZW50aXR5IEFkbWluLS0+PGcgaWQ9ImVsZW1fQWRtaW4iPjxlbGxpcHNlIGN4PSI0MjAiIGN5PSIxNCIgZmlsbD0iI0YxRjFGMSIgcng9IjgiIHJ5PSI4IiBzdHlsZT0ic3Ryb2tlOiMxODE4MTg7c3Ryb2tlLXdpZHRoOjAuNTsiLz48cGF0aCBkPSJNNDIwLDIyIEw0MjAsNDkgTTQwNywzMCBMNDMzLDMwIE00MjAsNDkgTDQwNyw2NCBNNDIwLDQ5IEw0MzMsNjQgIiBmaWxsPSJub25lIiBzdHlsZT0ic3Ryb2tlOiMxODE4MTg7c3Ryb2tlLXdpZHRoOjAuNTsiLz48dGV4dCBmaWxsPSIjMDAwMDAwIiBmb250LWZhbWlseT0ic2Fucy1zZXJpZiIgZm9udC1zaXplPSIxNCIgbGVuZ3RoQWRqdXN0PSJzcGFjaW5nIiB0ZXh0TGVuZ3RoPSIzNiIgeD0iNDAyIiB5PSI3OC43MzQ0Ij5BZG1pbjwvdGV4dD48L2c+PGcgaWQ9ImVsZW1fTWFuYWdlIFVzZXJzIj48ZWxsaXBzZSBjeD0iNjkuODg3OCIgY3k9IjE1OC4xNzc2IiBmaWxsPSIjRjFGMUYxIiByeD0iNjMuODg3OCIgcnk9IjE1LjE3NzYiIHN0eWxlPSJzdHJva2U6IzE4MTgxODtzdHJva2Utd2lkdGg6MC41OyIvPjx0ZXh0IGZpbGw9IiMwMDAwMDAiIGZvbnQtZmFtaWx5PSJzYW5zLXNlcmlmIiBmb250LXNpemU9IjE0IiBsZW5ndGhBZGp1c3Q9InNwYWNpbmciIHRleHRMZW5ndGg9Ijg0IiB4PSIyNy44ODc4IiB5PSIxNjEuOTE5NyI+TWFuYWdlIFVzZXJzPC90ZXh0PjwvZz48ZyBpZD0iZWxlbV9NYW5hZ2UgUGxheWxpc3RzIj48ZWxsaXBzZSBjeD0iMjQ0LjkzODQiIGN5PSIxNTcuOTg3NyIgZmlsbD0iI0YxRjFGMSIgcng9Ijc1LjQzODQiIHJ5PSIxNy40ODc3IiBzdHlsZT0ic3Ryb2tlOiMxODE4MTg7c3Ryb2tlLXdpZHRoOjAuNTsiLz48dGV4dCBmaWxsPSIjMDAwMDAwIiBmb250LWZhbWlseT0ic2Fucy1zZXJpZiIgZm9udC1zaXplPSIxNCIgbGVuZ3RoQWRqdXN0PSJzcGFjaW5nIiB0ZXh0TGVuZ3RoPSIxMTIiIHg9IjE4OC45Mzg0IiB5PSIxNjEuNzI5OSI+TWFuYWdlIFBsYXlsaXN0czwvdGV4dD48L2c+PGcgaWQ9ImVsZW1fVXBsb2FkIE11c2ljIj48ZWxsaXBzZSBjeD0iNDE5Ljg4NzgiIGN5PSIxNTguMTc3NiIgZmlsbD0iI0YxRjFGMSIgcng9IjYzLjg4NzgiIHJ5PSIxNS4xNzc2IiBzdHlsZT0ic3Ryb2tlOiMxODE4MTg7c3Ryb2tlLXdpZHRoOjAuNTsiLz48dGV4dCBmaWxsPSIjMDAwMDAwIiBmb250LWZhbWlseT0ic2Fucy1zZXJpZiIgZm9udC1zaXplPSIxNCIgbGVuZ3RoQWRqdXN0PSJzcGFjaW5nIiB0ZXh0TGVuZ3RoPSI4NCIgeD0iMzc3Ljg4NzgiIHk9IjE2MS45MTk3Ij5VcGxvYWQgTXVzaWM8L3RleHQ+PC9nPjxnIGlkPSJlbGVtX0RlbGV0ZSBNdXNpYyI+PGVsbGlwc2UgY3g9IjU4Mi44ODc4IiBjeT0iMTU4LjE3NzYiIGZpbGw9IiNGMUYxRjEiIHJ4PSI2My44ODc4IiByeT0iMTUuMTc3NiIgc3R5bGU9InN0cm9rZTojMTgxODE4O3N0cm9rZS13aWR0aDowLjU7Ii8+PHRleHQgZmlsbD0iIzAwMDAwMCIgZm9udC1mYW1pbHk9InNhbnMtc2VyaWYiIGZvbnQtc2l6ZT0iMTQiIGxlbmd0aEFkanVzdD0ic3BhY2luZyIgdGV4dExlbmd0aD0iODQiIHg9IjU0MC44ODc4IiB5PSIxNjEuOTE5NyI+RGVsZXRlIE11c2ljPC90ZXh0PjwvZz48ZyBpZD0iZWxlbV9WaWV3IEFuYWx5dGljcyI+PGVsbGlwc2UgY3g9Ijc1MS45NTk1IiBjeT0iMTU3Ljg5MTkiIGZpbGw9IiNGMUYxRjEiIHJ4PSI2OS45NTk1IiByeT0iMTYuMzkxOSIgc3R5bGU9InN0cm9rZTojMTgxODE4O3N0cm9rZS13aWR0aDowLjU7Ii8+PHRleHQgZmlsbD0iIzAwMDAwMCIgZm9udC1mYW1pbHk9InNhbnMtc2VyaWYiIGZvbnQtc2l6ZT0iMTQiIGxlbmd0aEFkanVzdD0ic3BhY2luZyIgdGV4dExlbmd0aD0iOTkiIHg9IjcwMi40NTk1IiB5PSIxNjEuNjM0MSI+VmlldyBBbmFseXRpY3M8L3RleHQ+PC9nPjwhLS1saW5rIEFkbWluIHRvIE1hbmFnZSBVc2Vycy0tPjxnIGlkPSJsaW5rX0FkbWluX01hbmFnZSBVc2VycyI+PHBhdGggZD0iTTQwMS42OCw0OS45MiBDMzQ2LjE5LDY3LjgzIDE4NS4wMDk3LDExOS44NjY0IDExMS4zMjk3LDE0My42NTY0ICIgZmlsbD0ibm9uZSIgaWQ9IkFkbWluLXRvLU1hbmFnZSBVc2VycyIgc3R5bGU9InN0cm9rZTojMTgxODE4O3N0cm9rZS13aWR0aDoxLjA7Ii8+PHBvbHlnb24gZmlsbD0iIzE4MTgxOCIgcG9pbnRzPSIxMDUuNjIsMTQ1LjUsMTE1LjQxMzcsMTQ2LjU0MTEsMTEwLjM3ODEsMTQzLjk2MzcsMTEyLjk1NTYsMTM4LjkyODEsMTA1LjYyLDE0NS41IiBzdHlsZT0ic3Ryb2tlOiMxODE4MTg7c3Ryb2tlLXdpZHRoOjEuMDsiLz48L2c+PCEtLWxpbmsgQWRtaW4gdG8gTWFuYWdlIFBsYXlsaXN0cy0tPjxnIGlkPSJsaW5rX0FkbWluX01hbmFnZSBQbGF5bGlzdHMiPjxwYXRoIGQ9Ik00MDEuOTMsNTUuNjcgQzM3MC4zMiw3Ni4wOCAzMTAuMDAwMiwxMTUuMDI0NyAyNzQuNDIwMiwxMzguMDA0NyAiIGZpbGw9Im5vbmUiIGlkPSJBZG1pbi10by1NYW5hZ2UgUGxheWxpc3RzIiBzdHlsZT0ic3Ryb2tlOiMxODE4MTg7c3Ryb2tlLXdpZHRoOjEuMDsiLz48cG9seWdvbiBmaWxsPSIjMTgxODE4IiBwb2ludHM9IjI2OS4zOCwxNDEuMjYsMjc5LjExMDQsMTM5LjczNzIsMjczLjU4MDEsMTM4LjU0NzMsMjc0Ljc3LDEzMy4wMTcsMjY5LjM4LDE0MS4yNiIgc3R5bGU9InN0cm9rZTojMTgxODE4O3N0cm9rZS13aWR0aDoxLjA7Ii8+PC9nPjwhLS1saW5rIEFkbWluIHRvIFVwbG9hZCBNdXNpYy0tPjxnIGlkPSJsaW5rX0FkbWluX1VwbG9hZCBNdXNpYyI+PHBhdGggZD0iTTQyMCw4MC42OSBDNDIwLDEwMS45NSA0MjAsMTIxLjUxIDQyMCwxMzYuOTkgIiBmaWxsPSJub25lIiBpZD0iQWRtaW4tdG8tVXBsb2FkIE11c2ljIiBzdHlsZT0ic3Ryb2tlOiMxODE4MTg7c3Ryb2tlLXdpZHRoOjEuMDsiLz48cG9seWdvbiBmaWxsPSIjMTgxODE4IiBwb2ludHM9IjQyMCwxNDIuOTksNDI0LDEzMy45OSw0MjAsMTM3Ljk5LDQxNiwxMzMuOTksNDIwLDE0Mi45OSIgc3R5bGU9InN0cm9rZTojMTgxODE4O3N0cm9rZS13aWR0aDoxLjA7Ii8+PC9nPjwhLS1saW5rIEFkbWluIHRvIERlbGV0ZSBNdXNpYy0tPjxnIGlkPSJsaW5rX0FkbWluX0RlbGV0ZSBNdXNpYyI+PHBhdGggZD0iTTQzOC4wNyw1Ni41MiBDNDY4Ljk4LDc3Ljk2IDUyNi44NDg5LDExOC4wNzE4IDU1OC42NTg5LDE0MC4xMjE4ICIgZmlsbD0ibm9uZSIgaWQ9IkFkbWluLXRvLURlbGV0ZSBNdXNpYyIgc3R5bGU9InN0cm9rZTojMTgxODE4O3N0cm9rZS13aWR0aDoxLjA7Ii8+PHBvbHlnb24gZmlsbD0iIzE4MTgxOCIgcG9pbnRzPSI1NjMuNTksMTQzLjU0LDU1OC40NzIxLDEzNS4xMjUzLDU1OS40ODA3LDE0MC42OTE1LDU1My45MTQ1LDE0MS43MDAyLDU2My41OSwxNDMuNTQiIHN0eWxlPSJzdHJva2U6IzE4MTgxODtzdHJva2Utd2lkdGg6MS4wOyIvPjwvZz48IS0tbGluayBBZG1pbiB0byBWaWV3IEFuYWx5dGljcy0tPjxnIGlkPSJsaW5rX0FkbWluX1ZpZXcgQW5hbHl0aWNzIj48cGF0aCBkPSJNNDM4LjMyLDUwLjI0IEM0OTAuNzksNjguMSA2MzYuNzQ5OSwxMTcuNzc2OSA3MDguMjA5OSwxNDIuMDk2OSAiIGZpbGw9Im5vbmUiIGlkPSJBZG1pbi10by1WaWV3IEFuYWx5dGljcyIgc3R5bGU9InN0cm9rZTojMTgxODE4O3N0cm9rZS13aWR0aDoxLjA7Ii8+PHBvbHlnb24gZmlsbD0iIzE4MTgxOCIgcG9pbnRzPSI3MTMuODksMTQ0LjAzLDcwNi42NTg2LDEzNy4zNDM2LDcwOS4xNTY2LDE0Mi40MTkxLDcwNC4wODEyLDE0NC45MTcxLDcxMy44OSwxNDQuMDMiIHN0eWxlPSJzdHJva2U6IzE4MTgxODtzdHJva2Utd2lkdGg6MS4wOyIvPjwvZz48IS0tU1JDPVtJcW1rb0l6SVM0cDlwU3BadVc5SjJoZ3dUV2VRbGVidllVY2YyZzc1Z0tONWNiV2EwZDhJQXRDb1lxakc5S0NCU2w4SktuSHlJdWlwYXI0YU41OXBLYWpJaUtZNFBRUU1BcFpjOVVQS2JjR2M1c2kyMDAwMF0tLT48L2c+PC9zdmc+;" parent="1" vertex="1">
            <mxGeometry x="-1260" y="260" width="639.69" height="140" as="geometry" />
          </mxCell>
        </UserObject>
        <UserObject label="" plantUmlData="{&#xa;  &quot;data&quot;: &quot;@startuml\nactor User\nparticipant MusicPlayer\nparticipant Track\nparticipant Playlist\n\nUser   -&gt; MusicPlayer: searchMusic(\&quot;Song Title\&quot;)\nMusicPlayer -&gt; Track: findTrack(\&quot;Song Title\&quot;)\nTrack -&gt; MusicPlayer: return Track\nMusicPlayer -&gt; User: displayTrackDetails(Track)\n\nUser   -&gt; MusicPlayer: play()\nMusicPlayer -&gt; Track: getDetails()\nTrack -&gt; MusicPlayer: return details\nMusicPlayer -&gt; User: play music\n@enduml&quot;,&#xa;  &quot;format&quot;: &quot;svg&quot;&#xa;}" id="WXJgysBUuHvF9zrhM9b4-9">
          <mxCell style="shape=image;noLabel=1;verticalAlign=top;aspect=fixed;imageAspect=0;image=data:image/svg+xml,PD94bWwgdmVyc2lvbj0iMS4wIiBlbmNvZGluZz0idXMtYXNjaWkiIHN0YW5kYWxvbmU9Im5vIj8+PHN2ZyB4bWxucz0iaHR0cDovL3d3dy53My5vcmcvMjAwMC9zdmciIHhtbG5zOnhsaW5rPSJodHRwOi8vd3d3LnczLm9yZy8xOTk5L3hsaW5rIiBjb250ZW50U3R5bGVUeXBlPSJ0ZXh0L2NzcyIgaGVpZ2h0PSI0MDJweCIgcHJlc2VydmVBc3BlY3RSYXRpbz0ibm9uZSIgc3R5bGU9IndpZHRoOjUwNXB4O2hlaWdodDo0MDJweDtiYWNrZ3JvdW5kOiNGRkZGRkY7IiB2ZXJzaW9uPSIxLjEiIHZpZXdCb3g9IjAgMCA1MDUgNDAyIiB3aWR0aD0iNTA1cHgiIHpvb21BbmRQYW49Im1hZ25pZnkiPjxkZWZzLz48Zz48bGluZSBzdHlsZT0ic3Ryb2tlOiMxODE4MTg7c3Ryb2tlLXdpZHRoOjAuNTtzdHJva2UtZGFzaGFycmF5OjUuMCw1LjA7IiB4MT0iMjIiIHgyPSIyMiIgeTE9Ijc5Ljk4NDQiIHkyPSIzMjMuMjk2OSIvPjxsaW5lIHN0eWxlPSJzdHJva2U6IzE4MTgxODtzdHJva2Utd2lkdGg6MC41O3N0cm9rZS1kYXNoYXJyYXk6NS4wLDUuMDsiIHgxPSIyMTguNSIgeDI9IjIxOC41IiB5MT0iNzkuOTg0NCIgeTI9IjMyMy4yOTY5Ii8+PGxpbmUgc3R5bGU9InN0cm9rZTojMTgxODE4O3N0cm9rZS13aWR0aDowLjU7c3Ryb2tlLWRhc2hhcnJheTo1LjAsNS4wOyIgeDE9IjM5NC41IiB4Mj0iMzk0LjUiIHkxPSI3OS45ODQ0IiB5Mj0iMzIzLjI5NjkiLz48bGluZSBzdHlsZT0ic3Ryb2tlOiMxODE4MTg7c3Ryb2tlLXdpZHRoOjAuNTtzdHJva2UtZGFzaGFycmF5OjUuMCw1LjA7IiB4MT0iNDY0LjUiIHgyPSI0NjQuNSIgeTE9Ijc5Ljk4NDQiIHkyPSIzMjMuMjk2OSIvPjx0ZXh0IGZpbGw9IiMwMDAwMDAiIGZvbnQtZmFtaWx5PSJzYW5zLXNlcmlmIiBmb250LXNpemU9IjE0IiBsZW5ndGhBZGp1c3Q9InNwYWNpbmciIHRleHRMZW5ndGg9IjI4IiB4PSI1IiB5PSI3OC4yMzQ0Ij5Vc2VyPC90ZXh0PjxlbGxpcHNlIGN4PSIyMiIgY3k9IjEzLjUiIGZpbGw9IiNFMkUyRjAiIHJ4PSI4IiByeT0iOCIgc3R5bGU9InN0cm9rZTojMTgxODE4O3N0cm9rZS13aWR0aDowLjU7Ii8+PHBhdGggZD0iTTIyLDIxLjUgTDIyLDQ4LjUgTTksMjkuNSBMMzUsMjkuNSBNMjIsNDguNSBMOSw2My41IE0yMiw0OC41IEwzNSw2My41ICIgZmlsbD0ibm9uZSIgc3R5bGU9InN0cm9rZTojMTgxODE4O3N0cm9rZS13aWR0aDowLjU7Ii8+PHRleHQgZmlsbD0iIzAwMDAwMCIgZm9udC1mYW1pbHk9InNhbnMtc2VyaWYiIGZvbnQtc2l6ZT0iMTQiIGxlbmd0aEFkanVzdD0ic3BhY2luZyIgdGV4dExlbmd0aD0iMjgiIHg9IjUiIHk9IjMzNS41MzEzIj5Vc2VyPC90ZXh0PjxlbGxpcHNlIGN4PSIyMiIgY3k9IjM0NS43ODEzIiBmaWxsPSIjRTJFMkYwIiByeD0iOCIgcnk9IjgiIHN0eWxlPSJzdHJva2U6IzE4MTgxODtzdHJva2Utd2lkdGg6MC41OyIvPjxwYXRoIGQ9Ik0yMiwzNTMuNzgxMyBMMjIsMzgwLjc4MTMgTTksMzYxLjc4MTMgTDM1LDM2MS43ODEzIE0yMiwzODAuNzgxMyBMOSwzOTUuNzgxMyBNMjIsMzgwLjc4MTMgTDM1LDM5NS43ODEzICIgZmlsbD0ibm9uZSIgc3R5bGU9InN0cm9rZTojMTgxODE4O3N0cm9rZS13aWR0aDowLjU7Ii8+PHJlY3QgZmlsbD0iI0UyRTJGMCIgaGVpZ2h0PSIyOC45ODQ0IiByeD0iMi41IiByeT0iMi41IiBzdHlsZT0ic3Ryb2tlOiMxODE4MTg7c3Ryb2tlLXdpZHRoOjAuNTsiIHdpZHRoPSI5MSIgeD0iMTczLjUiIHk9IjUwIi8+PHRleHQgZmlsbD0iIzAwMDAwMCIgZm9udC1mYW1pbHk9InNhbnMtc2VyaWYiIGZvbnQtc2l6ZT0iMTQiIGxlbmd0aEFkanVzdD0ic3BhY2luZyIgdGV4dExlbmd0aD0iNzciIHg9IjE4MC41IiB5PSI3MC4yMzQ0Ij5NdXNpY1BsYXllcjwvdGV4dD48cmVjdCBmaWxsPSIjRTJFMkYwIiBoZWlnaHQ9IjI4Ljk4NDQiIHJ4PSIyLjUiIHJ5PSIyLjUiIHN0eWxlPSJzdHJva2U6IzE4MTgxODtzdHJva2Utd2lkdGg6MC41OyIgd2lkdGg9IjkxIiB4PSIxNzMuNSIgeT0iMzIyLjI5NjkiLz48dGV4dCBmaWxsPSIjMDAwMDAwIiBmb250LWZhbWlseT0ic2Fucy1zZXJpZiIgZm9udC1zaXplPSIxNCIgbGVuZ3RoQWRqdXN0PSJzcGFjaW5nIiB0ZXh0TGVuZ3RoPSI3NyIgeD0iMTgwLjUiIHk9IjM0Mi41MzEzIj5NdXNpY1BsYXllcjwvdGV4dD48cmVjdCBmaWxsPSIjRTJFMkYwIiBoZWlnaHQ9IjI4Ljk4NDQiIHJ4PSIyLjUiIHJ5PSIyLjUiIHN0eWxlPSJzdHJva2U6IzE4MTgxODtzdHJva2Utd2lkdGg6MC41OyIgd2lkdGg9IjQ5IiB4PSIzNzAuNSIgeT0iNTAiLz48dGV4dCBmaWxsPSIjMDAwMDAwIiBmb250LWZhbWlseT0ic2Fucy1zZXJpZiIgZm9udC1zaXplPSIxNCIgbGVuZ3RoQWRqdXN0PSJzcGFjaW5nIiB0ZXh0TGVuZ3RoPSIzNSIgeD0iMzc3LjUiIHk9IjcwLjIzNDQiPlRyYWNrPC90ZXh0PjxyZWN0IGZpbGw9IiNFMkUyRjAiIGhlaWdodD0iMjguOTg0NCIgcng9IjIuNSIgcnk9IjIuNSIgc3R5bGU9InN0cm9rZTojMTgxODE4O3N0cm9rZS13aWR0aDowLjU7IiB3aWR0aD0iNDkiIHg9IjM3MC41IiB5PSIzMjIuMjk2OSIvPjx0ZXh0IGZpbGw9IiMwMDAwMDAiIGZvbnQtZmFtaWx5PSJzYW5zLXNlcmlmIiBmb250LXNpemU9IjE0IiBsZW5ndGhBZGp1c3Q9InNwYWNpbmciIHRleHRMZW5ndGg9IjM1IiB4PSIzNzcuNSIgeT0iMzQyLjUzMTMiPlRyYWNrPC90ZXh0PjxyZWN0IGZpbGw9IiNFMkUyRjAiIGhlaWdodD0iMjguOTg0NCIgcng9IjIuNSIgcnk9IjIuNSIgc3R5bGU9InN0cm9rZTojMTgxODE4O3N0cm9rZS13aWR0aDowLjU7IiB3aWR0aD0iNzAiIHg9IjQyOS41IiB5PSI1MCIvPjx0ZXh0IGZpbGw9IiMwMDAwMDAiIGZvbnQtZmFtaWx5PSJzYW5zLXNlcmlmIiBmb250LXNpemU9IjE0IiBsZW5ndGhBZGp1c3Q9InNwYWNpbmciIHRleHRMZW5ndGg9IjU2IiB4PSI0MzYuNSIgeT0iNzAuMjM0NCI+UGxheWxpc3Q8L3RleHQ+PHJlY3QgZmlsbD0iI0UyRTJGMCIgaGVpZ2h0PSIyOC45ODQ0IiByeD0iMi41IiByeT0iMi41IiBzdHlsZT0ic3Ryb2tlOiMxODE4MTg7c3Ryb2tlLXdpZHRoOjAuNTsiIHdpZHRoPSI3MCIgeD0iNDI5LjUiIHk9IjMyMi4yOTY5Ii8+PHRleHQgZmlsbD0iIzAwMDAwMCIgZm9udC1mYW1pbHk9InNhbnMtc2VyaWYiIGZvbnQtc2l6ZT0iMTQiIGxlbmd0aEFkanVzdD0ic3BhY2luZyIgdGV4dExlbmd0aD0iNTYiIHg9IjQzNi41IiB5PSIzNDIuNTMxMyI+UGxheWxpc3Q8L3RleHQ+PHBvbHlnb24gZmlsbD0iIzE4MTgxOCIgcG9pbnRzPSIyMDcsMTA1Ljg5ODQsMjE3LDEwOS44OTg0LDIwNywxMTMuODk4NCwyMTEsMTA5Ljg5ODQiIHN0eWxlPSJzdHJva2U6IzE4MTgxODtzdHJva2Utd2lkdGg6MS4wOyIvPjxsaW5lIHN0eWxlPSJzdHJva2U6IzE4MTgxODtzdHJva2Utd2lkdGg6MS4wOyIgeDE9IjIyIiB4Mj0iMjEzIiB5MT0iMTA5Ljg5ODQiIHkyPSIxMDkuODk4NCIvPjx0ZXh0IGZpbGw9IiMwMDAwMDAiIGZvbnQtZmFtaWx5PSJzYW5zLXNlcmlmIiBmb250LXNpemU9IjEzIiBsZW5ndGhBZGp1c3Q9InNwYWNpbmciIHRleHRMZW5ndGg9IjE2OCIgeD0iMjkiIHk9IjEwNi4yNzM0Ij5zZWFyY2hNdXNpYygiU29uZyBUaXRsZSIpPC90ZXh0Pjxwb2x5Z29uIGZpbGw9IiMxODE4MTgiIHBvaW50cz0iMzgzLDEzMy44MTI1LDM5MywxMzcuODEyNSwzODMsMTQxLjgxMjUsMzg3LDEzNy44MTI1IiBzdHlsZT0ic3Ryb2tlOiMxODE4MTg7c3Ryb2tlLXdpZHRoOjEuMDsiLz48bGluZSBzdHlsZT0ic3Ryb2tlOiMxODE4MTg7c3Ryb2tlLXdpZHRoOjEuMDsiIHgxPSIyMTkiIHgyPSIzODkiIHkxPSIxMzcuODEyNSIgeTI9IjEzNy44MTI1Ii8+PHRleHQgZmlsbD0iIzAwMDAwMCIgZm9udC1mYW1pbHk9InNhbnMtc2VyaWYiIGZvbnQtc2l6ZT0iMTMiIGxlbmd0aEFkanVzdD0ic3BhY2luZyIgdGV4dExlbmd0aD0iMTUyIiB4PSIyMjYiIHk9IjEzNC4xODc1Ij5maW5kVHJhY2soIlNvbmcgVGl0bGUiKTwvdGV4dD48cG9seWdvbiBmaWxsPSIjMTgxODE4IiBwb2ludHM9IjIzMCwxNjEuNzI2NiwyMjAsMTY1LjcyNjYsMjMwLDE2OS43MjY2LDIyNiwxNjUuNzI2NiIgc3R5bGU9InN0cm9rZTojMTgxODE4O3N0cm9rZS13aWR0aDoxLjA7Ii8+PGxpbmUgc3R5bGU9InN0cm9rZTojMTgxODE4O3N0cm9rZS13aWR0aDoxLjA7IiB4MT0iMjI0IiB4Mj0iMzk0IiB5MT0iMTY1LjcyNjYiIHkyPSIxNjUuNzI2NiIvPjx0ZXh0IGZpbGw9IiMwMDAwMDAiIGZvbnQtZmFtaWx5PSJzYW5zLXNlcmlmIiBmb250LXNpemU9IjEzIiBsZW5ndGhBZGp1c3Q9InNwYWNpbmciIHRleHRMZW5ndGg9IjgyIiB4PSIyMzYiIHk9IjE2Mi4xMDE2Ij5yZXR1cm4gVHJhY2s8L3RleHQ+PHBvbHlnb24gZmlsbD0iIzE4MTgxOCIgcG9pbnRzPSIzMywxODkuNjQwNiwyMywxOTMuNjQwNiwzMywxOTcuNjQwNiwyOSwxOTMuNjQwNiIgc3R5bGU9InN0cm9rZTojMTgxODE4O3N0cm9rZS13aWR0aDoxLjA7Ii8+PGxpbmUgc3R5bGU9InN0cm9rZTojMTgxODE4O3N0cm9rZS13aWR0aDoxLjA7IiB4MT0iMjciIHgyPSIyMTgiIHkxPSIxOTMuNjQwNiIgeTI9IjE5My42NDA2Ii8+PHRleHQgZmlsbD0iIzAwMDAwMCIgZm9udC1mYW1pbHk9InNhbnMtc2VyaWYiIGZvbnQtc2l6ZT0iMTMiIGxlbmd0aEFkanVzdD0ic3BhY2luZyIgdGV4dExlbmd0aD0iMTczIiB4PSIzOSIgeT0iMTkwLjAxNTYiPmRpc3BsYXlUcmFja0RldGFpbHMoVHJhY2spPC90ZXh0Pjxwb2x5Z29uIGZpbGw9IiMxODE4MTgiIHBvaW50cz0iMjA3LDIxNy41NTQ3LDIxNywyMjEuNTU0NywyMDcsMjI1LjU1NDcsMjExLDIyMS41NTQ3IiBzdHlsZT0ic3Ryb2tlOiMxODE4MTg7c3Ryb2tlLXdpZHRoOjEuMDsiLz48bGluZSBzdHlsZT0ic3Ryb2tlOiMxODE4MTg7c3Ryb2tlLXdpZHRoOjEuMDsiIHgxPSIyMiIgeDI9IjIxMyIgeTE9IjIyMS41NTQ3IiB5Mj0iMjIxLjU1NDciLz48dGV4dCBmaWxsPSIjMDAwMDAwIiBmb250LWZhbWlseT0ic2Fucy1zZXJpZiIgZm9udC1zaXplPSIxMyIgbGVuZ3RoQWRqdXN0PSJzcGFjaW5nIiB0ZXh0TGVuZ3RoPSIzOSIgeD0iMjkiIHk9IjIxNy45Mjk3Ij5wbGF5KCk8L3RleHQ+PHBvbHlnb24gZmlsbD0iIzE4MTgxOCIgcG9pbnRzPSIzODMsMjQ1LjQ2ODgsMzkzLDI0OS40Njg4LDM4MywyNTMuNDY4OCwzODcsMjQ5LjQ2ODgiIHN0eWxlPSJzdHJva2U6IzE4MTgxODtzdHJva2Utd2lkdGg6MS4wOyIvPjxsaW5lIHN0eWxlPSJzdHJva2U6IzE4MTgxODtzdHJva2Utd2lkdGg6MS4wOyIgeDE9IjIxOSIgeDI9IjM4OSIgeTE9IjI0OS40Njg4IiB5Mj0iMjQ5LjQ2ODgiLz48dGV4dCBmaWxsPSIjMDAwMDAwIiBmb250LWZhbWlseT0ic2Fucy1zZXJpZiIgZm9udC1zaXplPSIxMyIgbGVuZ3RoQWRqdXN0PSJzcGFjaW5nIiB0ZXh0TGVuZ3RoPSI3OCIgeD0iMjI2IiB5PSIyNDUuODQzOCI+Z2V0RGV0YWlscygpPC90ZXh0Pjxwb2x5Z29uIGZpbGw9IiMxODE4MTgiIHBvaW50cz0iMjMwLDI3My4zODI4LDIyMCwyNzcuMzgyOCwyMzAsMjgxLjM4MjgsMjI2LDI3Ny4zODI4IiBzdHlsZT0ic3Ryb2tlOiMxODE4MTg7c3Ryb2tlLXdpZHRoOjEuMDsiLz48bGluZSBzdHlsZT0ic3Ryb2tlOiMxODE4MTg7c3Ryb2tlLXdpZHRoOjEuMDsiIHgxPSIyMjQiIHgyPSIzOTQiIHkxPSIyNzcuMzgyOCIgeTI9IjI3Ny4zODI4Ii8+PHRleHQgZmlsbD0iIzAwMDAwMCIgZm9udC1mYW1pbHk9InNhbnMtc2VyaWYiIGZvbnQtc2l6ZT0iMTMiIGxlbmd0aEFkanVzdD0ic3BhY2luZyIgdGV4dExlbmd0aD0iOTQiIHg9IjIzNiIgeT0iMjczLjc1NzgiPnJldHVybiBkZXRhaWxzPC90ZXh0Pjxwb2x5Z29uIGZpbGw9IiMxODE4MTgiIHBvaW50cz0iMzMsMzAxLjI5NjksMjMsMzA1LjI5NjksMzMsMzA5LjI5NjksMjksMzA1LjI5NjkiIHN0eWxlPSJzdHJva2U6IzE4MTgxODtzdHJva2Utd2lkdGg6MS4wOyIvPjxsaW5lIHN0eWxlPSJzdHJva2U6IzE4MTgxODtzdHJva2Utd2lkdGg6MS4wOyIgeDE9IjI3IiB4Mj0iMjE4IiB5MT0iMzA1LjI5NjkiIHkyPSIzMDUuMjk2OSIvPjx0ZXh0IGZpbGw9IiMwMDAwMDAiIGZvbnQtZmFtaWx5PSJzYW5zLXNlcmlmIiBmb250LXNpemU9IjEzIiBsZW5ndGhBZGp1c3Q9InNwYWNpbmciIHRleHRMZW5ndGg9IjY3IiB4PSIzOSIgeT0iMzAxLjY3MTkiPnBsYXkgbXVzaWM8L3RleHQ+PCEtLVNSQz1bWE91bjNpOG0zNE50ZENCZ2IwdlNlMENKQW44SXZHMU02ZWY1STJGNzdOZnhTMDJmNTJlcy0gLVZ2dnc2SldVNktGUGs0QkVHZU9ISk9admRTOFUycW81ajZUX3I4NTBnS25IV2owTzNEVGR4VEdGUjh4YjhZTW5zN3M0REI0ZG5MY25jY0x3TXhXSkY1aGVtQmtjSFZ4VW5idkZab01YSWdLMENUdlZJODJoN3BXWElvQktremdnb3lOVkZobFJuaF9hWHJKLW90Ymx1MUR0c3YwbTAwXS0tPjwvZz48L3N2Zz4=;" parent="1" vertex="1">
            <mxGeometry x="40" y="280" width="505" height="402" as="geometry" />
          </mxCell>
        </UserObject>
        <UserObject label="" plantUmlData="{&#xa;  &quot;data&quot;: &quot;@startuml\nstart\n:User  opens Music Player;\n:User  selects a track;\nif (Track is available?) then (yes)\n    :Play track;\n    :Display track details;\n    if (User  wants to pause?) then (yes)\n        :Pause track;\n    else (no)\n        if (User  wants to stop?) then (yes)\n            :Stop track;\n        else (no)\n            if (User  wants to skip?) then (yes)\n                :Skip to next track;\n            endif\n        endif\n    endif\nelse (no)\n    :Show error message;\nendif\nstop\n@enduml&quot;,&#xa;  &quot;format&quot;: &quot;svg&quot;&#xa;}" id="WXJgysBUuHvF9zrhM9b4-10">
          <mxCell style="shape=image;noLabel=1;verticalAlign=top;aspect=fixed;imageAspect=0;image=data:image/svg+xml,PD94bWwgdmVyc2lvbj0iMS4wIiBlbmNvZGluZz0idXMtYXNjaWkiIHN0YW5kYWxvbmU9Im5vIj8+PHN2ZyB4bWxucz0iaHR0cDovL3d3dy53My5vcmcvMjAwMC9zdmciIHhtbG5zOnhsaW5rPSJodHRwOi8vd3d3LnczLm9yZy8xOTk5L3hsaW5rIiBjb250ZW50U3R5bGVUeXBlPSJ0ZXh0L2NzcyIgaGVpZ2h0PSI2MzFweCIgcHJlc2VydmVBc3BlY3RSYXRpbz0ibm9uZSIgc3R5bGU9IndpZHRoOjYwM3B4O2hlaWdodDo2MzFweDtiYWNrZ3JvdW5kOiNGRkZGRkY7IiB2ZXJzaW9uPSIxLjEiIHZpZXdCb3g9IjAgMCA2MDMgNjMxIiB3aWR0aD0iNjAzcHgiIHpvb21BbmRQYW49Im1hZ25pZnkiPjxkZWZzLz48Zz48ZWxsaXBzZSBjeD0iMzQ5Ljc1IiBjeT0iMjAiIGZpbGw9IiMyMjIyMjIiIHJ4PSIxMCIgcnk9IjEwIiBzdHlsZT0ic3Ryb2tlOiMyMjIyMjI7c3Ryb2tlLXdpZHRoOjEuMDsiLz48cmVjdCBmaWxsPSIjRjFGMUYxIiBoZWlnaHQ9IjMyLjg0MzgiIHJ4PSIxMi41IiByeT0iMTIuNSIgc3R5bGU9InN0cm9rZTojMTgxODE4O3N0cm9rZS13aWR0aDowLjU7IiB3aWR0aD0iMTgxIiB4PSIyNTkuMjUiIHk9IjUwIi8+PHRleHQgZmlsbD0iIzAwMDAwMCIgZm9udC1mYW1pbHk9InNhbnMtc2VyaWYiIGZvbnQtc2l6ZT0iMTIiIGxlbmd0aEFkanVzdD0ic3BhY2luZyIgdGV4dExlbmd0aD0iMTYxIiB4PSIyNjkuMjUiIHk9IjcxLjM0MzgiPlVzZXIgIG9wZW5zIE11c2ljIFBsYXllcjwvdGV4dD48cmVjdCBmaWxsPSIjRjFGMUYxIiBoZWlnaHQ9IjMyLjg0MzgiIHJ4PSIxMi41IiByeT0iMTIuNSIgc3R5bGU9InN0cm9rZTojMTgxODE4O3N0cm9rZS13aWR0aDowLjU7IiB3aWR0aD0iMTU3IiB4PSIyNzEuMjUiIHk9IjEwMi44NDM4Ii8+PHRleHQgZmlsbD0iIzAwMDAwMCIgZm9udC1mYW1pbHk9InNhbnMtc2VyaWYiIGZvbnQtc2l6ZT0iMTIiIGxlbmd0aEFkanVzdD0ic3BhY2luZyIgdGV4dExlbmd0aD0iMTM3IiB4PSIyODEuMjUiIHk9IjEyNC4xODc1Ij5Vc2VyICBzZWxlY3RzIGEgdHJhY2s8L3RleHQ+PHBvbHlnb24gZmlsbD0iI0YxRjFGMSIgcG9pbnRzPSIyOTIuNzUsMTU1LjY4NzUsNDA2Ljc1LDE1NS42ODc1LDQxOC43NSwxNjcuNjg3NSw0MDYuNzUsMTc5LjY4NzUsMjkyLjc1LDE3OS42ODc1LDI4MC43NSwxNjcuNjg3NSwyOTIuNzUsMTU1LjY4NzUiIHN0eWxlPSJzdHJva2U6IzE4MTgxODtzdHJva2Utd2lkdGg6MC41OyIvPjx0ZXh0IGZpbGw9IiMwMDAwMDAiIGZvbnQtZmFtaWx5PSJzYW5zLXNlcmlmIiBmb250LXNpemU9IjExIiBsZW5ndGhBZGp1c3Q9InNwYWNpbmciIHRleHRMZW5ndGg9IjExNCIgeD0iMjkyLjc1IiB5PSIxNzIuMTk5MiI+VHJhY2sgaXMgYXZhaWxhYmxlPzwvdGV4dD48dGV4dCBmaWxsPSIjMDAwMDAwIiBmb250LWZhbWlseT0ic2Fucy1zZXJpZiIgZm9udC1zaXplPSIxMSIgbGVuZ3RoQWRqdXN0PSJzcGFjaW5nIiB0ZXh0TGVuZ3RoPSIxOCIgeD0iMjYyLjc1IiB5PSIxNjYuMzEyNSI+eWVzPC90ZXh0Pjx0ZXh0IGZpbGw9IiMwMDAwMDAiIGZvbnQtZmFtaWx5PSJzYW5zLXNlcmlmIiBmb250LXNpemU9IjExIiBsZW5ndGhBZGp1c3Q9InNwYWNpbmciIHRleHRMZW5ndGg9IjEyIiB4PSI0MTguNzUiIHk9IjE2Ni4zMTI1Ij5ubzwvdGV4dD48cmVjdCBmaWxsPSIjRjFGMUYxIiBoZWlnaHQ9IjMyLjg0MzgiIHJ4PSIxMi41IiByeT0iMTIuNSIgc3R5bGU9InN0cm9rZTojMTgxODE4O3N0cm9rZS13aWR0aDowLjU7IiB3aWR0aD0iODUiIHg9IjExNS41IiB5PSIxODkuNjg3NSIvPjx0ZXh0IGZpbGw9IiMwMDAwMDAiIGZvbnQtZmFtaWx5PSJzYW5zLXNlcmlmIiBmb250LXNpemU9IjEyIiBsZW5ndGhBZGp1c3Q9InNwYWNpbmciIHRleHRMZW5ndGg9IjY1IiB4PSIxMjUuNSIgeT0iMjExLjAzMTMiPlBsYXkgdHJhY2s8L3RleHQ+PHJlY3QgZmlsbD0iI0YxRjFGMSIgaGVpZ2h0PSIzMi44NDM4IiByeD0iMTIuNSIgcnk9IjEyLjUiIHN0eWxlPSJzdHJva2U6IzE4MTgxODtzdHJva2Utd2lkdGg6MC41OyIgd2lkdGg9IjE1NyIgeD0iNzkuNSIgeT0iMjQyLjUzMTMiLz48dGV4dCBmaWxsPSIjMDAwMDAwIiBmb250LWZhbWlseT0ic2Fucy1zZXJpZiIgZm9udC1zaXplPSIxMiIgbGVuZ3RoQWRqdXN0PSJzcGFjaW5nIiB0ZXh0TGVuZ3RoPSIxMzciIHg9Ijg5LjUiIHk9IjI2My44NzUiPkRpc3BsYXkgdHJhY2sgZGV0YWlsczwvdGV4dD48cG9seWdvbiBmaWxsPSIjRjFGMUYxIiBwb2ludHM9Ijk1LDI5NS4zNzUsMjIxLDI5NS4zNzUsMjMzLDMwNy4zNzUsMjIxLDMxOS4zNzUsOTUsMzE5LjM3NSw4MywzMDcuMzc1LDk1LDI5NS4zNzUiIHN0eWxlPSJzdHJva2U6IzE4MTgxODtzdHJva2Utd2lkdGg6MC41OyIvPjx0ZXh0IGZpbGw9IiMwMDAwMDAiIGZvbnQtZmFtaWx5PSJzYW5zLXNlcmlmIiBmb250LXNpemU9IjExIiBsZW5ndGhBZGp1c3Q9InNwYWNpbmciIHRleHRMZW5ndGg9IjEyNiIgeD0iOTUiIHk9IjMxMS44ODY3Ij5Vc2VyICB3YW50cyB0byBwYXVzZT88L3RleHQ+PHRleHQgZmlsbD0iIzAwMDAwMCIgZm9udC1mYW1pbHk9InNhbnMtc2VyaWYiIGZvbnQtc2l6ZT0iMTEiIGxlbmd0aEFkanVzdD0ic3BhY2luZyIgdGV4dExlbmd0aD0iMTgiIHg9IjY1IiB5PSIzMDYiPnllczwvdGV4dD48dGV4dCBmaWxsPSIjMDAwMDAwIiBmb250LWZhbWlseT0ic2Fucy1zZXJpZiIgZm9udC1zaXplPSIxMSIgbGVuZ3RoQWRqdXN0PSJzcGFjaW5nIiB0ZXh0TGVuZ3RoPSIxMiIgeD0iMjMzIiB5PSIzMDYiPm5vPC90ZXh0PjxyZWN0IGZpbGw9IiNGMUYxRjEiIGhlaWdodD0iMzIuODQzOCIgcng9IjEyLjUiIHJ5PSIxMi41IiBzdHlsZT0ic3Ryb2tlOiMxODE4MTg7c3Ryb2tlLXdpZHRoOjAuNTsiIHdpZHRoPSI5MyIgeD0iMTEiIHk9IjMyOS4zNzUiLz48dGV4dCBmaWxsPSIjMDAwMDAwIiBmb250LWZhbWlseT0ic2Fucy1zZXJpZiIgZm9udC1zaXplPSIxMiIgbGVuZ3RoQWRqdXN0PSJzcGFjaW5nIiB0ZXh0TGVuZ3RoPSI3MyIgeD0iMjEiIHk9IjM1MC43MTg4Ij5QYXVzZSB0cmFjazwvdGV4dD48cG9seWdvbiBmaWxsPSIjRjFGMUYxIiBwb2ludHM9IjE5OC41LDMyOS4zNzUsMzE4LjUsMzI5LjM3NSwzMzAuNSwzNDEuMzc1LDMxOC41LDM1My4zNzUsMTk4LjUsMzUzLjM3NSwxODYuNSwzNDEuMzc1LDE5OC41LDMyOS4zNzUiIHN0eWxlPSJzdHJva2U6IzE4MTgxODtzdHJva2Utd2lkdGg6MC41OyIvPjx0ZXh0IGZpbGw9IiMwMDAwMDAiIGZvbnQtZmFtaWx5PSJzYW5zLXNlcmlmIiBmb250LXNpemU9IjExIiBsZW5ndGhBZGp1c3Q9InNwYWNpbmciIHRleHRMZW5ndGg9IjEyMCIgeD0iMTk4LjUiIHk9IjM0NS44ODY3Ij5Vc2VyICB3YW50cyB0byBzdG9wPzwvdGV4dD48dGV4dCBmaWxsPSIjMDAwMDAwIiBmb250LWZhbWlseT0ic2Fucy1zZXJpZiIgZm9udC1zaXplPSIxMSIgbGVuZ3RoQWRqdXN0PSJzcGFjaW5nIiB0ZXh0TGVuZ3RoPSIxOCIgeD0iMTY4LjUiIHk9IjM0MCI+eWVzPC90ZXh0Pjx0ZXh0IGZpbGw9IiMwMDAwMDAiIGZvbnQtZmFtaWx5PSJzYW5zLXNlcmlmIiBmb250LXNpemU9IjExIiBsZW5ndGhBZGp1c3Q9InNwYWNpbmciIHRleHRMZW5ndGg9IjEyIiB4PSIzMzAuNSIgeT0iMzQwIj5ubzwvdGV4dD48cmVjdCBmaWxsPSIjRjFGMUYxIiBoZWlnaHQ9IjMyLjg0MzgiIHJ4PSIxMi41IiByeT0iMTIuNSIgc3R5bGU9InN0cm9rZTojMTgxODE4O3N0cm9rZS13aWR0aDowLjU7IiB3aWR0aD0iODUiIHg9IjEzNCIgeT0iMzYzLjM3NSIvPjx0ZXh0IGZpbGw9IiMwMDAwMDAiIGZvbnQtZmFtaWx5PSJzYW5zLXNlcmlmIiBmb250LXNpemU9IjEyIiBsZW5ndGhBZGp1c3Q9InNwYWNpbmciIHRleHRMZW5ndGg9IjY1IiB4PSIxNDQiIHk9IjM4NC43MTg4Ij5TdG9wIHRyYWNrPC90ZXh0PjxyZWN0IGZpbGw9IiNGMUYxRjEiIGhlaWdodD0iMzIuODQzOCIgcng9IjEyLjUiIHJ5PSIxMi41IiBzdHlsZT0ic3Ryb2tlOiMxODE4MTg7c3Ryb2tlLXdpZHRoOjAuNTsiIHdpZHRoPSIxMzYiIHg9IjI3Mi41IiB5PSI0MTEuMzc1Ii8+PHRleHQgZmlsbD0iIzAwMDAwMCIgZm9udC1mYW1pbHk9InNhbnMtc2VyaWYiIGZvbnQtc2l6ZT0iMTIiIGxlbmd0aEFkanVzdD0ic3BhY2luZyIgdGV4dExlbmd0aD0iMTE2IiB4PSIyODIuNSIgeT0iNDMyLjcxODgiPlNraXAgdG8gbmV4dCB0cmFjazwvdGV4dD48cG9seWdvbiBmaWxsPSIjRjFGMUYxIiBwb2ludHM9IjI4MC41LDM2My4zNzUsNDAwLjUsMzYzLjM3NSw0MTIuNSwzNzUuMzc1LDQwMC41LDM4Ny4zNzUsMjgwLjUsMzg3LjM3NSwyNjguNSwzNzUuMzc1LDI4MC41LDM2My4zNzUiIHN0eWxlPSJzdHJva2U6IzE4MTgxODtzdHJva2Utd2lkdGg6MC41OyIvPjx0ZXh0IGZpbGw9IiMwMDAwMDAiIGZvbnQtZmFtaWx5PSJzYW5zLXNlcmlmIiBmb250LXNpemU9IjExIiBsZW5ndGhBZGp1c3Q9InNwYWNpbmciIHRleHRMZW5ndGg9IjE4IiB4PSIzNDQuNSIgeT0iMzk3Ljc3MzQiPnllczwvdGV4dD48dGV4dCBmaWxsPSIjMDAwMDAwIiBmb250LWZhbWlseT0ic2Fucy1zZXJpZiIgZm9udC1zaXplPSIxMSIgbGVuZ3RoQWRqdXN0PSJzcGFjaW5nIiB0ZXh0TGVuZ3RoPSIxMjAiIHg9IjI4MC41IiB5PSIzNzkuODg2NyI+VXNlciAgd2FudHMgdG8gc2tpcD88L3RleHQ+PHBvbHlnb24gZmlsbD0iI0YxRjFGMSIgcG9pbnRzPSIzNDAuNSw0NjQuMjE4OCwzNTIuNSw0NzYuMjE4OCwzNDAuNSw0ODguMjE4OCwzMjguNSw0NzYuMjE4OCwzNDAuNSw0NjQuMjE4OCIgc3R5bGU9InN0cm9rZTojMTgxODE4O3N0cm9rZS13aWR0aDowLjU7Ii8+PHBvbHlnb24gZmlsbD0iI0YxRjFGMSIgcG9pbnRzPSIyNTguNSw0OTQuMjE4OCwyNzAuNSw1MDYuMjE4OCwyNTguNSw1MTguMjE4OCwyNDYuNSw1MDYuMjE4OCwyNTguNSw0OTQuMjE4OCIgc3R5bGU9InN0cm9rZTojMTgxODE4O3N0cm9rZS13aWR0aDowLjU7Ii8+PHBvbHlnb24gZmlsbD0iI0YxRjFGMSIgcG9pbnRzPSIxNTgsNTI0LjIxODgsMTcwLDUzNi4yMTg4LDE1OCw1NDguMjE4OCwxNDYsNTM2LjIxODgsMTU4LDUyNC4yMTg4IiBzdHlsZT0ic3Ryb2tlOiMxODE4MTg7c3Ryb2tlLXdpZHRoOjAuNTsiLz48cmVjdCBmaWxsPSIjRjFGMUYxIiBoZWlnaHQ9IjMyLjg0MzgiIHJ4PSIxMi41IiByeT0iMTIuNSIgc3R5bGU9InN0cm9rZTojMTgxODE4O3N0cm9rZS13aWR0aDowLjU7IiB3aWR0aD0iMTQyIiB4PSI0NTAuMjUiIHk9IjE4OS42ODc1Ii8+PHRleHQgZmlsbD0iIzAwMDAwMCIgZm9udC1mYW1pbHk9InNhbnMtc2VyaWYiIGZvbnQtc2l6ZT0iMTIiIGxlbmd0aEFkanVzdD0ic3BhY2luZyIgdGV4dExlbmd0aD0iMTIyIiB4PSI0NjAuMjUiIHk9IjIxMS4wMzEzIj5TaG93IGVycm9yIG1lc3NhZ2U8L3RleHQ+PHBvbHlnb24gZmlsbD0iI0YxRjFGMSIgcG9pbnRzPSIzNDkuNzUsNTU0LjIxODgsMzYxLjc1LDU2Ni4yMTg4LDM0OS43NSw1NzguMjE4OCwzMzcuNzUsNTY2LjIxODgsMzQ5Ljc1LDU1NC4yMTg4IiBzdHlsZT0ic3Ryb2tlOiMxODE4MTg7c3Ryb2tlLXdpZHRoOjAuNTsiLz48ZWxsaXBzZSBjeD0iMzQ5Ljc1IiBjeT0iNjA5LjIxODgiIGZpbGw9Im5vbmUiIHJ4PSIxMSIgcnk9IjExIiBzdHlsZT0ic3Ryb2tlOiMyMjIyMjI7c3Ryb2tlLXdpZHRoOjEuMDsiLz48ZWxsaXBzZSBjeD0iMzQ5Ljc1IiBjeT0iNjA5LjIxODgiIGZpbGw9IiMyMjIyMjIiIHJ4PSI2IiByeT0iNiIgc3R5bGU9InN0cm9rZTojMjIyMjIyO3N0cm9rZS13aWR0aDoxLjA7Ii8+PGxpbmUgc3R5bGU9InN0cm9rZTojMTgxODE4O3N0cm9rZS13aWR0aDoxLjA7IiB4MT0iMzQ5Ljc1IiB4Mj0iMzQ5Ljc1IiB5MT0iMzAiIHkyPSI1MCIvPjxwb2x5Z29uIGZpbGw9IiMxODE4MTgiIHBvaW50cz0iMzQ1Ljc1LDQwLDM0OS43NSw1MCwzNTMuNzUsNDAsMzQ5Ljc1LDQ0IiBzdHlsZT0ic3Ryb2tlOiMxODE4MTg7c3Ryb2tlLXdpZHRoOjEuMDsiLz48bGluZSBzdHlsZT0ic3Ryb2tlOiMxODE4MTg7c3Ryb2tlLXdpZHRoOjEuMDsiIHgxPSIzNDkuNzUiIHgyPSIzNDkuNzUiIHkxPSI4Mi44NDM4IiB5Mj0iMTAyLjg0MzgiLz48cG9seWdvbiBmaWxsPSIjMTgxODE4IiBwb2ludHM9IjM0NS43NSw5Mi44NDM4LDM0OS43NSwxMDIuODQzOCwzNTMuNzUsOTIuODQzOCwzNDkuNzUsOTYuODQzOCIgc3R5bGU9InN0cm9rZTojMTgxODE4O3N0cm9rZS13aWR0aDoxLjA7Ii8+PGxpbmUgc3R5bGU9InN0cm9rZTojMTgxODE4O3N0cm9rZS13aWR0aDoxLjA7IiB4MT0iMTU4IiB4Mj0iMTU4IiB5MT0iMjIyLjUzMTMiIHkyPSIyNDIuNTMxMyIvPjxwb2x5Z29uIGZpbGw9IiMxODE4MTgiIHBvaW50cz0iMTU0LDIzMi41MzEzLDE1OCwyNDIuNTMxMywxNjIsMjMyLjUzMTMsMTU4LDIzNi41MzEzIiBzdHlsZT0ic3Ryb2tlOiMxODE4MTg7c3Ryb2tlLXdpZHRoOjEuMDsiLz48bGluZSBzdHlsZT0ic3Ryb2tlOiMxODE4MTg7c3Ryb2tlLXdpZHRoOjEuMDsiIHgxPSIzNDAuNSIgeDI9IjM0MC41IiB5MT0iMzg3LjM3NSIgeTI9IjQxMS4zNzUiLz48cG9seWdvbiBmaWxsPSIjMTgxODE4IiBwb2ludHM9IjMzNi41LDQwMS4zNzUsMzQwLjUsNDExLjM3NSwzNDQuNSw0MDEuMzc1LDM0MC41LDQwNS4zNzUiIHN0eWxlPSJzdHJva2U6IzE4MTgxODtzdHJva2Utd2lkdGg6MS4wOyIvPjxsaW5lIHN0eWxlPSJzdHJva2U6IzE4MTgxODtzdHJva2Utd2lkdGg6MS4wOyIgeDE9IjQxMi41IiB4Mj0iNDI0LjUiIHkxPSIzNzUuMzc1IiB5Mj0iMzc1LjM3NSIvPjxwb2x5Z29uIGZpbGw9IiMxODE4MTgiIHBvaW50cz0iNDIwLjUsNDE3Ljc5NjksNDI0LjUsNDI3Ljc5NjksNDI4LjUsNDE3Ljc5NjksNDI0LjUsNDIxLjc5NjkiIHN0eWxlPSJzdHJva2U6IzE4MTgxODtzdHJva2Utd2lkdGg6MS4wOyIvPjxsaW5lIHN0eWxlPSJzdHJva2U6IzE4MTgxODtzdHJva2Utd2lkdGg6MS4wOyIgeDE9IjQyNC41IiB4Mj0iNDI0LjUiIHkxPSIzNzUuMzc1IiB5Mj0iNDc2LjIxODgiLz48bGluZSBzdHlsZT0ic3Ryb2tlOiMxODE4MTg7c3Ryb2tlLXdpZHRoOjEuMDsiIHgxPSI0MjQuNSIgeDI9IjM1Mi41IiB5MT0iNDc2LjIxODgiIHkyPSI0NzYuMjE4OCIvPjxwb2x5Z29uIGZpbGw9IiMxODE4MTgiIHBvaW50cz0iMzYyLjUsNDcyLjIxODgsMzUyLjUsNDc2LjIxODgsMzYyLjUsNDgwLjIxODgsMzU4LjUsNDc2LjIxODgiIHN0eWxlPSJzdHJva2U6IzE4MTgxODtzdHJva2Utd2lkdGg6MS4wOyIvPjxsaW5lIHN0eWxlPSJzdHJva2U6IzE4MTgxODtzdHJva2Utd2lkdGg6MS4wOyIgeDE9IjM0MC41IiB4Mj0iMzQwLjUiIHkxPSI0NDQuMjE4OCIgeTI9IjQ2NC4yMTg4Ii8+PHBvbHlnb24gZmlsbD0iIzE4MTgxOCIgcG9pbnRzPSIzMzYuNSw0NTQuMjE4OCwzNDAuNSw0NjQuMjE4OCwzNDQuNSw0NTQuMjE4OCwzNDAuNSw0NTguMjE4OCIgc3R5bGU9InN0cm9rZTojMTgxODE4O3N0cm9rZS13aWR0aDoxLjA7Ii8+PGxpbmUgc3R5bGU9InN0cm9rZTojMTgxODE4O3N0cm9rZS13aWR0aDoxLjA7IiB4MT0iMTg2LjUiIHgyPSIxNzYuNSIgeTE9IjM0MS4zNzUiIHkyPSIzNDEuMzc1Ii8+PGxpbmUgc3R5bGU9InN0cm9rZTojMTgxODE4O3N0cm9rZS13aWR0aDoxLjA7IiB4MT0iMTc2LjUiIHgyPSIxNzYuNSIgeTE9IjM0MS4zNzUiIHkyPSIzNjMuMzc1Ii8+PHBvbHlnb24gZmlsbD0iIzE4MTgxOCIgcG9pbnRzPSIxNzIuNSwzNTMuMzc1LDE3Ni41LDM2My4zNzUsMTgwLjUsMzUzLjM3NSwxNzYuNSwzNTcuMzc1IiBzdHlsZT0ic3Ryb2tlOiMxODE4MTg7c3Ryb2tlLXdpZHRoOjEuMDsiLz48bGluZSBzdHlsZT0ic3Ryb2tlOiMxODE4MTg7c3Ryb2tlLXdpZHRoOjEuMDsiIHgxPSIzMzAuNSIgeDI9IjM0MC41IiB5MT0iMzQxLjM3NSIgeTI9IjM0MS4zNzUiLz48bGluZSBzdHlsZT0ic3Ryb2tlOiMxODE4MTg7c3Ryb2tlLXdpZHRoOjEuMDsiIHgxPSIzNDAuNSIgeDI9IjM0MC41IiB5MT0iMzQxLjM3NSIgeTI9IjM2My4zNzUiLz48cG9seWdvbiBmaWxsPSIjMTgxODE4IiBwb2ludHM9IjMzNi41LDM1My4zNzUsMzQwLjUsMzYzLjM3NSwzNDQuNSwzNTMuMzc1LDM0MC41LDM1Ny4zNzUiIHN0eWxlPSJzdHJva2U6IzE4MTgxODtzdHJva2Utd2lkdGg6MS4wOyIvPjxsaW5lIHN0eWxlPSJzdHJva2U6IzE4MTgxODtzdHJva2Utd2lkdGg6MS4wOyIgeDE9IjE3Ni41IiB4Mj0iMTc2LjUiIHkxPSIzOTYuMjE4OCIgeTI9IjUwNi4yMTg4Ii8+PGxpbmUgc3R5bGU9InN0cm9rZTojMTgxODE4O3N0cm9rZS13aWR0aDoxLjA7IiB4MT0iMTc2LjUiIHgyPSIyNDYuNSIgeTE9IjUwNi4yMTg4IiB5Mj0iNTA2LjIxODgiLz48cG9seWdvbiBmaWxsPSIjMTgxODE4IiBwb2ludHM9IjIzNi41LDUwMi4yMTg4LDI0Ni41LDUwNi4yMTg4LDIzNi41LDUxMC4yMTg4LDI0MC41LDUwNi4yMTg4IiBzdHlsZT0ic3Ryb2tlOiMxODE4MTg7c3Ryb2tlLXdpZHRoOjEuMDsiLz48bGluZSBzdHlsZT0ic3Ryb2tlOiMxODE4MTg7c3Ryb2tlLXdpZHRoOjEuMDsiIHgxPSIzNDAuNSIgeDI9IjM0MC41IiB5MT0iNDg4LjIxODgiIHkyPSI1MDYuMjE4OCIvPjxsaW5lIHN0eWxlPSJzdHJva2U6IzE4MTgxODtzdHJva2Utd2lkdGg6MS4wOyIgeDE9IjM0MC41IiB4Mj0iMjcwLjUiIHkxPSI1MDYuMjE4OCIgeTI9IjUwNi4yMTg4Ii8+PHBvbHlnb24gZmlsbD0iIzE4MTgxOCIgcG9pbnRzPSIyODAuNSw1MDIuMjE4OCwyNzAuNSw1MDYuMjE4OCwyODAuNSw1MTAuMjE4OCwyNzYuNSw1MDYuMjE4OCIgc3R5bGU9InN0cm9rZTojMTgxODE4O3N0cm9rZS13aWR0aDoxLjA7Ii8+PGxpbmUgc3R5bGU9InN0cm9rZTojMTgxODE4O3N0cm9rZS13aWR0aDoxLjA7IiB4MT0iODMiIHgyPSI1Ny41IiB5MT0iMzA3LjM3NSIgeTI9IjMwNy4zNzUiLz48bGluZSBzdHlsZT0ic3Ryb2tlOiMxODE4MTg7c3Ryb2tlLXdpZHRoOjEuMDsiIHgxPSI1Ny41IiB4Mj0iNTcuNSIgeTE9IjMwNy4zNzUiIHkyPSIzMjkuMzc1Ii8+PHBvbHlnb24gZmlsbD0iIzE4MTgxOCIgcG9pbnRzPSI1My41LDMxOS4zNzUsNTcuNSwzMjkuMzc1LDYxLjUsMzE5LjM3NSw1Ny41LDMyMy4zNzUiIHN0eWxlPSJzdHJva2U6IzE4MTgxODtzdHJva2Utd2lkdGg6MS4wOyIvPjxsaW5lIHN0eWxlPSJzdHJva2U6IzE4MTgxODtzdHJva2Utd2lkdGg6MS4wOyIgeDE9IjIzMyIgeDI9IjI1OC41IiB5MT0iMzA3LjM3NSIgeTI9IjMwNy4zNzUiLz48bGluZSBzdHlsZT0ic3Ryb2tlOiMxODE4MTg7c3Ryb2tlLXdpZHRoOjEuMDsiIHgxPSIyNTguNSIgeDI9IjI1OC41IiB5MT0iMzA3LjM3NSIgeTI9IjMyOS4zNzUiLz48cG9seWdvbiBmaWxsPSIjMTgxODE4IiBwb2ludHM9IjI1NC41LDMxOS4zNzUsMjU4LjUsMzI5LjM3NSwyNjIuNSwzMTkuMzc1LDI1OC41LDMyMy4zNzUiIHN0eWxlPSJzdHJva2U6IzE4MTgxODtzdHJva2Utd2lkdGg6MS4wOyIvPjxsaW5lIHN0eWxlPSJzdHJva2U6IzE4MTgxODtzdHJva2Utd2lkdGg6MS4wOyIgeDE9IjU3LjUiIHgyPSI1Ny41IiB5MT0iMzYyLjIxODgiIHkyPSI1MzYuMjE4OCIvPjxsaW5lIHN0eWxlPSJzdHJva2U6IzE4MTgxODtzdHJva2Utd2lkdGg6MS4wOyIgeDE9IjU3LjUiIHgyPSIxNDYiIHkxPSI1MzYuMjE4OCIgeTI9IjUzNi4yMTg4Ii8+PHBvbHlnb24gZmlsbD0iIzE4MTgxOCIgcG9pbnRzPSIxMzYsNTMyLjIxODgsMTQ2LDUzNi4yMTg4LDEzNiw1NDAuMjE4OCwxNDAsNTM2LjIxODgiIHN0eWxlPSJzdHJva2U6IzE4MTgxODtzdHJva2Utd2lkdGg6MS4wOyIvPjxsaW5lIHN0eWxlPSJzdHJva2U6IzE4MTgxODtzdHJva2Utd2lkdGg6MS4wOyIgeDE9IjI1OC41IiB4Mj0iMjU4LjUiIHkxPSI1MTguMjE4OCIgeTI9IjUzNi4yMTg4Ii8+PGxpbmUgc3R5bGU9InN0cm9rZTojMTgxODE4O3N0cm9rZS13aWR0aDoxLjA7IiB4MT0iMjU4LjUiIHgyPSIxNzAiIHkxPSI1MzYuMjE4OCIgeTI9IjUzNi4yMTg4Ii8+PHBvbHlnb24gZmlsbD0iIzE4MTgxOCIgcG9pbnRzPSIxODAsNTMyLjIxODgsMTcwLDUzNi4yMTg4LDE4MCw1NDAuMjE4OCwxNzYsNTM2LjIxODgiIHN0eWxlPSJzdHJva2U6IzE4MTgxODtzdHJva2Utd2lkdGg6MS4wOyIvPjxsaW5lIHN0eWxlPSJzdHJva2U6IzE4MTgxODtzdHJva2Utd2lkdGg6MS4wOyIgeDE9IjE1OCIgeDI9IjE1OCIgeTE9IjI3NS4zNzUiIHkyPSIyOTUuMzc1Ii8+PHBvbHlnb24gZmlsbD0iIzE4MTgxOCIgcG9pbnRzPSIxNTQsMjg1LjM3NSwxNTgsMjk1LjM3NSwxNjIsMjg1LjM3NSwxNTgsMjg5LjM3NSIgc3R5bGU9InN0cm9rZTojMTgxODE4O3N0cm9rZS13aWR0aDoxLjA7Ii8+PGxpbmUgc3R5bGU9InN0cm9rZTojMTgxODE4O3N0cm9rZS13aWR0aDoxLjA7IiB4MT0iMjgwLjc1IiB4Mj0iMTU4IiB5MT0iMTY3LjY4NzUiIHkyPSIxNjcuNjg3NSIvPjxsaW5lIHN0eWxlPSJzdHJva2U6IzE4MTgxODtzdHJva2Utd2lkdGg6MS4wOyIgeDE9IjE1OCIgeDI9IjE1OCIgeTE9IjE2Ny42ODc1IiB5Mj0iMTg5LjY4NzUiLz48cG9seWdvbiBmaWxsPSIjMTgxODE4IiBwb2ludHM9IjE1NCwxNzkuNjg3NSwxNTgsMTg5LjY4NzUsMTYyLDE3OS42ODc1LDE1OCwxODMuNjg3NSIgc3R5bGU9InN0cm9rZTojMTgxODE4O3N0cm9rZS13aWR0aDoxLjA7Ii8+PGxpbmUgc3R5bGU9InN0cm9rZTojMTgxODE4O3N0cm9rZS13aWR0aDoxLjA7IiB4MT0iNDE4Ljc1IiB4Mj0iNTIxLjI1IiB5MT0iMTY3LjY4NzUiIHkyPSIxNjcuNjg3NSIvPjxsaW5lIHN0eWxlPSJzdHJva2U6IzE4MTgxODtzdHJva2Utd2lkdGg6MS4wOyIgeDE9IjUyMS4yNSIgeDI9IjUyMS4yNSIgeTE9IjE2Ny42ODc1IiB5Mj0iMTg5LjY4NzUiLz48cG9seWdvbiBmaWxsPSIjMTgxODE4IiBwb2ludHM9IjUxNy4yNSwxNzkuNjg3NSw1MjEuMjUsMTg5LjY4NzUsNTI1LjI1LDE3OS42ODc1LDUyMS4yNSwxODMuNjg3NSIgc3R5bGU9InN0cm9rZTojMTgxODE4O3N0cm9rZS13aWR0aDoxLjA7Ii8+PGxpbmUgc3R5bGU9InN0cm9rZTojMTgxODE4O3N0cm9rZS13aWR0aDoxLjA7IiB4MT0iMTU4IiB4Mj0iMTU4IiB5MT0iNTQ4LjIxODgiIHkyPSI1NjYuMjE4OCIvPjxsaW5lIHN0eWxlPSJzdHJva2U6IzE4MTgxODtzdHJva2Utd2lkdGg6MS4wOyIgeDE9IjE1OCIgeDI9IjMzNy43NSIgeTE9IjU2Ni4yMTg4IiB5Mj0iNTY2LjIxODgiLz48cG9seWdvbiBmaWxsPSIjMTgxODE4IiBwb2ludHM9IjMyNy43NSw1NjIuMjE4OCwzMzcuNzUsNTY2LjIxODgsMzI3Ljc1LDU3MC4yMTg4LDMzMS43NSw1NjYuMjE4OCIgc3R5bGU9InN0cm9rZTojMTgxODE4O3N0cm9rZS13aWR0aDoxLjA7Ii8+PGxpbmUgc3R5bGU9InN0cm9rZTojMTgxODE4O3N0cm9rZS13aWR0aDoxLjA7IiB4MT0iNTIxLjI1IiB4Mj0iNTIxLjI1IiB5MT0iMjIyLjUzMTMiIHkyPSI1NjYuMjE4OCIvPjxsaW5lIHN0eWxlPSJzdHJva2U6IzE4MTgxODtzdHJva2Utd2lkdGg6MS4wOyIgeDE9IjUyMS4yNSIgeDI9IjM2MS43NSIgeTE9IjU2Ni4yMTg4IiB5Mj0iNTY2LjIxODgiLz48cG9seWdvbiBmaWxsPSIjMTgxODE4IiBwb2ludHM9IjM3MS43NSw1NjIuMjE4OCwzNjEuNzUsNTY2LjIxODgsMzcxLjc1LDU3MC4yMTg4LDM2Ny43NSw1NjYuMjE4OCIgc3R5bGU9InN0cm9rZTojMTgxODE4O3N0cm9rZS13aWR0aDoxLjA7Ii8+PGxpbmUgc3R5bGU9InN0cm9rZTojMTgxODE4O3N0cm9rZS13aWR0aDoxLjA7IiB4MT0iMzQ5Ljc1IiB4Mj0iMzQ5Ljc1IiB5MT0iMTM1LjY4NzUiIHkyPSIxNTUuNjg3NSIvPjxwb2x5Z29uIGZpbGw9IiMxODE4MTgiIHBvaW50cz0iMzQ1Ljc1LDE0NS42ODc1LDM0OS43NSwxNTUuNjg3NSwzNTMuNzUsMTQ1LjY4NzUsMzQ5Ljc1LDE0OS42ODc1IiBzdHlsZT0ic3Ryb2tlOiMxODE4MTg7c3Ryb2tlLXdpZHRoOjEuMDsiLz48bGluZSBzdHlsZT0ic3Ryb2tlOiMxODE4MTg7c3Ryb2tlLXdpZHRoOjEuMDsiIHgxPSIzNDkuNzUiIHgyPSIzNDkuNzUiIHkxPSI1NzguMjE4OCIgeTI9IjU5OC4yMTg4Ii8+PHBvbHlnb24gZmlsbD0iIzE4MTgxOCIgcG9pbnRzPSIzNDUuNzUsNTg4LjIxODgsMzQ5Ljc1LDU5OC4yMTg4LDM1My43NSw1ODguMjE4OCwzNDkuNzUsNTkyLjIxODgiIHN0eWxlPSJzdHJva2U6IzE4MTgxODtzdHJva2Utd2lkdGg6MS4wOyIvPjwhLS1TUkM9W1ZPeW4zaThtMzROdGRDOVprSzh4aUIwWThIS0VPOGdYNEk2Zk9mVjJ4S2FRNUdlNENqZC10LXl4QkVYNWJKaWMzLTB3aVdwaGRkSzM2dUR0eWpLYUNIYmdYMDUxRjNSZElrYVo1RGpPV1d4SkFzZzNVcUZCMUtYQjVlZXh5SzkxVTZLNEpLbFpPQU12VXl4V0cxOXNFTWFIY2w4NmoyNUQ3N0pPU21RUnE1NlJpeWM0bGgza3ZTYUdNTG9OMXV4R0VpWHBQZnh4WXR0TVZ6WTk3b3BIUWthY2RwYlpiWnRlZV9oa0tsTC1JTGN0Ulczb3RkY3U0M0VVZzVCOTY3X3YwMDAwXS0tPjwvZz48L3N2Zz4=;" parent="1" vertex="1">
            <mxGeometry x="-1210" y="469" width="603" height="631" as="geometry" />
          </mxCell>
        </UserObject>
        <UserObject label="" plantUmlData="{&#xa;  &quot;data&quot;: &quot;@startuml\nleft to right direction\n\nactor User as U\nactor Admin as A\n\n\n    (Play Music) as UC1\n    (Pause Music) as UC2\n    (Stop Music) as UC3\n    (Skip Track) as UC4\n    (Add to Playlist) as UC5\n    (View Playlist) as UC6\n    (Search Music) as UC7\n    (Rate Track) as UC8\n    (Login) as UC9\n    (Logout) as UC10\n\n    (Manage Users) as UC11\n    (Manage Playlists) as UC12\n    (Upload Music) as UC13\n    (Delete Music) as UC14\n    (View Analytics) as UC15\n\nU --&gt; UC1\nU --&gt; UC2\nU --&gt; UC3\nU --&gt; UC4\nU --&gt; UC5\nU --&gt; UC6\nU --&gt; UC7\nU --&gt; UC8\nU --&gt; UC9\nU --&gt; UC10\n\nA --&gt; UC11\nA --&gt; UC12\nA --&gt; UC13\nA --&gt; UC14\nA --&gt; UC15\n\n@enduml&quot;,&#xa;  &quot;format&quot;: &quot;svg&quot;&#xa;}" id="WXJgysBUuHvF9zrhM9b4-72">
          <mxCell style="shape=image;noLabel=1;verticalAlign=top;aspect=fixed;imageAspect=0;image=data:image/svg+xml,PD94bWwgdmVyc2lvbj0iMS4wIiBlbmNvZGluZz0idXMtYXNjaWkiIHN0YW5kYWxvbmU9Im5vIj8+PHN2ZyB4bWxucz0iaHR0cDovL3d3dy53My5vcmcvMjAwMC9zdmciIHhtbG5zOnhsaW5rPSJodHRwOi8vd3d3LnczLm9yZy8xOTk5L3hsaW5rIiBjb250ZW50U3R5bGVUeXBlPSJ0ZXh0L2NzcyIgaGVpZ2h0PSI5NTRweCIgcHJlc2VydmVBc3BlY3RSYXRpbz0ibm9uZSIgc3R5bGU9IndpZHRoOjI1OHB4O2hlaWdodDo5NTRweDtiYWNrZ3JvdW5kOiNGRkZGRkY7IiB2ZXJzaW9uPSIxLjEiIHZpZXdCb3g9IjAgMCAyNTggOTU0IiB3aWR0aD0iMjU4cHgiIHpvb21BbmRQYW49Im1hZ25pZnkiPjxkZWZzLz48Zz48IS0tZW50aXR5IFUtLT48ZyBpZD0iZWxlbV9VIj48ZWxsaXBzZSBjeD0iMjQiIGN5PSI2MTciIGZpbGw9IiNGMUYxRjEiIHJ4PSI4IiByeT0iOCIgc3R5bGU9InN0cm9rZTojMTgxODE4O3N0cm9rZS13aWR0aDowLjU7Ii8+PHBhdGggZD0iTTI0LDYyNSBMMjQsNjUyIE0xMSw2MzMgTDM3LDYzMyBNMjQsNjUyIEwxMSw2NjcgTTI0LDY1MiBMMzcsNjY3ICIgZmlsbD0ibm9uZSIgc3R5bGU9InN0cm9rZTojMTgxODE4O3N0cm9rZS13aWR0aDowLjU7Ii8+PHRleHQgZmlsbD0iIzAwMDAwMCIgZm9udC1mYW1pbHk9InNhbnMtc2VyaWYiIGZvbnQtc2l6ZT0iMTQiIGxlbmd0aEFkanVzdD0ic3BhY2luZyIgdGV4dExlbmd0aD0iMjgiIHg9IjEwIiB5PSI2ODEuNzM0NCI+VXNlcjwvdGV4dD48L2c+PCEtLWVudGl0eSBBLS0+PGcgaWQ9ImVsZW1fQSI+PGVsbGlwc2UgY3g9IjI0IiBjeT0iMTI4IiBmaWxsPSIjRjFGMUYxIiByeD0iOCIgcnk9IjgiIHN0eWxlPSJzdHJva2U6IzE4MTgxODtzdHJva2Utd2lkdGg6MC41OyIvPjxwYXRoIGQ9Ik0yNCwxMzYgTDI0LDE2MyBNMTEsMTQ0IEwzNywxNDQgTTI0LDE2MyBMMTEsMTc4IE0yNCwxNjMgTDM3LDE3OCAiIGZpbGw9Im5vbmUiIHN0eWxlPSJzdHJva2U6IzE4MTgxODtzdHJva2Utd2lkdGg6MC41OyIvPjx0ZXh0IGZpbGw9IiMwMDAwMDAiIGZvbnQtZmFtaWx5PSJzYW5zLXNlcmlmIiBmb250LXNpemU9IjE0IiBsZW5ndGhBZGp1c3Q9InNwYWNpbmciIHRleHRMZW5ndGg9IjM2IiB4PSI2IiB5PSIxOTIuNzM0NCI+QWRtaW48L3RleHQ+PC9nPjxnIGlkPSJlbGVtX1VDMSI+PGVsbGlwc2UgY3g9IjE3Ny41MzY3IiBjeT0iMzU1LjEwNzMiIGZpbGw9IiNGMUYxRjEiIHJ4PSI1OC41MzY3IiByeT0iMTQuMTA3MyIgc3R5bGU9InN0cm9rZTojMTgxODE4O3N0cm9rZS13aWR0aDowLjU7Ii8+PHRleHQgZmlsbD0iIzAwMDAwMCIgZm9udC1mYW1pbHk9InNhbnMtc2VyaWYiIGZvbnQtc2l6ZT0iMTQiIGxlbmd0aEFkanVzdD0ic3BhY2luZyIgdGV4dExlbmd0aD0iNzAiIHg9IjE0Mi41MzY3IiB5PSIzNTguODQ5NSI+UGxheSBNdXNpYzwvdGV4dD48L2c+PGcgaWQ9ImVsZW1fVUMyIj48ZWxsaXBzZSBjeD0iMTc3LjY2ODUiIGN5PSI0MTkuMTMzNyIgZmlsbD0iI0YxRjFGMSIgcng9IjYxLjE2ODUiIHJ5PSIxNC42MzM3IiBzdHlsZT0ic3Ryb2tlOiMxODE4MTg7c3Ryb2tlLXdpZHRoOjAuNTsiLz48dGV4dCBmaWxsPSIjMDAwMDAwIiBmb250LWZhbWlseT0ic2Fucy1zZXJpZiIgZm9udC1zaXplPSIxNCIgbGVuZ3RoQWRqdXN0PSJzcGFjaW5nIiB0ZXh0TGVuZ3RoPSI3NyIgeD0iMTM5LjE2ODUiIHk9IjQyMi44NzU5Ij5QYXVzZSBNdXNpYzwvdGV4dD48L2c+PGcgaWQ9ImVsZW1fVUMzIj48ZWxsaXBzZSBjeD0iMTc3LjUzNjciIGN5PSI0ODMuMTA3MyIgZmlsbD0iI0YxRjFGMSIgcng9IjU4LjUzNjciIHJ5PSIxNC4xMDczIiBzdHlsZT0ic3Ryb2tlOiMxODE4MTg7c3Ryb2tlLXdpZHRoOjAuNTsiLz48dGV4dCBmaWxsPSIjMDAwMDAwIiBmb250LWZhbWlseT0ic2Fucy1zZXJpZiIgZm9udC1zaXplPSIxNCIgbGVuZ3RoQWRqdXN0PSJzcGFjaW5nIiB0ZXh0TGVuZ3RoPSI3MCIgeD0iMTQyLjUzNjciIHk9IjQ4Ni44NDk1Ij5TdG9wIE11c2ljPC90ZXh0PjwvZz48ZyBpZD0iZWxlbV9VQzQiPjxlbGxpcHNlIGN4PSIxNzcuNTM2NyIgY3k9IjU0Ni4xMDczIiBmaWxsPSIjRjFGMUYxIiByeD0iNTguNTM2NyIgcnk9IjE0LjEwNzMiIHN0eWxlPSJzdHJva2U6IzE4MTgxODtzdHJva2Utd2lkdGg6MC41OyIvPjx0ZXh0IGZpbGw9IiMwMDAwMDAiIGZvbnQtZmFtaWx5PSJzYW5zLXNlcmlmIiBmb250LXNpemU9IjE0IiBsZW5ndGhBZGp1c3Q9InNwYWNpbmciIHRleHRMZW5ndGg9IjcwIiB4PSIxNDIuNTM2NyIgeT0iNTQ5Ljg0OTUiPlNraXAgVHJhY2s8L3RleHQ+PC9nPjxnIGlkPSJlbGVtX1VDNSI+PGVsbGlwc2UgY3g9IjE3Ny40NjYzIiBjeT0iNjExLjg5MzMiIGZpbGw9IiNGMUYxRjEiIHJ4PSI3Mi40NjYzIiByeT0iMTYuODkzMyIgc3R5bGU9InN0cm9rZTojMTgxODE4O3N0cm9rZS13aWR0aDowLjU7Ii8+PHRleHQgZmlsbD0iIzAwMDAwMCIgZm9udC1mYW1pbHk9InNhbnMtc2VyaWYiIGZvbnQtc2l6ZT0iMTQiIGxlbmd0aEFkanVzdD0ic3BhY2luZyIgdGV4dExlbmd0aD0iMTA1IiB4PSIxMjQuOTY2MyIgeT0iNjE1LjYzNTUiPkFkZCB0byBQbGF5bGlzdDwvdGV4dD48L2c+PGcgaWQ9ImVsZW1fVUM2Ij48ZWxsaXBzZSBjeD0iMTc3LjU4ODQiIGN5PSI2NzkuODE3NyIgZmlsbD0iI0YxRjFGMSIgcng9IjY3LjA4ODQiIHJ5PSIxNS44MTc3IiBzdHlsZT0ic3Ryb2tlOiMxODE4MTg7c3Ryb2tlLXdpZHRoOjAuNTsiLz48dGV4dCBmaWxsPSIjMDAwMDAwIiBmb250LWZhbWlseT0ic2Fucy1zZXJpZiIgZm9udC1zaXplPSIxNCIgbGVuZ3RoQWRqdXN0PSJzcGFjaW5nIiB0ZXh0TGVuZ3RoPSI5MiIgeD0iMTMxLjU4ODQiIHk9IjY4My41NTk5Ij5WaWV3IFBsYXlsaXN0PC90ZXh0PjwvZz48ZyBpZD0iZWxlbV9VQzciPjxlbGxpcHNlIGN4PSIxNzcuMzg3OCIgY3k9Ijc0Ni4xNzc2IiBmaWxsPSIjRjFGMUYxIiByeD0iNjMuODg3OCIgcnk9IjE1LjE3NzYiIHN0eWxlPSJzdHJva2U6IzE4MTgxODtzdHJva2Utd2lkdGg6MC41OyIvPjx0ZXh0IGZpbGw9IiMwMDAwMDAiIGZvbnQtZmFtaWx5PSJzYW5zLXNlcmlmIiBmb250LXNpemU9IjE0IiBsZW5ndGhBZGp1c3Q9InNwYWNpbmciIHRleHRMZW5ndGg9Ijg0IiB4PSIxMzUuMzg3OCIgeT0iNzQ5LjkxOTciPlNlYXJjaCBNdXNpYzwvdGV4dD48L2c+PGcgaWQ9ImVsZW1fVUM4Ij48ZWxsaXBzZSBjeD0iMTc3LjUzNjciIGN5PSI4MTAuMTA3MyIgZmlsbD0iI0YxRjFGMSIgcng9IjU4LjUzNjciIHJ5PSIxNC4xMDczIiBzdHlsZT0ic3Ryb2tlOiMxODE4MTg7c3Ryb2tlLXdpZHRoOjAuNTsiLz48dGV4dCBmaWxsPSIjMDAwMDAwIiBmb250LWZhbWlseT0ic2Fucy1zZXJpZiIgZm9udC1zaXplPSIxNCIgbGVuZ3RoQWRqdXN0PSJzcGFjaW5nIiB0ZXh0TGVuZ3RoPSI3MCIgeD0iMTQyLjUzNjciIHk9IjgxMy44NDk1Ij5SYXRlIFRyYWNrPC90ZXh0PjwvZz48ZyBpZD0iZWxlbV9VQzkiPjxlbGxpcHNlIGN4PSIxNzcuNzM0IiBjeT0iODczLjA5NTYiIGZpbGw9IiNGMUYxRjEiIHJ4PSIzNi4yMzQiIHJ5PSIxMy41OTU2IiBzdHlsZT0ic3Ryb2tlOiMxODE4MTg7c3Ryb2tlLXdpZHRoOjAuNTsiLz48dGV4dCBmaWxsPSIjMDAwMDAwIiBmb250LWZhbWlseT0ic2Fucy1zZXJpZiIgZm9udC1zaXplPSIxNCIgbGVuZ3RoQWRqdXN0PSJzcGFjaW5nIiB0ZXh0TGVuZ3RoPSIzNSIgeD0iMTYwLjIzNCIgeT0iODc2LjgzNzciPkxvZ2luPC90ZXh0PjwvZz48ZyBpZD0iZWxlbV9VQzEwIj48ZWxsaXBzZSBjeD0iMTc3LjY4MzgiIGN5PSI5MzUuMDk1NiIgZmlsbD0iI0YxRjFGMSIgcng9IjQxLjE4MzgiIHJ5PSIxMy41OTU2IiBzdHlsZT0ic3Ryb2tlOiMxODE4MTg7c3Ryb2tlLXdpZHRoOjAuNTsiLz48dGV4dCBmaWxsPSIjMDAwMDAwIiBmb250LWZhbWlseT0ic2Fucy1zZXJpZiIgZm9udC1zaXplPSIxNCIgbGVuZ3RoQWRqdXN0PSJzcGFjaW5nIiB0ZXh0TGVuZ3RoPSI0MiIgeD0iMTU2LjY4MzgiIHk9IjkzOC44Mzc3Ij5Mb2dvdXQ8L3RleHQ+PC9nPjxnIGlkPSJlbGVtX1VDMTEiPjxlbGxpcHNlIGN4PSIxNzcuMzg3OCIgY3k9IjIxLjE3NzYiIGZpbGw9IiNGMUYxRjEiIHJ4PSI2My44ODc4IiByeT0iMTUuMTc3NiIgc3R5bGU9InN0cm9rZTojMTgxODE4O3N0cm9rZS13aWR0aDowLjU7Ii8+PHRleHQgZmlsbD0iIzAwMDAwMCIgZm9udC1mYW1pbHk9InNhbnMtc2VyaWYiIGZvbnQtc2l6ZT0iMTQiIGxlbmd0aEFkanVzdD0ic3BhY2luZyIgdGV4dExlbmd0aD0iODQiIHg9IjEzNS4zODc4IiB5PSIyNC45MTk3Ij5NYW5hZ2UgVXNlcnM8L3RleHQ+PC9nPjxnIGlkPSJlbGVtX1VDMTIiPjxlbGxpcHNlIGN4PSIxNzcuNDM4NCIgY3k9Ijg4Ljk4NzciIGZpbGw9IiNGMUYxRjEiIHJ4PSI3NS40Mzg0IiByeT0iMTcuNDg3NyIgc3R5bGU9InN0cm9rZTojMTgxODE4O3N0cm9rZS13aWR0aDowLjU7Ii8+PHRleHQgZmlsbD0iIzAwMDAwMCIgZm9udC1mYW1pbHk9InNhbnMtc2VyaWYiIGZvbnQtc2l6ZT0iMTQiIGxlbmd0aEFkanVzdD0ic3BhY2luZyIgdGV4dExlbmd0aD0iMTEyIiB4PSIxMjEuNDM4NCIgeT0iOTIuNzI5OSI+TWFuYWdlIFBsYXlsaXN0czwvdGV4dD48L2c+PGcgaWQ9ImVsZW1fVUMxMyI+PGVsbGlwc2UgY3g9IjE3Ny4zODc4IiBjeT0iMTU3LjE3NzYiIGZpbGw9IiNGMUYxRjEiIHJ4PSI2My44ODc4IiByeT0iMTUuMTc3NiIgc3R5bGU9InN0cm9rZTojMTgxODE4O3N0cm9rZS13aWR0aDowLjU7Ii8+PHRleHQgZmlsbD0iIzAwMDAwMCIgZm9udC1mYW1pbHk9InNhbnMtc2VyaWYiIGZvbnQtc2l6ZT0iMTQiIGxlbmd0aEFkanVzdD0ic3BhY2luZyIgdGV4dExlbmd0aD0iODQiIHg9IjEzNS4zODc4IiB5PSIxNjAuOTE5NyI+VXBsb2FkIE11c2ljPC90ZXh0PjwvZz48ZyBpZD0iZWxlbV9VQzE0Ij48ZWxsaXBzZSBjeD0iMTc3LjM4NzgiIGN5PSIyMjIuMTc3NiIgZmlsbD0iI0YxRjFGMSIgcng9IjYzLjg4NzgiIHJ5PSIxNS4xNzc2IiBzdHlsZT0ic3Ryb2tlOiMxODE4MTg7c3Ryb2tlLXdpZHRoOjAuNTsiLz48dGV4dCBmaWxsPSIjMDAwMDAwIiBmb250LWZhbWlseT0ic2Fucy1zZXJpZiIgZm9udC1zaXplPSIxNCIgbGVuZ3RoQWRqdXN0PSJzcGFjaW5nIiB0ZXh0TGVuZ3RoPSI4NCIgeD0iMTM1LjM4NzgiIHk9IjIyNS45MTk3Ij5EZWxldGUgTXVzaWM8L3RleHQ+PC9nPjxnIGlkPSJlbGVtX1VDMTUiPjxlbGxpcHNlIGN4PSIxNzcuNDU5NSIgY3k9IjI4OC44OTE5IiBmaWxsPSIjRjFGMUYxIiByeD0iNjkuOTU5NSIgcnk9IjE2LjM5MTkiIHN0eWxlPSJzdHJva2U6IzE4MTgxODtzdHJva2Utd2lkdGg6MC41OyIvPjx0ZXh0IGZpbGw9IiMwMDAwMDAiIGZvbnQtZmFtaWx5PSJzYW5zLXNlcmlmIiBmb250LXNpemU9IjE0IiBsZW5ndGhBZGp1c3Q9InNwYWNpbmciIHRleHRMZW5ndGg9Ijk5IiB4PSIxMjcuOTU5NSIgeT0iMjkyLjYzNDEiPlZpZXcgQW5hbHl0aWNzPC90ZXh0PjwvZz48IS0tbGluayBVIHRvIFVDMS0tPjxnIGlkPSJsaW5rX1VfVUMxIj48cGF0aCBkPSJNMjYuNDYsNjA4LjIxIEMzMC41Miw1NTMuMDcgNDUuNzIsNDUwLjI2IDEwMiwzODcgQzExMC45OCwzNzYuOSAxMTguMTEwNywzNzIuMDYxNiAxMzAuNTEwNywzNjcuMjIxNiAiIGZpbGw9Im5vbmUiIGlkPSJVLXRvLVVDMSIgc3R5bGU9InN0cm9rZTojMTgxODE4O3N0cm9rZS13aWR0aDoxLjA7Ii8+PHBvbHlnb24gZmlsbD0iIzE4MTgxOCIgcG9pbnRzPSIxMzYuMSwzNjUuMDQsMTI2LjI2MTYsMzY0LjU4NjIsMTMxLjQ0MjIsMzY2Ljg1OCwxMjkuMTcwNCwzNzIuMDM4NywxMzYuMSwzNjUuMDQiIHN0eWxlPSJzdHJva2U6IzE4MTgxODtzdHJva2Utd2lkdGg6MS4wOyIvPjwvZz48IS0tbGluayBVIHRvIFVDMi0tPjxnIGlkPSJsaW5rX1VfVUMyIj48cGF0aCBkPSJNMzEuMTYsNjA4LjE2IEMzOS45NSw1NjUuMyA1OS45Myw0OTUuNzUgMTAyLDQ1MiBDMTExLjUxLDQ0Mi4xMSAxMTguOTQ4MSw0MzcuMjMwNiAxMzEuNDI4MSw0MzIuMTgwNiAiIGZpbGw9Im5vbmUiIGlkPSJVLXRvLVVDMiIgc3R5bGU9InN0cm9rZTojMTgxODE4O3N0cm9rZS13aWR0aDoxLjA7Ii8+PHBvbHlnb24gZmlsbD0iIzE4MTgxOCIgcG9pbnRzPSIxMzYuOTksNDI5LjkzLDEyNy4xNDY3LDQyOS41OTgsMTMyLjM1NTEsNDMxLjgwNTUsMTMwLjE0NzYsNDM3LjAxMzgsMTM2Ljk5LDQyOS45MyIgc3R5bGU9InN0cm9rZTojMTgxODE4O3N0cm9rZS13aWR0aDoxLjA7Ii8+PC9nPjwhLS1saW5rIFUgdG8gVUMzLS0+PGcgaWQ9ImxpbmtfVV9VQzMiPjxwYXRoIGQ9Ik0zOC4wMyw2MTEuNTUgQzUwLjU2LDU4Mi40NiA3Mi4wMiw1NDEuNDMgMTAyLDUxNSBDMTEyLjY2LDUwNS42IDEyMC45MTQ5LDUwMC43OTY3IDEzMy43NzQ5LDQ5NS44MTY3ICIgZmlsbD0ibm9uZSIgaWQ9IlUtdG8tVUMzIiBzdHlsZT0ic3Ryb2tlOiMxODE4MTg7c3Ryb2tlLXdpZHRoOjEuMDsiLz48cG9seWdvbiBmaWxsPSIjMTgxODE4IiBwb2ludHM9IjEzOS4zNyw0OTMuNjUsMTI5LjUzMjgsNDkzLjE3LDEzNC43MDc0LDQ5NS40NTU2LDEzMi40MjE4LDUwMC42MzAxLDEzOS4zNyw0OTMuNjUiIHN0eWxlPSJzdHJva2U6IzE4MTgxODtzdHJva2Utd2lkdGg6MS4wOyIvPjwvZz48IS0tbGluayBVIHRvIFVDNC0tPjxnIGlkPSJsaW5rX1VfVUM0Ij48cGF0aCBkPSJNMzguMTEsNjMyLjAzIEM1Mi42NCw2MTcuMTYgNzcuMjksNTkzLjY1IDEwMiw1NzggQzExNC44NCw1NjkuODcgMTI0LjUzODYsNTY1LjEyNjkgMTM3Ljg5ODYsNTU5Ljc4NjkgIiBmaWxsPSJub25lIiBpZD0iVS10by1VQzQiIHN0eWxlPSJzdHJva2U6IzE4MTgxODtzdHJva2Utd2lkdGg6MS4wOyIvPjxwb2x5Z29uIGZpbGw9IiMxODE4MTgiIHBvaW50cz0iMTQzLjQ3LDU1Ny41NiwxMzMuNjI4Miw1NTcuMTg2MSwxMzguODI3MSw1NTkuNDE1OCwxMzYuNTk3NSw1NjQuNjE0NiwxNDMuNDcsNTU3LjU2IiBzdHlsZT0ic3Ryb2tlOiMxODE4MTg7c3Ryb2tlLXdpZHRoOjEuMDsiLz48L2c+PCEtLWxpbmsgVSB0byBVQzUtLT48ZyBpZD0ibGlua19VX1VDNSI+PHBhdGggZD0iTTM4LjE4LDY0My4wNCBDNTcuMjYsNjM4Ljc2IDg3Ljc4NTksNjMxLjkxNTEgMTE4LjQ1NTksNjI1LjAyNTEgIiBmaWxsPSJub25lIiBpZD0iVS10by1VQzUiIHN0eWxlPSJzdHJva2U6IzE4MTgxODtzdHJva2Utd2lkdGg6MS4wOyIvPjxwb2x5Z29uIGZpbGw9IiMxODE4MTgiIHBvaW50cz0iMTI0LjMxLDYyMy43MSwxMTQuNjUyMSw2MjEuNzc5OSwxMTkuNDMxNiw2MjQuODA1OSwxMTYuNDA1Niw2MjkuNTg1NCwxMjQuMzEsNjIzLjcxIiBzdHlsZT0ic3Ryb2tlOiMxODE4MTg7c3Ryb2tlLXdpZHRoOjEuMDsiLz48L2c+PCEtLWxpbmsgVSB0byBVQzYtLT48ZyBpZD0ibGlua19VX1VDNiI+PHBhdGggZD0iTTM4LjE4LDY0OC45NiBDNTguMDUsNjUzLjQyIDkwLjgzNTcsNjYwLjc3NTYgMTIyLjIzNTcsNjY3LjgyNTYgIiBmaWxsPSJub25lIiBpZD0iVS10by1VQzYiIHN0eWxlPSJzdHJva2U6IzE4MTgxODtzdHJva2Utd2lkdGg6MS4wOyIvPjxwb2x5Z29uIGZpbGw9IiMxODE4MTgiIHBvaW50cz0iMTI4LjA5LDY2OS4xNCwxMjAuMTg0OSw2NjMuMjY1NSwxMjMuMjExNSw2NjguMDQ0NywxMTguNDMyMyw2NzEuMDcxMiwxMjguMDksNjY5LjE0IiBzdHlsZT0ic3Ryb2tlOiMxODE4MTg7c3Ryb2tlLXdpZHRoOjEuMDsiLz48L2c+PCEtLWxpbmsgVSB0byBVQzctLT48ZyBpZD0ibGlua19VX1VDNyI+PHBhdGggZD0iTTM4LjExLDY1OS45NyBDNTIuNjQsNjc0Ljg0IDc3LjI5LDY5OC4zNSAxMDIsNzE0IEMxMTQuMTMsNzIxLjY4IDEyMi44NjIxLDcyNi4wNTk1IDEzNS42NzIxLDczMS4yNjk1ICIgZmlsbD0ibm9uZSIgaWQ9IlUtdG8tVUM3IiBzdHlsZT0ic3Ryb2tlOiMxODE4MTg7c3Ryb2tlLXdpZHRoOjEuMDsiLz48cG9seWdvbiBmaWxsPSIjMTgxODE4IiBwb2ludHM9IjE0MS4yMyw3MzMuNTMsMTM0LjQwMDEsNzI2LjQzNCwxMzYuNTk4NCw3MzEuNjQ2MywxMzEuMzg2Miw3MzMuODQ0NiwxNDEuMjMsNzMzLjUzIiBzdHlsZT0ic3Ryb2tlOiMxODE4MTg7c3Ryb2tlLXdpZHRoOjEuMDsiLz48L2c+PCEtLWxpbmsgVSB0byBVQzgtLT48ZyBpZD0ibGlua19VX1VDOCI+PHBhdGggZD0iTTM4LjA3LDY4MS42NSBDNTAuNTEsNzExLjIxIDcxLjgyLDc1Mi41MiAxMDIsNzc5IEMxMTIuMzIsNzg4LjA1IDEyMC4wNTQxLDc5Mi41ODE0IDEzMi41ODQxLDc5Ny4zNjE0ICIgZmlsbD0ibm9uZSIgaWQ9IlUtdG8tVUM4IiBzdHlsZT0ic3Ryb2tlOiMxODE4MTg7c3Ryb2tlLXdpZHRoOjEuMDsiLz48cG9seWdvbiBmaWxsPSIjMTgxODE4IiBwb2ludHM9IjEzOC4xOSw3OTkuNSwxMzEuMjA2OCw3OTIuNTU0OCwxMzMuNTE4NCw3OTcuNzE3OSwxMjguMzU1NCw4MDAuMDI5NCwxMzguMTksNzk5LjUiIHN0eWxlPSJzdHJva2U6IzE4MTgxODtzdHJva2Utd2lkdGg6MS4wOyIvPjwvZz48IS0tbGluayBVIHRvIFVDOS0tPjxnIGlkPSJsaW5rX1VfVUM5Ij48cGF0aCBkPSJNMzAuNzIsNjgzLjYyIEMzOS4xNiw3MjcuMDEgNTguODgsNzk4LjAxIDEwMiw4NDIgQzExMy44Nyw4NTQuMTEgMTI1LjQzLDg1OS45MTA0IDE0MC4zNyw4NjQuNTUwNCAiIGZpbGw9Im5vbmUiIGlkPSJVLXRvLVVDOSIgc3R5bGU9InN0cm9rZTojMTgxODE4O3N0cm9rZS13aWR0aDoxLjA7Ii8+PHBvbHlnb24gZmlsbD0iIzE4MTgxOCIgcG9pbnRzPSIxNDYuMSw4NjYuMzMsMTM4LjY5MTQsODU5Ljg0MDYsMTQxLjMyNSw4NjQuODQ3LDEzNi4zMTg2LDg2Ny40ODA2LDE0Ni4xLDg2Ni4zMyIgc3R5bGU9InN0cm9rZTojMTgxODE4O3N0cm9rZS13aWR0aDoxLjA7Ii8+PC9nPjwhLS1saW5rIFUgdG8gVUMxMC0tPjxnIGlkPSJsaW5rX1VfVUMxMCI+PHBhdGggZD0iTTI2LjQxLDY4My43MyBDMzAuNDEsNzM4Ljc2IDQ1LjUzLDg0MS4zMSAxMDIsOTA0IEMxMTIuNiw5MTUuNzYgMTIyLjY0MDYsOTIxLjMzNTQgMTM2Ljk0MDYsOTI1Ljk1NTQgIiBmaWxsPSJub25lIiBpZD0iVS10by1VQzEwIiBzdHlsZT0ic3Ryb2tlOiMxODE4MTg7c3Ryb2tlLXdpZHRoOjEuMDsiLz48cG9seWdvbiBmaWxsPSIjMTgxODE4IiBwb2ludHM9IjE0Mi42NSw5MjcuOCwxMzUuMzE1Niw5MjEuMjI2OCwxMzcuODkyMSw5MjYuMjYyOCwxMzIuODU2MSw5MjguODM5NCwxNDIuNjUsOTI3LjgiIHN0eWxlPSJzdHJva2U6IzE4MTgxODtzdHJva2Utd2lkdGg6MS4wOyIvPjwvZz48IS0tbGluayBBIHRvIFVDMTEtLT48ZyBpZD0ibGlua19BX1VDMTEiPjxwYXRoIGQ9Ik00Mi4xNywxMjYuMTQgQzU1LjkzLDEwMy43MSA3Ny4wMyw3My45IDEwMiw1NCBDMTEyLjk1LDQ1LjI3IDEyMS4wMjQ0LDQwLjY1MDUgMTMzLjYxNDQsMzUuNDUwNSAiIGZpbGw9Im5vbmUiIGlkPSJBLXRvLVVDMTEiIHN0eWxlPSJzdHJva2U6IzE4MTgxODtzdHJva2Utd2lkdGg6MS4wOyIvPjxwb2x5Z29uIGZpbGw9IiMxODE4MTgiIHBvaW50cz0iMTM5LjE2LDMzLjE2LDEyOS4zMTQ2LDMyLjg5ODcsMTM0LjUzODcsMzUuMDY4NywxMzIuMzY4Niw0MC4yOTI4LDEzOS4xNiwzMy4xNiIgc3R5bGU9InN0cm9rZTojMTgxODE4O3N0cm9rZS13aWR0aDoxLjA7Ii8+PC9nPjwhLS1saW5rIEEgdG8gVUMxMi0tPjxnIGlkPSJsaW5rX0FfVUMxMiI+PHBhdGggZD0iTTQyLjA4LDE0OS4zMyBDNjYuMjMsMTM4LjQ5IDEwNS4zODYxLDEyMC45MTcgMTM2LjU3NjEsMTA2LjkxNyAiIGZpbGw9Im5vbmUiIGlkPSJBLXRvLVVDMTIiIHN0eWxlPSJzdHJva2U6IzE4MTgxODtzdHJva2Utd2lkdGg6MS4wOyIvPjxwb2x5Z29uIGZpbGw9IiMxODE4MTgiIHBvaW50cz0iMTQyLjA1LDEwNC40NiwxMzIuMjAxMiwxMDQuNDk2MywxMzcuNDg4NSwxMDYuNTA3NSwxMzUuNDc3MiwxMTEuNzk0NywxNDIuMDUsMTA0LjQ2IiBzdHlsZT0ic3Ryb2tlOiMxODE4MTg7c3Ryb2tlLXdpZHRoOjEuMDsiLz48L2c+PCEtLWxpbmsgQSB0byBVQzEzLS0+PGcgaWQ9ImxpbmtfQV9VQzEzIj48cGF0aCBkPSJNNDIuMDgsMTU3IEM1OS40MiwxNTcgODEuMzEsMTU3IDEwNy4yMSwxNTcgIiBmaWxsPSJub25lIiBpZD0iQS10by1VQzEzIiBzdHlsZT0ic3Ryb2tlOiMxODE4MTg7c3Ryb2tlLXdpZHRoOjEuMDsiLz48cG9seWdvbiBmaWxsPSIjMTgxODE4IiBwb2ludHM9IjExMy4yMSwxNTcsMTA0LjIxLDE1MywxMDguMjEsMTU3LDEwNC4yMSwxNjEsMTEzLjIxLDE1NyIgc3R5bGU9InN0cm9rZTojMTgxODE4O3N0cm9rZS13aWR0aDoxLjA7Ii8+PC9nPjwhLS1saW5rIEEgdG8gVUMxNC0tPjxnIGlkPSJsaW5rX0FfVUMxNCI+PHBhdGggZD0iTTQyLjA4LDE2NC4zMyBDNjcuMjMsMTc1LjEyIDEwOS4xMDYyLDE5My4wODM5IDE0MC4zNTYyLDIwNi40OTM5ICIgZmlsbD0ibm9uZSIgaWQ9IkEtdG8tVUMxNCIgc3R5bGU9InN0cm9rZTojMTgxODE4O3N0cm9rZS13aWR0aDoxLjA7Ii8+PHBvbHlnb24gZmlsbD0iIzE4MTgxOCIgcG9pbnRzPSIxNDUuODcsMjA4Ljg2LDEzOS4xNzY3LDIwMS42MzUsMTQxLjI3NTIsMjA2Ljg4ODMsMTM2LjAyMiwyMDguOTg2NywxNDUuODcsMjA4Ljg2IiBzdHlsZT0ic3Ryb2tlOiMxODE4MTg7c3Ryb2tlLXdpZHRoOjEuMDsiLz48L2c+PCEtLWxpbmsgQSB0byBVQzE1LS0+PGcgaWQ9ImxpbmtfQV9VQzE1Ij48cGF0aCBkPSJNNDIuMDksMTg0Ljk4IEM1Ni4xLDIwNi4xIDc3LjU1LDIzNC42NSAxMDIsMjU0IEMxMTIuODcsMjYyLjYgMTIwLjcxOTksMjY3LjI2NyAxMzMuMDc5OSwyNzIuNzc3ICIgZmlsbD0ibm9uZSIgaWQ9IkEtdG8tVUMxNSIgc3R5bGU9InN0cm9rZTojMTgxODE4O3N0cm9rZS13aWR0aDoxLjA7Ii8+PHBvbHlnb24gZmlsbD0iIzE4MTgxOCIgcG9pbnRzPSIxMzguNTYsMjc1LjIyLDEzMS45Njg1LDI2Ny45MDIxLDEzMy45OTMyLDI3My4xODQyLDEyOC43MTExLDI3NS4yMDg5LDEzOC41NiwyNzUuMjIiIHN0eWxlPSJzdHJva2U6IzE4MTgxODtzdHJva2Utd2lkdGg6MS4wOyIvPjwvZz48IS0tU1JDPVtOUDFCSm1DWDU4TnRfMGdNVGo1NHZqNzduZUpPZktzQ0VrdmwwQVVhMjFEV09saGx4R21sYVRON0VVSFVwYjdZb3NEbGk5TlpuTUNraE0xVTZlcUdDNnlpN2ZvbTYxbVV1ZnRvUndhTldJQTR5RnF5bDJndXVWRmk5RGtpM3Z6OXI2NXNlWkFRT0JueENyTHc2X01oZEYyNzFOUURVWFRxb2xkb21NTUZhaXY3aW1fY2ZuR19fd3JUZDJWMGlha3JRSC1TRF8yWXNkRzgtZWlQZk94SUNLamNKZUY5T3lueTFXc1pNQ2pub0lFTGJSd0t4SFgtYzlHMU5sU0x5di00NGh2a1o3SF9LYjhEd2tPYm9vRHhYMFF5dEp3amRJVGdDaE1Qa2FuemZic2NWUVAzZmNFUFZDekM0dkUySlM2c081VW1fbUswXS0tPjwvZz48L3N2Zz4=;" parent="1" vertex="1">
            <mxGeometry x="-1026.42" y="1210" width="258" height="954" as="geometry" />
          </mxCell>
        </UserObject>
        <UserObject label="" plantUmlData="{&#xa;  &quot;data&quot;: &quot;@startuml\nleft to right direction\n\nclass MusicPlayer {\n    +Song currentSong\n    +boolean isPlaying\n    +boolean isPaused\n    +void play(Song song)\n    +void pause()\n    +void stop()\n    +void next()\n    +void previous()\n    +void addToPlaylist(Song song, Playlist playlist)\n    +void removeFromPlaylist(Song song, Playlist playlist)\n    +void shuffle()\n    +void repeat()\n}\n\nclass Song {\n    +String title\n    +String artist\n    +String album\n    +int duration // in seconds\n    +String genre\n    +void play()\n    +void pause()\n    +void stop()\n}\n\nclass Playlist {\n    +String name\n    +List&lt;Song&gt; songs\n    +void addSong(Song song)\n    +void removeSong(Song song)\n    +List&lt;Song&gt; getSongs()\n}\n\nclass User {\n    +String username\n    +String password\n    +List&lt;Playlist&gt; playlists\n    +void createPlaylist(String name)\n    +void deletePlaylist(Playlist playlist)\n    +void login(String username, String password)\n    +void logout()\n}\n\nclass Library {\n    +List&lt;Song&gt; songs\n    +void addSong(Song song)\n    +void removeSong(Song song)\n    +List&lt;Song&gt; searchByArtist(String artist)\n    +List&lt;Song&gt; searchByAlbum(String album)\n    +List&lt;Song&gt; searchByGenre(String genre)\n}\n\nclass Album {\n    +String title\n    +String artist\n    +Date releaseDate\n    +List&lt;Song&gt; songs\n    +void addSong(Song song)\n    +void removeSong(Song song)\n    +List&lt;Song&gt; getSongs()\n}\n\nclass Genre {\n    +String name\n    +String description\n    +List&lt;Song&gt; getSongs(Library library)\n}\n\nclass PlaylistManager {\n    +List&lt;Playlist&gt; playlists\n    +Playlist createPlaylist(String name)\n    +void deletePlaylist(Playlist playlist)\n    +List&lt;Playlist&gt; getAllPlaylists()\n}\n\nclass Settings {\n    +int volume\n    +String theme\n    +void setVolume(int volume)\n    +int getVolume()\n    +void setTheme(String theme)\n    +String getTheme()\n}\n\nclass Equalizer {\n    +List&lt;int&gt; bands\n    +void setBandLevel(int band, int level)\n    +int getBandLevel(int band)\n    +void reset()\n}\n\nMusicPlayer \&quot;1\&quot; -- \&quot;*\&quot; Playlist : manages &gt;\nUser   \&quot;1\&quot; -- \&quot;*\&quot; Playlist : owns &gt;\nLibrary \&quot;1\&quot; -- \&quot;*\&quot; Song : contains &gt;\nMusicPlayer \&quot;1\&quot; -- \&quot;*\&quot; Song : plays &gt;\nAlbum \&quot;1\&quot; -- \&quot;*\&quot; Song : includes &gt;\nGenre \&quot;1\&quot; -- \&quot;*\&quot; Song : categorizes &gt;\nPlaylistManager \&quot;1\&quot; -- \&quot;*\&quot; Playlist : manages &gt;\n\n@enduml&quot;,&#xa;  &quot;format&quot;: &quot;svg&quot;&#xa;}" id="c7S_zqKtltET6JresFuN-5">
          <mxCell style="shape=image;noLabel=1;verticalAlign=top;aspect=fixed;imageAspect=0;image=data:image/svg+xml,PD94bWwgdmVyc2lvbj0iMS4wIiBlbmNvZGluZz0idXMtYXNjaWkiIHN0YW5kYWxvbmU9Im5vIj8+PHN2ZyB4bWxucz0iaHR0cDovL3d3dy53My5vcmcvMjAwMC9zdmciIHhtbG5zOnhsaW5rPSJodHRwOi8vd3d3LnczLm9yZy8xOTk5L3hsaW5rIiBjb250ZW50U3R5bGVUeXBlPSJ0ZXh0L2NzcyIgaGVpZ2h0PSIxMzc5cHgiIHByZXNlcnZlQXNwZWN0UmF0aW89Im5vbmUiIHN0eWxlPSJ3aWR0aDo3NzZweDtoZWlnaHQ6MTM3OXB4O2JhY2tncm91bmQ6I0ZGRkZGRjsiIHZlcnNpb249IjEuMSIgdmlld0JveD0iMCAwIDc3NiAxMzc5IiB3aWR0aD0iNzc2cHgiIHpvb21BbmRQYW49Im1hZ25pZnkiPjxkZWZzLz48Zz48IS0tY2xhc3MgTXVzaWNQbGF5ZXItLT48ZyBpZD0iZWxlbV9NdXNpY1BsYXllciI+PHJlY3QgY29kZUxpbmU9IjMiIGZpbGw9IiNGMUYxRjEiIGhlaWdodD0iMjI3LjgxMjUiIGlkPSJNdXNpY1BsYXllciIgcng9IjIuNSIgcnk9IjIuNSIgc3R5bGU9InN0cm9rZTojMTgxODE4O3N0cm9rZS13aWR0aDowLjU7IiB3aWR0aD0iNDAxIiB4PSI3IiB5PSI4MTMiLz48ZWxsaXBzZSBjeD0iMTY0Ljc1IiBjeT0iODI5IiBmaWxsPSIjQUREMUIyIiByeD0iMTEiIHJ5PSIxMSIgc3R5bGU9InN0cm9rZTojMTgxODE4O3N0cm9rZS13aWR0aDoxLjA7Ii8+PHBhdGggZD0iTTE2Mi4zNzUsODMzLjI1IEwxNjIuMzc1LDgzNSBMMTY3LjMxMjUsODM1IEwxNjcuMzEyNSw4MzMuMjUgTDE2Mi4zNzUsODMzLjI1IFogTTE2My4wNjI1LDgzMy45Mzc1IFExNjMuMDYyNSw4MzMuOTM3NSAxNjMuMDYyNSw4MjQuNzUgTDE2MS4zMTI1LDgyNC43NSBRMTYxLjMxMjUsODI0Ljc1IDE2MS4zMTI1LDgzMy45Mzc1IEwxNjMuMDYyNSw4MzMuOTM3NSBaIE0xNjYuNjI1LDgzMy45Mzc1IEwxNjguMzc1LDgzMy45Mzc1IFExNjguMzc1LDgzMy45Mzc1IDE2OC4zNzUsODMxLjEyNSBMMTY2LjYyNSw4MzEuMTI1IFExNjYuNjI1LDgzMS4xMjUgMTY2LjYyNSw4MzMuOTM3NSBaIE0xNjYuNjI1LDgyNC43NSBRMTY2LjYyNSw4MjQuNzUgMTY2LjYyNSw4MjcuNTYyNSBMMTY4LjM3NSw4MjcuNTYyNSBRMTY4LjM3NSw4MjcuNTYyNSAxNjguMzc1LDgyNC43NSBMMTY2LjYyNSw4MjQuNzUgWiBNMTYyLjM3NSw4MjUuNDM3NSBMMTY3LjMxMjUsODI1LjQzNzUgTDE2Ny4zMTI1LDgyMy42ODc1IEwxNjIuMzc1LDgyMy42ODc1IEwxNjIuMzc1LDgyNS40Mzc1IFogIiBmaWxsPSIjMDAwMDAwIi8+PHRleHQgZmlsbD0iIzAwMDAwMCIgZm9udC1mYW1pbHk9InNhbnMtc2VyaWYiIGZvbnQtc2l6ZT0iMTQiIGxlbmd0aEFkanVzdD0ic3BhY2luZyIgdGV4dExlbmd0aD0iNzciIHg9IjE4NS4yNSIgeT0iODM0Ljc0MjIiPk11c2ljUGxheWVyPC90ZXh0PjxsaW5lIHN0eWxlPSJzdHJva2U6IzE4MTgxODtzdHJva2Utd2lkdGg6MC41OyIgeDE9IjgiIHgyPSI0MDciIHkxPSI4NDUiIHkyPSI4NDUiLz48ZWxsaXBzZSBjeD0iMTgiIGN5PSI4NTcuOTkyMiIgZmlsbD0ibm9uZSIgcng9IjMiIHJ5PSIzIiBzdHlsZT0ic3Ryb2tlOiMwMzgwNDg7c3Ryb2tlLXdpZHRoOjEuMDsiLz48dGV4dCBmaWxsPSIjMDAwMDAwIiBmb250LWZhbWlseT0ic2Fucy1zZXJpZiIgZm9udC1zaXplPSIxNCIgbGVuZ3RoQWRqdXN0PSJzcGFjaW5nIiB0ZXh0TGVuZ3RoPSIxMTIiIHg9IjI3IiB5PSI4NjIuMjM0NCI+U29uZyBjdXJyZW50U29uZzwvdGV4dD48ZWxsaXBzZSBjeD0iMTgiIGN5PSI4NzIuOTc2NiIgZmlsbD0ibm9uZSIgcng9IjMiIHJ5PSIzIiBzdHlsZT0ic3Ryb2tlOiMwMzgwNDg7c3Ryb2tlLXdpZHRoOjEuMDsiLz48dGV4dCBmaWxsPSIjMDAwMDAwIiBmb250LWZhbWlseT0ic2Fucy1zZXJpZiIgZm9udC1zaXplPSIxNCIgbGVuZ3RoQWRqdXN0PSJzcGFjaW5nIiB0ZXh0TGVuZ3RoPSIxMTkiIHg9IjI3IiB5PSI4NzcuMjE4OCI+Ym9vbGVhbiBpc1BsYXlpbmc8L3RleHQ+PGVsbGlwc2UgY3g9IjE4IiBjeT0iODg3Ljk2MDkiIGZpbGw9Im5vbmUiIHJ4PSIzIiByeT0iMyIgc3R5bGU9InN0cm9rZTojMDM4MDQ4O3N0cm9rZS13aWR0aDoxLjA7Ii8+PHRleHQgZmlsbD0iIzAwMDAwMCIgZm9udC1mYW1pbHk9InNhbnMtc2VyaWYiIGZvbnQtc2l6ZT0iMTQiIGxlbmd0aEFkanVzdD0ic3BhY2luZyIgdGV4dExlbmd0aD0iMTEyIiB4PSIyNyIgeT0iODkyLjIwMzEiPmJvb2xlYW4gaXNQYXVzZWQ8L3RleHQ+PGxpbmUgc3R5bGU9InN0cm9rZTojMTgxODE4O3N0cm9rZS13aWR0aDowLjU7IiB4MT0iOCIgeDI9IjQwNyIgeTE9Ijg5Ny45NTMxIiB5Mj0iODk3Ljk1MzEiLz48ZWxsaXBzZSBjeD0iMTgiIGN5PSI5MTAuOTQ1MyIgZmlsbD0iIzg0QkU4NCIgcng9IjMiIHJ5PSIzIiBzdHlsZT0ic3Ryb2tlOiMwMzgwNDg7c3Ryb2tlLXdpZHRoOjEuMDsiLz48dGV4dCBmaWxsPSIjMDAwMDAwIiBmb250LWZhbWlseT0ic2Fucy1zZXJpZiIgZm9udC1zaXplPSIxNCIgbGVuZ3RoQWRqdXN0PSJzcGFjaW5nIiB0ZXh0TGVuZ3RoPSIxNDIiIHg9IjI3IiB5PSI5MTUuMTg3NSI+dm9pZCBwbGF5KFNvbmcgc29uZyk8L3RleHQ+PGVsbGlwc2UgY3g9IjE4IiBjeT0iOTI1LjkyOTciIGZpbGw9IiM4NEJFODQiIHJ4PSIzIiByeT0iMyIgc3R5bGU9InN0cm9rZTojMDM4MDQ4O3N0cm9rZS13aWR0aDoxLjA7Ii8+PHRleHQgZmlsbD0iIzAwMDAwMCIgZm9udC1mYW1pbHk9InNhbnMtc2VyaWYiIGZvbnQtc2l6ZT0iMTQiIGxlbmd0aEFkanVzdD0ic3BhY2luZyIgdGV4dExlbmd0aD0iODYiIHg9IjI3IiB5PSI5MzAuMTcxOSI+dm9pZCBwYXVzZSgpPC90ZXh0PjxlbGxpcHNlIGN4PSIxOCIgY3k9Ijk0MC45MTQxIiBmaWxsPSIjODRCRTg0IiByeD0iMyIgcnk9IjMiIHN0eWxlPSJzdHJva2U6IzAzODA0ODtzdHJva2Utd2lkdGg6MS4wOyIvPjx0ZXh0IGZpbGw9IiMwMDAwMDAiIGZvbnQtZmFtaWx5PSJzYW5zLXNlcmlmIiBmb250LXNpemU9IjE0IiBsZW5ndGhBZGp1c3Q9InNwYWNpbmciIHRleHRMZW5ndGg9Ijc5IiB4PSIyNyIgeT0iOTQ1LjE1NjMiPnZvaWQgc3RvcCgpPC90ZXh0PjxlbGxpcHNlIGN4PSIxOCIgY3k9Ijk1NS44OTg0IiBmaWxsPSIjODRCRTg0IiByeD0iMyIgcnk9IjMiIHN0eWxlPSJzdHJva2U6IzAzODA0ODtzdHJva2Utd2lkdGg6MS4wOyIvPjx0ZXh0IGZpbGw9IiMwMDAwMDAiIGZvbnQtZmFtaWx5PSJzYW5zLXNlcmlmIiBmb250LXNpemU9IjE0IiBsZW5ndGhBZGp1c3Q9InNwYWNpbmciIHRleHRMZW5ndGg9Ijc5IiB4PSIyNyIgeT0iOTYwLjE0MDYiPnZvaWQgbmV4dCgpPC90ZXh0PjxlbGxpcHNlIGN4PSIxOCIgY3k9Ijk3MC44ODI4IiBmaWxsPSIjODRCRTg0IiByeD0iMyIgcnk9IjMiIHN0eWxlPSJzdHJva2U6IzAzODA0ODtzdHJva2Utd2lkdGg6MS4wOyIvPjx0ZXh0IGZpbGw9IiMwMDAwMDAiIGZvbnQtZmFtaWx5PSJzYW5zLXNlcmlmIiBmb250LXNpemU9IjE0IiBsZW5ndGhBZGp1c3Q9InNwYWNpbmciIHRleHRMZW5ndGg9IjEwNyIgeD0iMjciIHk9Ijk3NS4xMjUiPnZvaWQgcHJldmlvdXMoKTwvdGV4dD48ZWxsaXBzZSBjeD0iMTgiIGN5PSI5ODUuODY3MiIgZmlsbD0iIzg0QkU4NCIgcng9IjMiIHJ5PSIzIiBzdHlsZT0ic3Ryb2tlOiMwMzgwNDg7c3Ryb2tlLXdpZHRoOjEuMDsiLz48dGV4dCBmaWxsPSIjMDAwMDAwIiBmb250LWZhbWlseT0ic2Fucy1zZXJpZiIgZm9udC1zaXplPSIxNCIgbGVuZ3RoQWRqdXN0PSJzcGFjaW5nIiB0ZXh0TGVuZ3RoPSIzMzgiIHg9IjI3IiB5PSI5OTAuMTA5NCI+dm9pZCBhZGRUb1BsYXlsaXN0KFNvbmcgc29uZywgUGxheWxpc3QgcGxheWxpc3QpPC90ZXh0PjxlbGxpcHNlIGN4PSIxOCIgY3k9IjEwMDAuODUxNiIgZmlsbD0iIzg0QkU4NCIgcng9IjMiIHJ5PSIzIiBzdHlsZT0ic3Ryb2tlOiMwMzgwNDg7c3Ryb2tlLXdpZHRoOjEuMDsiLz48dGV4dCBmaWxsPSIjMDAwMDAwIiBmb250LWZhbWlseT0ic2Fucy1zZXJpZiIgZm9udC1zaXplPSIxNCIgbGVuZ3RoQWRqdXN0PSJzcGFjaW5nIiB0ZXh0TGVuZ3RoPSIzNzUiIHg9IjI3IiB5PSIxMDA1LjA5MzgiPnZvaWQgcmVtb3ZlRnJvbVBsYXlsaXN0KFNvbmcgc29uZywgUGxheWxpc3QgcGxheWxpc3QpPC90ZXh0PjxlbGxpcHNlIGN4PSIxOCIgY3k9IjEwMTUuODM1OSIgZmlsbD0iIzg0QkU4NCIgcng9IjMiIHJ5PSIzIiBzdHlsZT0ic3Ryb2tlOiMwMzgwNDg7c3Ryb2tlLXdpZHRoOjEuMDsiLz48dGV4dCBmaWxsPSIjMDAwMDAwIiBmb250LWZhbWlseT0ic2Fucy1zZXJpZiIgZm9udC1zaXplPSIxNCIgbGVuZ3RoQWRqdXN0PSJzcGFjaW5nIiB0ZXh0TGVuZ3RoPSIxMDAiIHg9IjI3IiB5PSIxMDIwLjA3ODEiPnZvaWQgc2h1ZmZsZSgpPC90ZXh0PjxlbGxpcHNlIGN4PSIxOCIgY3k9IjEwMzAuODIwMyIgZmlsbD0iIzg0QkU4NCIgcng9IjMiIHJ5PSIzIiBzdHlsZT0ic3Ryb2tlOiMwMzgwNDg7c3Ryb2tlLXdpZHRoOjEuMDsiLz48dGV4dCBmaWxsPSIjMDAwMDAwIiBmb250LWZhbWlseT0ic2Fucy1zZXJpZiIgZm9udC1zaXplPSIxNCIgbGVuZ3RoQWRqdXN0PSJzcGFjaW5nIiB0ZXh0TGVuZ3RoPSI5MyIgeD0iMjciIHk9IjEwMzUuMDYyNSI+dm9pZCByZXBlYXQoKTwvdGV4dD48L2c+PCEtLWNsYXNzIFNvbmctLT48ZyBpZD0iZWxlbV9Tb25nIj48cmVjdCBjb2RlTGluZT0iMTgiIGZpbGw9IiNGMUYxRjEiIGhlaWdodD0iMTY3Ljg3NSIgaWQ9IlNvbmciIHJ4PSIyLjUiIHJ5PSIyLjUiIHN0eWxlPSJzdHJva2U6IzE4MTgxODtzdHJva2Utd2lkdGg6MC41OyIgd2lkdGg9IjIwOCIgeD0iNTU5LjUiIHk9IjU2OCIvPjxlbGxpcHNlIGN4PSI2NDUuMjUiIGN5PSI1ODQiIGZpbGw9IiNBREQxQjIiIHJ4PSIxMSIgcnk9IjExIiBzdHlsZT0ic3Ryb2tlOiMxODE4MTg7c3Ryb2tlLXdpZHRoOjEuMDsiLz48cGF0aCBkPSJNNjQyLjg3NSw1ODguMjUgTDY0Mi44NzUsNTkwIEw2NDcuODEyNSw1OTAgTDY0Ny44MTI1LDU4OC4yNSBMNjQyLjg3NSw1ODguMjUgWiBNNjQzLjU2MjUsNTg4LjkzNzUgUTY0My41NjI1LDU4OC45Mzc1IDY0My41NjI1LDU3OS43NSBMNjQxLjgxMjUsNTc5Ljc1IFE2NDEuODEyNSw1NzkuNzUgNjQxLjgxMjUsNTg4LjkzNzUgTDY0My41NjI1LDU4OC45Mzc1IFogTTY0Ny4xMjUsNTg4LjkzNzUgTDY0OC44NzUsNTg4LjkzNzUgUTY0OC44NzUsNTg4LjkzNzUgNjQ4Ljg3NSw1ODYuMTI1IEw2NDcuMTI1LDU4Ni4xMjUgUTY0Ny4xMjUsNTg2LjEyNSA2NDcuMTI1LDU4OC45Mzc1IFogTTY0Ny4xMjUsNTc5Ljc1IFE2NDcuMTI1LDU3OS43NSA2NDcuMTI1LDU4Mi41NjI1IEw2NDguODc1LDU4Mi41NjI1IFE2NDguODc1LDU4Mi41NjI1IDY0OC44NzUsNTc5Ljc1IEw2NDcuMTI1LDU3OS43NSBaIE02NDIuODc1LDU4MC40Mzc1IEw2NDcuODEyNSw1ODAuNDM3NSBMNjQ3LjgxMjUsNTc4LjY4NzUgTDY0Mi44NzUsNTc4LjY4NzUgTDY0Mi44NzUsNTgwLjQzNzUgWiAiIGZpbGw9IiMwMDAwMDAiLz48dGV4dCBmaWxsPSIjMDAwMDAwIiBmb250LWZhbWlseT0ic2Fucy1zZXJpZiIgZm9udC1zaXplPSIxNCIgbGVuZ3RoQWRqdXN0PSJzcGFjaW5nIiB0ZXh0TGVuZ3RoPSIyOCIgeD0iNjY1Ljc1IiB5PSI1ODkuNzQyMiI+U29uZzwvdGV4dD48bGluZSBzdHlsZT0ic3Ryb2tlOiMxODE4MTg7c3Ryb2tlLXdpZHRoOjAuNTsiIHgxPSI1NjAuNSIgeDI9Ijc2Ni41IiB5MT0iNjAwIiB5Mj0iNjAwIi8+PGVsbGlwc2UgY3g9IjU3MC41IiBjeT0iNjEyLjk5MjIiIGZpbGw9Im5vbmUiIHJ4PSIzIiByeT0iMyIgc3R5bGU9InN0cm9rZTojMDM4MDQ4O3N0cm9rZS13aWR0aDoxLjA7Ii8+PHRleHQgZmlsbD0iIzAwMDAwMCIgZm9udC1mYW1pbHk9InNhbnMtc2VyaWYiIGZvbnQtc2l6ZT0iMTQiIGxlbmd0aEFkanVzdD0ic3BhY2luZyIgdGV4dExlbmd0aD0iODQiIHg9IjU3OS41IiB5PSI2MTcuMjM0NCI+U3RyaW5nIHRpdGxlPC90ZXh0PjxlbGxpcHNlIGN4PSI1NzAuNSIgY3k9IjYyNy45NzY2IiBmaWxsPSJub25lIiByeD0iMyIgcnk9IjMiIHN0eWxlPSJzdHJva2U6IzAzODA0ODtzdHJva2Utd2lkdGg6MS4wOyIvPjx0ZXh0IGZpbGw9IiMwMDAwMDAiIGZvbnQtZmFtaWx5PSJzYW5zLXNlcmlmIiBmb250LXNpemU9IjE0IiBsZW5ndGhBZGp1c3Q9InNwYWNpbmciIHRleHRMZW5ndGg9IjkxIiB4PSI1NzkuNSIgeT0iNjMyLjIxODgiPlN0cmluZyBhcnRpc3Q8L3RleHQ+PGVsbGlwc2UgY3g9IjU3MC41IiBjeT0iNjQyLjk2MDkiIGZpbGw9Im5vbmUiIHJ4PSIzIiByeT0iMyIgc3R5bGU9InN0cm9rZTojMDM4MDQ4O3N0cm9rZS13aWR0aDoxLjA7Ii8+PHRleHQgZmlsbD0iIzAwMDAwMCIgZm9udC1mYW1pbHk9InNhbnMtc2VyaWYiIGZvbnQtc2l6ZT0iMTQiIGxlbmd0aEFkanVzdD0ic3BhY2luZyIgdGV4dExlbmd0aD0iODUiIHg9IjU3OS41IiB5PSI2NDcuMjAzMSI+U3RyaW5nIGFsYnVtPC90ZXh0PjxlbGxpcHNlIGN4PSI1NzAuNSIgY3k9IjY1Ny45NDUzIiBmaWxsPSJub25lIiByeD0iMyIgcnk9IjMiIHN0eWxlPSJzdHJva2U6IzAzODA0ODtzdHJva2Utd2lkdGg6MS4wOyIvPjx0ZXh0IGZpbGw9IiMwMDAwMDAiIGZvbnQtZmFtaWx5PSJzYW5zLXNlcmlmIiBmb250LXNpemU9IjE0IiBsZW5ndGhBZGp1c3Q9InNwYWNpbmciIHRleHRMZW5ndGg9IjE4MiIgeD0iNTc5LjUiIHk9IjY2Mi4xODc1Ij5pbnQgZHVyYXRpb24gLy8gaW4gc2Vjb25kczwvdGV4dD48ZWxsaXBzZSBjeD0iNTcwLjUiIGN5PSI2NzIuOTI5NyIgZmlsbD0ibm9uZSIgcng9IjMiIHJ5PSIzIiBzdHlsZT0ic3Ryb2tlOiMwMzgwNDg7c3Ryb2tlLXdpZHRoOjEuMDsiLz48dGV4dCBmaWxsPSIjMDAwMDAwIiBmb250LWZhbWlseT0ic2Fucy1zZXJpZiIgZm9udC1zaXplPSIxNCIgbGVuZ3RoQWRqdXN0PSJzcGFjaW5nIiB0ZXh0TGVuZ3RoPSI4NCIgeD0iNTc5LjUiIHk9IjY3Ny4xNzE5Ij5TdHJpbmcgZ2VucmU8L3RleHQ+PGxpbmUgc3R5bGU9InN0cm9rZTojMTgxODE4O3N0cm9rZS13aWR0aDowLjU7IiB4MT0iNTYwLjUiIHgyPSI3NjYuNSIgeTE9IjY4Mi45MjE5IiB5Mj0iNjgyLjkyMTkiLz48ZWxsaXBzZSBjeD0iNTcwLjUiIGN5PSI2OTUuOTE0MSIgZmlsbD0iIzg0QkU4NCIgcng9IjMiIHJ5PSIzIiBzdHlsZT0ic3Ryb2tlOiMwMzgwNDg7c3Ryb2tlLXdpZHRoOjEuMDsiLz48dGV4dCBmaWxsPSIjMDAwMDAwIiBmb250LWZhbWlseT0ic2Fucy1zZXJpZiIgZm9udC1zaXplPSIxNCIgbGVuZ3RoQWRqdXN0PSJzcGFjaW5nIiB0ZXh0TGVuZ3RoPSI3OSIgeD0iNTc5LjUiIHk9IjcwMC4xNTYzIj52b2lkIHBsYXkoKTwvdGV4dD48ZWxsaXBzZSBjeD0iNTcwLjUiIGN5PSI3MTAuODk4NCIgZmlsbD0iIzg0QkU4NCIgcng9IjMiIHJ5PSIzIiBzdHlsZT0ic3Ryb2tlOiMwMzgwNDg7c3Ryb2tlLXdpZHRoOjEuMDsiLz48dGV4dCBmaWxsPSIjMDAwMDAwIiBmb250LWZhbWlseT0ic2Fucy1zZXJpZiIgZm9udC1zaXplPSIxNCIgbGVuZ3RoQWRqdXN0PSJzcGFjaW5nIiB0ZXh0TGVuZ3RoPSI4NiIgeD0iNTc5LjUiIHk9IjcxNS4xNDA2Ij52b2lkIHBhdXNlKCk8L3RleHQ+PGVsbGlwc2UgY3g9IjU3MC41IiBjeT0iNzI1Ljg4MjgiIGZpbGw9IiM4NEJFODQiIHJ4PSIzIiByeT0iMyIgc3R5bGU9InN0cm9rZTojMDM4MDQ4O3N0cm9rZS13aWR0aDoxLjA7Ii8+PHRleHQgZmlsbD0iIzAwMDAwMCIgZm9udC1mYW1pbHk9InNhbnMtc2VyaWYiIGZvbnQtc2l6ZT0iMTQiIGxlbmd0aEFkanVzdD0ic3BhY2luZyIgdGV4dExlbmd0aD0iNzkiIHg9IjU3OS41IiB5PSI3MzAuMTI1Ij52b2lkIHN0b3AoKTwvdGV4dD48L2c+PCEtLWNsYXNzIFBsYXlsaXN0LS0+PGcgaWQ9ImVsZW1fUGxheWxpc3QiPjxyZWN0IGNvZGVMaW5lPSIyOSIgZmlsbD0iI0YxRjFGMSIgaGVpZ2h0PSIxMjIuOTIxOSIgaWQ9IlBsYXlsaXN0IiByeD0iMi41IiByeT0iMi41IiBzdHlsZT0ic3Ryb2tlOiMxODE4MTg7c3Ryb2tlLXdpZHRoOjAuNTsiIHdpZHRoPSIyMTEiIHg9IjU1OCIgeT0iMTA5MS41Ii8+PGVsbGlwc2UgY3g9IjYzMS4yNSIgY3k9IjExMDcuNSIgZmlsbD0iI0FERDFCMiIgcng9IjExIiByeT0iMTEiIHN0eWxlPSJzdHJva2U6IzE4MTgxODtzdHJva2Utd2lkdGg6MS4wOyIvPjxwYXRoIGQ9Ik02MjguODc1LDExMTEuNzUgTDYyOC44NzUsMTExMy41IEw2MzMuODEyNSwxMTEzLjUgTDYzMy44MTI1LDExMTEuNzUgTDYyOC44NzUsMTExMS43NSBaIE02MjkuNTYyNSwxMTEyLjQzNzUgUTYyOS41NjI1LDExMTIuNDM3NSA2MjkuNTYyNSwxMTAzLjI1IEw2MjcuODEyNSwxMTAzLjI1IFE2MjcuODEyNSwxMTAzLjI1IDYyNy44MTI1LDExMTIuNDM3NSBMNjI5LjU2MjUsMTExMi40Mzc1IFogTTYzMy4xMjUsMTExMi40Mzc1IEw2MzQuODc1LDExMTIuNDM3NSBRNjM0Ljg3NSwxMTEyLjQzNzUgNjM0Ljg3NSwxMTA5LjYyNSBMNjMzLjEyNSwxMTA5LjYyNSBRNjMzLjEyNSwxMTA5LjYyNSA2MzMuMTI1LDExMTIuNDM3NSBaIE02MzMuMTI1LDExMDMuMjUgUTYzMy4xMjUsMTEwMy4yNSA2MzMuMTI1LDExMDYuMDYyNSBMNjM0Ljg3NSwxMTA2LjA2MjUgUTYzNC44NzUsMTEwNi4wNjI1IDYzNC44NzUsMTEwMy4yNSBMNjMzLjEyNSwxMTAzLjI1IFogTTYyOC44NzUsMTEwMy45Mzc1IEw2MzMuODEyNSwxMTAzLjkzNzUgTDYzMy44MTI1LDExMDIuMTg3NSBMNjI4Ljg3NSwxMTAyLjE4NzUgTDYyOC44NzUsMTEwMy45Mzc1IFogIiBmaWxsPSIjMDAwMDAwIi8+PHRleHQgZmlsbD0iIzAwMDAwMCIgZm9udC1mYW1pbHk9InNhbnMtc2VyaWYiIGZvbnQtc2l6ZT0iMTQiIGxlbmd0aEFkanVzdD0ic3BhY2luZyIgdGV4dExlbmd0aD0iNTYiIHg9IjY1MS43NSIgeT0iMTExMy4yNDIyIj5QbGF5bGlzdDwvdGV4dD48bGluZSBzdHlsZT0ic3Ryb2tlOiMxODE4MTg7c3Ryb2tlLXdpZHRoOjAuNTsiIHgxPSI1NTkiIHgyPSI3NjgiIHkxPSIxMTIzLjUiIHkyPSIxMTIzLjUiLz48ZWxsaXBzZSBjeD0iNTY5IiBjeT0iMTEzNi40OTIyIiBmaWxsPSJub25lIiByeD0iMyIgcnk9IjMiIHN0eWxlPSJzdHJva2U6IzAzODA0ODtzdHJva2Utd2lkdGg6MS4wOyIvPjx0ZXh0IGZpbGw9IiMwMDAwMDAiIGZvbnQtZmFtaWx5PSJzYW5zLXNlcmlmIiBmb250LXNpemU9IjE0IiBsZW5ndGhBZGp1c3Q9InNwYWNpbmciIHRleHRMZW5ndGg9Ijc4IiB4PSI1NzgiIHk9IjExNDAuNzM0NCI+U3RyaW5nIG5hbWU8L3RleHQ+PGVsbGlwc2UgY3g9IjU2OSIgY3k9IjExNTEuNDc2NiIgZmlsbD0ibm9uZSIgcng9IjMiIHJ5PSIzIiBzdHlsZT0ic3Ryb2tlOiMwMzgwNDg7c3Ryb2tlLXdpZHRoOjEuMDsiLz48dGV4dCBmaWxsPSIjMDAwMDAwIiBmb250LWZhbWlseT0ic2Fucy1zZXJpZiIgZm9udC1zaXplPSIxNCIgbGVuZ3RoQWRqdXN0PSJzcGFjaW5nIiB0ZXh0TGVuZ3RoPSIxMTIiIHg9IjU3OCIgeT0iMTE1NS43MTg4Ij5MaXN0Jmx0O1NvbmcmZ3Q7IHNvbmdzPC90ZXh0PjxsaW5lIHN0eWxlPSJzdHJva2U6IzE4MTgxODtzdHJva2Utd2lkdGg6MC41OyIgeDE9IjU1OSIgeDI9Ijc2OCIgeTE9IjExNjEuNDY4OCIgeTI9IjExNjEuNDY4OCIvPjxlbGxpcHNlIGN4PSI1NjkiIGN5PSIxMTc0LjQ2MDkiIGZpbGw9IiM4NEJFODQiIHJ4PSIzIiByeT0iMyIgc3R5bGU9InN0cm9rZTojMDM4MDQ4O3N0cm9rZS13aWR0aDoxLjA7Ii8+PHRleHQgZmlsbD0iIzAwMDAwMCIgZm9udC1mYW1pbHk9InNhbnMtc2VyaWYiIGZvbnQtc2l6ZT0iMTQiIGxlbmd0aEFkanVzdD0ic3BhY2luZyIgdGV4dExlbmd0aD0iMTYzIiB4PSI1NzgiIHk9IjExNzguNzAzMSI+dm9pZCBhZGRTb25nKFNvbmcgc29uZyk8L3RleHQ+PGVsbGlwc2UgY3g9IjU2OSIgY3k9IjExODkuNDQ1MyIgZmlsbD0iIzg0QkU4NCIgcng9IjMiIHJ5PSIzIiBzdHlsZT0ic3Ryb2tlOiMwMzgwNDg7c3Ryb2tlLXdpZHRoOjEuMDsiLz48dGV4dCBmaWxsPSIjMDAwMDAwIiBmb250LWZhbWlseT0ic2Fucy1zZXJpZiIgZm9udC1zaXplPSIxNCIgbGVuZ3RoQWRqdXN0PSJzcGFjaW5nIiB0ZXh0TGVuZ3RoPSIxODUiIHg9IjU3OCIgeT0iMTE5My42ODc1Ij52b2lkIHJlbW92ZVNvbmcoU29uZyBzb25nKTwvdGV4dD48ZWxsaXBzZSBjeD0iNTY5IiBjeT0iMTIwNC40Mjk3IiBmaWxsPSIjODRCRTg0IiByeD0iMyIgcnk9IjMiIHN0eWxlPSJzdHJva2U6IzAzODA0ODtzdHJva2Utd2lkdGg6MS4wOyIvPjx0ZXh0IGZpbGw9IiMwMDAwMDAiIGZvbnQtZmFtaWx5PSJzYW5zLXNlcmlmIiBmb250LXNpemU9IjE0IiBsZW5ndGhBZGp1c3Q9InNwYWNpbmciIHRleHRMZW5ndGg9IjE0OSIgeD0iNTc4IiB5PSIxMjA4LjY3MTkiPkxpc3QmbHQ7U29uZyZndDsgZ2V0U29uZ3MoKTwvdGV4dD48L2c+PCEtLWNsYXNzIFVzZXItLT48ZyBpZD0iZWxlbV9Vc2VyIj48cmVjdCBjb2RlTGluZT0iMzciIGZpbGw9IiNGMUYxRjEiIGhlaWdodD0iMTUyLjg5MDYiIGlkPSJVc2VyIiByeD0iMi41IiByeT0iMi41IiBzdHlsZT0ic3Ryb2tlOiMxODE4MTg7c3Ryb2tlLXdpZHRoOjAuNTsiIHdpZHRoPSIzMzgiIHg9IjM4LjUiIHk9IjEwNzYuNSIvPjxlbGxpcHNlIGN4PSIxODkuMjUiIGN5PSIxMDkyLjUiIGZpbGw9IiNBREQxQjIiIHJ4PSIxMSIgcnk9IjExIiBzdHlsZT0ic3Ryb2tlOiMxODE4MTg7c3Ryb2tlLXdpZHRoOjEuMDsiLz48cGF0aCBkPSJNMTg2Ljg3NSwxMDk2Ljc1IEwxODYuODc1LDEwOTguNSBMMTkxLjgxMjUsMTA5OC41IEwxOTEuODEyNSwxMDk2Ljc1IEwxODYuODc1LDEwOTYuNzUgWiBNMTg3LjU2MjUsMTA5Ny40Mzc1IFExODcuNTYyNSwxMDk3LjQzNzUgMTg3LjU2MjUsMTA4OC4yNSBMMTg1LjgxMjUsMTA4OC4yNSBRMTg1LjgxMjUsMTA4OC4yNSAxODUuODEyNSwxMDk3LjQzNzUgTDE4Ny41NjI1LDEwOTcuNDM3NSBaIE0xOTEuMTI1LDEwOTcuNDM3NSBMMTkyLjg3NSwxMDk3LjQzNzUgUTE5Mi44NzUsMTA5Ny40Mzc1IDE5Mi44NzUsMTA5NC42MjUgTDE5MS4xMjUsMTA5NC42MjUgUTE5MS4xMjUsMTA5NC42MjUgMTkxLjEyNSwxMDk3LjQzNzUgWiBNMTkxLjEyNSwxMDg4LjI1IFExOTEuMTI1LDEwODguMjUgMTkxLjEyNSwxMDkxLjA2MjUgTDE5Mi44NzUsMTA5MS4wNjI1IFExOTIuODc1LDEwOTEuMDYyNSAxOTIuODc1LDEwODguMjUgTDE5MS4xMjUsMTA4OC4yNSBaIE0xODYuODc1LDEwODguOTM3NSBMMTkxLjgxMjUsMTA4OC45Mzc1IEwxOTEuODEyNSwxMDg3LjE4NzUgTDE4Ni44NzUsMTA4Ny4xODc1IEwxODYuODc1LDEwODguOTM3NSBaICIgZmlsbD0iIzAwMDAwMCIvPjx0ZXh0IGZpbGw9IiMwMDAwMDAiIGZvbnQtZmFtaWx5PSJzYW5zLXNlcmlmIiBmb250LXNpemU9IjE0IiBsZW5ndGhBZGp1c3Q9InNwYWNpbmciIHRleHRMZW5ndGg9IjI4IiB4PSIyMDkuNzUiIHk9IjEwOTguMjQyMiI+VXNlcjwvdGV4dD48bGluZSBzdHlsZT0ic3Ryb2tlOiMxODE4MTg7c3Ryb2tlLXdpZHRoOjAuNTsiIHgxPSIzOS41IiB4Mj0iMzc1LjUiIHkxPSIxMTA4LjUiIHkyPSIxMTA4LjUiLz48ZWxsaXBzZSBjeD0iNDkuNSIgY3k9IjExMjEuNDkyMiIgZmlsbD0ibm9uZSIgcng9IjMiIHJ5PSIzIiBzdHlsZT0ic3Ryb2tlOiMwMzgwNDg7c3Ryb2tlLXdpZHRoOjEuMDsiLz48dGV4dCBmaWxsPSIjMDAwMDAwIiBmb250LWZhbWlseT0ic2Fucy1zZXJpZiIgZm9udC1zaXplPSIxNCIgbGVuZ3RoQWRqdXN0PSJzcGFjaW5nIiB0ZXh0TGVuZ3RoPSIxMDYiIHg9IjU4LjUiIHk9IjExMjUuNzM0NCI+U3RyaW5nIHVzZXJuYW1lPC90ZXh0PjxlbGxpcHNlIGN4PSI0OS41IiBjeT0iMTEzNi40NzY2IiBmaWxsPSJub25lIiByeD0iMyIgcnk9IjMiIHN0eWxlPSJzdHJva2U6IzAzODA0ODtzdHJva2Utd2lkdGg6MS4wOyIvPjx0ZXh0IGZpbGw9IiMwMDAwMDAiIGZvbnQtZmFtaWx5PSJzYW5zLXNlcmlmIiBmb250LXNpemU9IjE0IiBsZW5ndGhBZGp1c3Q9InNwYWNpbmciIHRleHRMZW5ndGg9IjEwNiIgeD0iNTguNSIgeT0iMTE0MC43MTg4Ij5TdHJpbmcgcGFzc3dvcmQ8L3RleHQ+PGVsbGlwc2UgY3g9IjQ5LjUiIGN5PSIxMTUxLjQ2MDkiIGZpbGw9Im5vbmUiIHJ4PSIzIiByeT0iMyIgc3R5bGU9InN0cm9rZTojMDM4MDQ4O3N0cm9rZS13aWR0aDoxLjA7Ii8+PHRleHQgZmlsbD0iIzAwMDAwMCIgZm9udC1mYW1pbHk9InNhbnMtc2VyaWYiIGZvbnQtc2l6ZT0iMTQiIGxlbmd0aEFkanVzdD0ic3BhY2luZyIgdGV4dExlbmd0aD0iMTY4IiB4PSI1OC41IiB5PSIxMTU1LjcwMzEiPkxpc3QmbHQ7UGxheWxpc3QmZ3Q7IHBsYXlsaXN0czwvdGV4dD48bGluZSBzdHlsZT0ic3Ryb2tlOiMxODE4MTg7c3Ryb2tlLXdpZHRoOjAuNTsiIHgxPSIzOS41IiB4Mj0iMzc1LjUiIHkxPSIxMTYxLjQ1MzEiIHkyPSIxMTYxLjQ1MzEiLz48ZWxsaXBzZSBjeD0iNDkuNSIgY3k9IjExNzQuNDQ1MyIgZmlsbD0iIzg0QkU4NCIgcng9IjMiIHJ5PSIzIiBzdHlsZT0ic3Ryb2tlOiMwMzgwNDg7c3Ryb2tlLXdpZHRoOjEuMDsiLz48dGV4dCBmaWxsPSIjMDAwMDAwIiBmb250LWZhbWlseT0ic2Fucy1zZXJpZiIgZm9udC1zaXplPSIxNCIgbGVuZ3RoQWRqdXN0PSJzcGFjaW5nIiB0ZXh0TGVuZ3RoPSIyMjciIHg9IjU4LjUiIHk9IjExNzguNjg3NSI+dm9pZCBjcmVhdGVQbGF5bGlzdChTdHJpbmcgbmFtZSk8L3RleHQ+PGVsbGlwc2UgY3g9IjQ5LjUiIGN5PSIxMTg5LjQyOTciIGZpbGw9IiM4NEJFODQiIHJ4PSIzIiByeT0iMyIgc3R5bGU9InN0cm9rZTojMDM4MDQ4O3N0cm9rZS13aWR0aDoxLjA7Ii8+PHRleHQgZmlsbD0iIzAwMDAwMCIgZm9udC1mYW1pbHk9InNhbnMtc2VyaWYiIGZvbnQtc2l6ZT0iMTQiIGxlbmd0aEFkanVzdD0ic3BhY2luZyIgdGV4dExlbmd0aD0iMjY4IiB4PSI1OC41IiB5PSIxMTkzLjY3MTkiPnZvaWQgZGVsZXRlUGxheWxpc3QoUGxheWxpc3QgcGxheWxpc3QpPC90ZXh0PjxlbGxpcHNlIGN4PSI0OS41IiBjeT0iMTIwNC40MTQxIiBmaWxsPSIjODRCRTg0IiByeD0iMyIgcnk9IjMiIHN0eWxlPSJzdHJva2U6IzAzODA0ODtzdHJva2Utd2lkdGg6MS4wOyIvPjx0ZXh0IGZpbGw9IiMwMDAwMDAiIGZvbnQtZmFtaWx5PSJzYW5zLXNlcmlmIiBmb250LXNpemU9IjE0IiBsZW5ndGhBZGp1c3Q9InNwYWNpbmciIHRleHRMZW5ndGg9IjMxMiIgeD0iNTguNSIgeT0iMTIwOC42NTYzIj52b2lkIGxvZ2luKFN0cmluZyB1c2VybmFtZSwgU3RyaW5nIHBhc3N3b3JkKTwvdGV4dD48ZWxsaXBzZSBjeD0iNDkuNSIgY3k9IjEyMTkuMzk4NCIgZmlsbD0iIzg0QkU4NCIgcng9IjMiIHJ5PSIzIiBzdHlsZT0ic3Ryb2tlOiMwMzgwNDg7c3Ryb2tlLXdpZHRoOjEuMDsiLz48dGV4dCBmaWxsPSIjMDAwMDAwIiBmb250LWZhbWlseT0ic2Fucy1zZXJpZiIgZm9udC1zaXplPSIxNCIgbGVuZ3RoQWRqdXN0PSJzcGFjaW5nIiB0ZXh0TGVuZ3RoPSI5MyIgeD0iNTguNSIgeT0iMTIyMy42NDA2Ij52b2lkIGxvZ291dCgpPC90ZXh0PjwvZz48IS0tY2xhc3MgTGlicmFyeS0tPjxnIGlkPSJlbGVtX0xpYnJhcnkiPjxyZWN0IGNvZGVMaW5lPSI0NyIgZmlsbD0iI0YxRjFGMSIgaGVpZ2h0PSIxMzcuOTA2MyIgaWQ9IkxpYnJhcnkiIHJ4PSIyLjUiIHJ5PSIyLjUiIHN0eWxlPSJzdHJva2U6IzE4MTgxODtzdHJva2Utd2lkdGg6MC41OyIgd2lkdGg9IjMwOCIgeD0iNTMuNSIgeT0iMzIzIi8+PGVsbGlwc2UgY3g9IjE3OC43NSIgY3k9IjMzOSIgZmlsbD0iI0FERDFCMiIgcng9IjExIiByeT0iMTEiIHN0eWxlPSJzdHJva2U6IzE4MTgxODtzdHJva2Utd2lkdGg6MS4wOyIvPjxwYXRoIGQ9Ik0xNzYuMzc1LDM0My4yNSBMMTc2LjM3NSwzNDUgTDE4MS4zMTI1LDM0NSBMMTgxLjMxMjUsMzQzLjI1IEwxNzYuMzc1LDM0My4yNSBaIE0xNzcuMDYyNSwzNDMuOTM3NSBRMTc3LjA2MjUsMzQzLjkzNzUgMTc3LjA2MjUsMzM0Ljc1IEwxNzUuMzEyNSwzMzQuNzUgUTE3NS4zMTI1LDMzNC43NSAxNzUuMzEyNSwzNDMuOTM3NSBMMTc3LjA2MjUsMzQzLjkzNzUgWiBNMTgwLjYyNSwzNDMuOTM3NSBMMTgyLjM3NSwzNDMuOTM3NSBRMTgyLjM3NSwzNDMuOTM3NSAxODIuMzc1LDM0MS4xMjUgTDE4MC42MjUsMzQxLjEyNSBRMTgwLjYyNSwzNDEuMTI1IDE4MC42MjUsMzQzLjkzNzUgWiBNMTgwLjYyNSwzMzQuNzUgUTE4MC42MjUsMzM0Ljc1IDE4MC42MjUsMzM3LjU2MjUgTDE4Mi4zNzUsMzM3LjU2MjUgUTE4Mi4zNzUsMzM3LjU2MjUgMTgyLjM3NSwzMzQuNzUgTDE4MC42MjUsMzM0Ljc1IFogTTE3Ni4zNzUsMzM1LjQzNzUgTDE4MS4zMTI1LDMzNS40Mzc1IEwxODEuMzEyNSwzMzMuNjg3NSBMMTc2LjM3NSwzMzMuNjg3NSBMMTc2LjM3NSwzMzUuNDM3NSBaICIgZmlsbD0iIzAwMDAwMCIvPjx0ZXh0IGZpbGw9IiMwMDAwMDAiIGZvbnQtZmFtaWx5PSJzYW5zLXNlcmlmIiBmb250LXNpemU9IjE0IiBsZW5ndGhBZGp1c3Q9InNwYWNpbmciIHRleHRMZW5ndGg9IjQ5IiB4PSIxOTkuMjUiIHk9IjM0NC43NDIyIj5MaWJyYXJ5PC90ZXh0PjxsaW5lIHN0eWxlPSJzdHJva2U6IzE4MTgxODtzdHJva2Utd2lkdGg6MC41OyIgeDE9IjU0LjUiIHgyPSIzNjAuNSIgeTE9IjM1NSIgeTI9IjM1NSIvPjxlbGxpcHNlIGN4PSI2NC41IiBjeT0iMzY3Ljk5MjIiIGZpbGw9Im5vbmUiIHJ4PSIzIiByeT0iMyIgc3R5bGU9InN0cm9rZTojMDM4MDQ4O3N0cm9rZS13aWR0aDoxLjA7Ii8+PHRleHQgZmlsbD0iIzAwMDAwMCIgZm9udC1mYW1pbHk9InNhbnMtc2VyaWYiIGZvbnQtc2l6ZT0iMTQiIGxlbmd0aEFkanVzdD0ic3BhY2luZyIgdGV4dExlbmd0aD0iMTEyIiB4PSI3My41IiB5PSIzNzIuMjM0NCI+TGlzdCZsdDtTb25nJmd0OyBzb25nczwvdGV4dD48bGluZSBzdHlsZT0ic3Ryb2tlOiMxODE4MTg7c3Ryb2tlLXdpZHRoOjAuNTsiIHgxPSI1NC41IiB4Mj0iMzYwLjUiIHkxPSIzNzcuOTg0NCIgeTI9IjM3Ny45ODQ0Ii8+PGVsbGlwc2UgY3g9IjY0LjUiIGN5PSIzOTAuOTc2NiIgZmlsbD0iIzg0QkU4NCIgcng9IjMiIHJ5PSIzIiBzdHlsZT0ic3Ryb2tlOiMwMzgwNDg7c3Ryb2tlLXdpZHRoOjEuMDsiLz48dGV4dCBmaWxsPSIjMDAwMDAwIiBmb250LWZhbWlseT0ic2Fucy1zZXJpZiIgZm9udC1zaXplPSIxNCIgbGVuZ3RoQWRqdXN0PSJzcGFjaW5nIiB0ZXh0TGVuZ3RoPSIxNjMiIHg9IjczLjUiIHk9IjM5NS4yMTg4Ij52b2lkIGFkZFNvbmcoU29uZyBzb25nKTwvdGV4dD48ZWxsaXBzZSBjeD0iNjQuNSIgY3k9IjQwNS45NjA5IiBmaWxsPSIjODRCRTg0IiByeD0iMyIgcnk9IjMiIHN0eWxlPSJzdHJva2U6IzAzODA0ODtzdHJva2Utd2lkdGg6MS4wOyIvPjx0ZXh0IGZpbGw9IiMwMDAwMDAiIGZvbnQtZmFtaWx5PSJzYW5zLXNlcmlmIiBmb250LXNpemU9IjE0IiBsZW5ndGhBZGp1c3Q9InNwYWNpbmciIHRleHRMZW5ndGg9IjE4NSIgeD0iNzMuNSIgeT0iNDEwLjIwMzEiPnZvaWQgcmVtb3ZlU29uZyhTb25nIHNvbmcpPC90ZXh0PjxlbGxpcHNlIGN4PSI2NC41IiBjeT0iNDIwLjk0NTMiIGZpbGw9IiM4NEJFODQiIHJ4PSIzIiByeT0iMyIgc3R5bGU9InN0cm9rZTojMDM4MDQ4O3N0cm9rZS13aWR0aDoxLjA7Ii8+PHRleHQgZmlsbD0iIzAwMDAwMCIgZm9udC1mYW1pbHk9InNhbnMtc2VyaWYiIGZvbnQtc2l6ZT0iMTQiIGxlbmd0aEFkanVzdD0ic3BhY2luZyIgdGV4dExlbmd0aD0iMjgyIiB4PSI3My41IiB5PSI0MjUuMTg3NSI+TGlzdCZsdDtTb25nJmd0OyBzZWFyY2hCeUFydGlzdChTdHJpbmcgYXJ0aXN0KTwvdGV4dD48ZWxsaXBzZSBjeD0iNjQuNSIgY3k9IjQzNS45Mjk3IiBmaWxsPSIjODRCRTg0IiByeD0iMyIgcnk9IjMiIHN0eWxlPSJzdHJva2U6IzAzODA0ODtzdHJva2Utd2lkdGg6MS4wOyIvPjx0ZXh0IGZpbGw9IiMwMDAwMDAiIGZvbnQtZmFtaWx5PSJzYW5zLXNlcmlmIiBmb250LXNpemU9IjE0IiBsZW5ndGhBZGp1c3Q9InNwYWNpbmciIHRleHRMZW5ndGg9IjI3MCIgeD0iNzMuNSIgeT0iNDQwLjE3MTkiPkxpc3QmbHQ7U29uZyZndDsgc2VhcmNoQnlBbGJ1bShTdHJpbmcgYWxidW0pPC90ZXh0PjxlbGxpcHNlIGN4PSI2NC41IiBjeT0iNDUwLjkxNDEiIGZpbGw9IiM4NEJFODQiIHJ4PSIzIiByeT0iMyIgc3R5bGU9InN0cm9rZTojMDM4MDQ4O3N0cm9rZS13aWR0aDoxLjA7Ii8+PHRleHQgZmlsbD0iIzAwMDAwMCIgZm9udC1mYW1pbHk9InNhbnMtc2VyaWYiIGZvbnQtc2l6ZT0iMTQiIGxlbmd0aEFkanVzdD0ic3BhY2luZyIgdGV4dExlbmd0aD0iMjY4IiB4PSI3My41IiB5PSI0NTUuMTU2MyI+TGlzdCZsdDtTb25nJmd0OyBzZWFyY2hCeUdlbnJlKFN0cmluZyBnZW5yZSk8L3RleHQ+PC9nPjwhLS1jbGFzcyBBbGJ1bS0tPjxnIGlkPSJlbGVtX0FsYnVtIj48cmVjdCBjb2RlTGluZT0iNTYiIGZpbGw9IiNGMUYxRjEiIGhlaWdodD0iMTUyLjg5MDYiIGlkPSJBbGJ1bSIgcng9IjIuNSIgcnk9IjIuNSIgc3R5bGU9InN0cm9rZTojMTgxODE4O3N0cm9rZS13aWR0aDowLjU7IiB3aWR0aD0iMjExIiB4PSIxMDIiIHk9IjQ5Ni41Ii8+PGVsbGlwc2UgY3g9IjE4NS4yNSIgY3k9IjUxMi41IiBmaWxsPSIjQUREMUIyIiByeD0iMTEiIHJ5PSIxMSIgc3R5bGU9InN0cm9rZTojMTgxODE4O3N0cm9rZS13aWR0aDoxLjA7Ii8+PHBhdGggZD0iTTE4Mi44NzUsNTE2Ljc1IEwxODIuODc1LDUxOC41IEwxODcuODEyNSw1MTguNSBMMTg3LjgxMjUsNTE2Ljc1IEwxODIuODc1LDUxNi43NSBaIE0xODMuNTYyNSw1MTcuNDM3NSBRMTgzLjU2MjUsNTE3LjQzNzUgMTgzLjU2MjUsNTA4LjI1IEwxODEuODEyNSw1MDguMjUgUTE4MS44MTI1LDUwOC4yNSAxODEuODEyNSw1MTcuNDM3NSBMMTgzLjU2MjUsNTE3LjQzNzUgWiBNMTg3LjEyNSw1MTcuNDM3NSBMMTg4Ljg3NSw1MTcuNDM3NSBRMTg4Ljg3NSw1MTcuNDM3NSAxODguODc1LDUxNC42MjUgTDE4Ny4xMjUsNTE0LjYyNSBRMTg3LjEyNSw1MTQuNjI1IDE4Ny4xMjUsNTE3LjQzNzUgWiBNMTg3LjEyNSw1MDguMjUgUTE4Ny4xMjUsNTA4LjI1IDE4Ny4xMjUsNTExLjA2MjUgTDE4OC44NzUsNTExLjA2MjUgUTE4OC44NzUsNTExLjA2MjUgMTg4Ljg3NSw1MDguMjUgTDE4Ny4xMjUsNTA4LjI1IFogTTE4Mi44NzUsNTA4LjkzNzUgTDE4Ny44MTI1LDUwOC45Mzc1IEwxODcuODEyNSw1MDcuMTg3NSBMMTgyLjg3NSw1MDcuMTg3NSBMMTgyLjg3NSw1MDguOTM3NSBaICIgZmlsbD0iIzAwMDAwMCIvPjx0ZXh0IGZpbGw9IiMwMDAwMDAiIGZvbnQtZmFtaWx5PSJzYW5zLXNlcmlmIiBmb250LXNpemU9IjE0IiBsZW5ndGhBZGp1c3Q9InNwYWNpbmciIHRleHRMZW5ndGg9IjM2IiB4PSIyMDUuNzUiIHk9IjUxOC4yNDIyIj5BbGJ1bTwvdGV4dD48bGluZSBzdHlsZT0ic3Ryb2tlOiMxODE4MTg7c3Ryb2tlLXdpZHRoOjAuNTsiIHgxPSIxMDMiIHgyPSIzMTIiIHkxPSI1MjguNSIgeTI9IjUyOC41Ii8+PGVsbGlwc2UgY3g9IjExMyIgY3k9IjU0MS40OTIyIiBmaWxsPSJub25lIiByeD0iMyIgcnk9IjMiIHN0eWxlPSJzdHJva2U6IzAzODA0ODtzdHJva2Utd2lkdGg6MS4wOyIvPjx0ZXh0IGZpbGw9IiMwMDAwMDAiIGZvbnQtZmFtaWx5PSJzYW5zLXNlcmlmIiBmb250LXNpemU9IjE0IiBsZW5ndGhBZGp1c3Q9InNwYWNpbmciIHRleHRMZW5ndGg9Ijg0IiB4PSIxMjIiIHk9IjU0NS43MzQ0Ij5TdHJpbmcgdGl0bGU8L3RleHQ+PGVsbGlwc2UgY3g9IjExMyIgY3k9IjU1Ni40NzY2IiBmaWxsPSJub25lIiByeD0iMyIgcnk9IjMiIHN0eWxlPSJzdHJva2U6IzAzODA0ODtzdHJva2Utd2lkdGg6MS4wOyIvPjx0ZXh0IGZpbGw9IiMwMDAwMDAiIGZvbnQtZmFtaWx5PSJzYW5zLXNlcmlmIiBmb250LXNpemU9IjE0IiBsZW5ndGhBZGp1c3Q9InNwYWNpbmciIHRleHRMZW5ndGg9IjkxIiB4PSIxMjIiIHk9IjU2MC43MTg4Ij5TdHJpbmcgYXJ0aXN0PC90ZXh0PjxlbGxpcHNlIGN4PSIxMTMiIGN5PSI1NzEuNDYwOSIgZmlsbD0ibm9uZSIgcng9IjMiIHJ5PSIzIiBzdHlsZT0ic3Ryb2tlOiMwMzgwNDg7c3Ryb2tlLXdpZHRoOjEuMDsiLz48dGV4dCBmaWxsPSIjMDAwMDAwIiBmb250LWZhbWlseT0ic2Fucy1zZXJpZiIgZm9udC1zaXplPSIxNCIgbGVuZ3RoQWRqdXN0PSJzcGFjaW5nIiB0ZXh0TGVuZ3RoPSIxMTIiIHg9IjEyMiIgeT0iNTc1LjcwMzEiPkRhdGUgcmVsZWFzZURhdGU8L3RleHQ+PGVsbGlwc2UgY3g9IjExMyIgY3k9IjU4Ni40NDUzIiBmaWxsPSJub25lIiByeD0iMyIgcnk9IjMiIHN0eWxlPSJzdHJva2U6IzAzODA0ODtzdHJva2Utd2lkdGg6MS4wOyIvPjx0ZXh0IGZpbGw9IiMwMDAwMDAiIGZvbnQtZmFtaWx5PSJzYW5zLXNlcmlmIiBmb250LXNpemU9IjE0IiBsZW5ndGhBZGp1c3Q9InNwYWNpbmciIHRleHRMZW5ndGg9IjExMiIgeD0iMTIyIiB5PSI1OTAuNjg3NSI+TGlzdCZsdDtTb25nJmd0OyBzb25nczwvdGV4dD48bGluZSBzdHlsZT0ic3Ryb2tlOiMxODE4MTg7c3Ryb2tlLXdpZHRoOjAuNTsiIHgxPSIxMDMiIHgyPSIzMTIiIHkxPSI1OTYuNDM3NSIgeTI9IjU5Ni40Mzc1Ii8+PGVsbGlwc2UgY3g9IjExMyIgY3k9IjYwOS40Mjk3IiBmaWxsPSIjODRCRTg0IiByeD0iMyIgcnk9IjMiIHN0eWxlPSJzdHJva2U6IzAzODA0ODtzdHJva2Utd2lkdGg6MS4wOyIvPjx0ZXh0IGZpbGw9IiMwMDAwMDAiIGZvbnQtZmFtaWx5PSJzYW5zLXNlcmlmIiBmb250LXNpemU9IjE0IiBsZW5ndGhBZGp1c3Q9InNwYWNpbmciIHRleHRMZW5ndGg9IjE2MyIgeD0iMTIyIiB5PSI2MTMuNjcxOSI+dm9pZCBhZGRTb25nKFNvbmcgc29uZyk8L3RleHQ+PGVsbGlwc2UgY3g9IjExMyIgY3k9IjYyNC40MTQxIiBmaWxsPSIjODRCRTg0IiByeD0iMyIgcnk9IjMiIHN0eWxlPSJzdHJva2U6IzAzODA0ODtzdHJva2Utd2lkdGg6MS4wOyIvPjx0ZXh0IGZpbGw9IiMwMDAwMDAiIGZvbnQtZmFtaWx5PSJzYW5zLXNlcmlmIiBmb250LXNpemU9IjE0IiBsZW5ndGhBZGp1c3Q9InNwYWNpbmciIHRleHRMZW5ndGg9IjE4NSIgeD0iMTIyIiB5PSI2MjguNjU2MyI+dm9pZCByZW1vdmVTb25nKFNvbmcgc29uZyk8L3RleHQ+PGVsbGlwc2UgY3g9IjExMyIgY3k9IjYzOS4zOTg0IiBmaWxsPSIjODRCRTg0IiByeD0iMyIgcnk9IjMiIHN0eWxlPSJzdHJva2U6IzAzODA0ODtzdHJva2Utd2lkdGg6MS4wOyIvPjx0ZXh0IGZpbGw9IiMwMDAwMDAiIGZvbnQtZmFtaWx5PSJzYW5zLXNlcmlmIiBmb250LXNpemU9IjE0IiBsZW5ndGhBZGp1c3Q9InNwYWNpbmciIHRleHRMZW5ndGg9IjE0OSIgeD0iMTIyIiB5PSI2NDMuNjQwNiI+TGlzdCZsdDtTb25nJmd0OyBnZXRTb25ncygpPC90ZXh0PjwvZz48IS0tY2xhc3MgR2VucmUtLT48ZyBpZD0iZWxlbV9HZW5yZSI+PHJlY3QgY29kZUxpbmU9IjY2IiBmaWxsPSIjRjFGMUYxIiBoZWlnaHQ9IjkyLjk1MzEiIGlkPSJHZW5yZSIgcng9IjIuNSIgcnk9IjIuNSIgc3R5bGU9InN0cm9rZTojMTgxODE4O3N0cm9rZS13aWR0aDowLjU7IiB3aWR0aD0iMjgwIiB4PSI2Ny41IiB5PSI2ODQuNSIvPjxlbGxpcHNlIGN4PSIxODUuNzUiIGN5PSI3MDAuNSIgZmlsbD0iI0FERDFCMiIgcng9IjExIiByeT0iMTEiIHN0eWxlPSJzdHJva2U6IzE4MTgxODtzdHJva2Utd2lkdGg6MS4wOyIvPjxwYXRoIGQ9Ik0xODMuMzc1LDcwNC43NSBMMTgzLjM3NSw3MDYuNSBMMTg4LjMxMjUsNzA2LjUgTDE4OC4zMTI1LDcwNC43NSBMMTgzLjM3NSw3MDQuNzUgWiBNMTg0LjA2MjUsNzA1LjQzNzUgUTE4NC4wNjI1LDcwNS40Mzc1IDE4NC4wNjI1LDY5Ni4yNSBMMTgyLjMxMjUsNjk2LjI1IFExODIuMzEyNSw2OTYuMjUgMTgyLjMxMjUsNzA1LjQzNzUgTDE4NC4wNjI1LDcwNS40Mzc1IFogTTE4Ny42MjUsNzA1LjQzNzUgTDE4OS4zNzUsNzA1LjQzNzUgUTE4OS4zNzUsNzA1LjQzNzUgMTg5LjM3NSw3MDIuNjI1IEwxODcuNjI1LDcwMi42MjUgUTE4Ny42MjUsNzAyLjYyNSAxODcuNjI1LDcwNS40Mzc1IFogTTE4Ny42MjUsNjk2LjI1IFExODcuNjI1LDY5Ni4yNSAxODcuNjI1LDY5OS4wNjI1IEwxODkuMzc1LDY5OS4wNjI1IFExODkuMzc1LDY5OS4wNjI1IDE4OS4zNzUsNjk2LjI1IEwxODcuNjI1LDY5Ni4yNSBaIE0xODMuMzc1LDY5Ni45Mzc1IEwxODguMzEyNSw2OTYuOTM3NSBMMTg4LjMxMjUsNjk1LjE4NzUgTDE4My4zNzUsNjk1LjE4NzUgTDE4My4zNzUsNjk2LjkzNzUgWiAiIGZpbGw9IiMwMDAwMDAiLz48dGV4dCBmaWxsPSIjMDAwMDAwIiBmb250LWZhbWlseT0ic2Fucy1zZXJpZiIgZm9udC1zaXplPSIxNCIgbGVuZ3RoQWRqdXN0PSJzcGFjaW5nIiB0ZXh0TGVuZ3RoPSIzNSIgeD0iMjA2LjI1IiB5PSI3MDYuMjQyMiI+R2VucmU8L3RleHQ+PGxpbmUgc3R5bGU9InN0cm9rZTojMTgxODE4O3N0cm9rZS13aWR0aDowLjU7IiB4MT0iNjguNSIgeDI9IjM0Ni41IiB5MT0iNzE2LjUiIHkyPSI3MTYuNSIvPjxlbGxpcHNlIGN4PSI3OC41IiBjeT0iNzI5LjQ5MjIiIGZpbGw9Im5vbmUiIHJ4PSIzIiByeT0iMyIgc3R5bGU9InN0cm9rZTojMDM4MDQ4O3N0cm9rZS13aWR0aDoxLjA7Ii8+PHRleHQgZmlsbD0iIzAwMDAwMCIgZm9udC1mYW1pbHk9InNhbnMtc2VyaWYiIGZvbnQtc2l6ZT0iMTQiIGxlbmd0aEFkanVzdD0ic3BhY2luZyIgdGV4dExlbmd0aD0iNzgiIHg9Ijg3LjUiIHk9IjczMy43MzQ0Ij5TdHJpbmcgbmFtZTwvdGV4dD48ZWxsaXBzZSBjeD0iNzguNSIgY3k9Ijc0NC40NzY2IiBmaWxsPSJub25lIiByeD0iMyIgcnk9IjMiIHN0eWxlPSJzdHJva2U6IzAzODA0ODtzdHJva2Utd2lkdGg6MS4wOyIvPjx0ZXh0IGZpbGw9IiMwMDAwMDAiIGZvbnQtZmFtaWx5PSJzYW5zLXNlcmlmIiBmb250LXNpemU9IjE0IiBsZW5ndGhBZGp1c3Q9InNwYWNpbmciIHRleHRMZW5ndGg9IjEyNiIgeD0iODcuNSIgeT0iNzQ4LjcxODgiPlN0cmluZyBkZXNjcmlwdGlvbjwvdGV4dD48bGluZSBzdHlsZT0ic3Ryb2tlOiMxODE4MTg7c3Ryb2tlLXdpZHRoOjAuNTsiIHgxPSI2OC41IiB4Mj0iMzQ2LjUiIHkxPSI3NTQuNDY4OCIgeTI9Ijc1NC40Njg4Ii8+PGVsbGlwc2UgY3g9Ijc4LjUiIGN5PSI3NjcuNDYwOSIgZmlsbD0iIzg0QkU4NCIgcng9IjMiIHJ5PSIzIiBzdHlsZT0ic3Ryb2tlOiMwMzgwNDg7c3Ryb2tlLXdpZHRoOjEuMDsiLz48dGV4dCBmaWxsPSIjMDAwMDAwIiBmb250LWZhbWlseT0ic2Fucy1zZXJpZiIgZm9udC1zaXplPSIxNCIgbGVuZ3RoQWRqdXN0PSJzcGFjaW5nIiB0ZXh0TGVuZ3RoPSIyNTQiIHg9Ijg3LjUiIHk9Ijc3MS43MDMxIj5MaXN0Jmx0O1NvbmcmZ3Q7IGdldFNvbmdzKExpYnJhcnkgbGlicmFyeSk8L3RleHQ+PC9nPjwhLS1jbGFzcyBQbGF5bGlzdE1hbmFnZXItLT48ZyBpZD0iZWxlbV9QbGF5bGlzdE1hbmFnZXIiPjxyZWN0IGNvZGVMaW5lPSI3MiIgZmlsbD0iI0YxRjFGMSIgaGVpZ2h0PSIxMDcuOTM3NSIgaWQ9IlBsYXlsaXN0TWFuYWdlciIgcng9IjIuNSIgcnk9IjIuNSIgc3R5bGU9InN0cm9rZTojMTgxODE4O3N0cm9rZS13aWR0aDowLjU7IiB3aWR0aD0iMjk0IiB4PSI2MC41IiB5PSIxMjY1Ii8+PGVsbGlwc2UgY3g9IjE1MC43NSIgY3k9IjEyODEiIGZpbGw9IiNBREQxQjIiIHJ4PSIxMSIgcnk9IjExIiBzdHlsZT0ic3Ryb2tlOiMxODE4MTg7c3Ryb2tlLXdpZHRoOjEuMDsiLz48cGF0aCBkPSJNMTQ4LjM3NSwxMjg1LjI1IEwxNDguMzc1LDEyODcgTDE1My4zMTI1LDEyODcgTDE1My4zMTI1LDEyODUuMjUgTDE0OC4zNzUsMTI4NS4yNSBaIE0xNDkuMDYyNSwxMjg1LjkzNzUgUTE0OS4wNjI1LDEyODUuOTM3NSAxNDkuMDYyNSwxMjc2Ljc1IEwxNDcuMzEyNSwxMjc2Ljc1IFExNDcuMzEyNSwxMjc2Ljc1IDE0Ny4zMTI1LDEyODUuOTM3NSBMMTQ5LjA2MjUsMTI4NS45Mzc1IFogTTE1Mi42MjUsMTI4NS45Mzc1IEwxNTQuMzc1LDEyODUuOTM3NSBRMTU0LjM3NSwxMjg1LjkzNzUgMTU0LjM3NSwxMjgzLjEyNSBMMTUyLjYyNSwxMjgzLjEyNSBRMTUyLjYyNSwxMjgzLjEyNSAxNTIuNjI1LDEyODUuOTM3NSBaIE0xNTIuNjI1LDEyNzYuNzUgUTE1Mi42MjUsMTI3Ni43NSAxNTIuNjI1LDEyNzkuNTYyNSBMMTU0LjM3NSwxMjc5LjU2MjUgUTE1NC4zNzUsMTI3OS41NjI1IDE1NC4zNzUsMTI3Ni43NSBMMTUyLjYyNSwxMjc2Ljc1IFogTTE0OC4zNzUsMTI3Ny40Mzc1IEwxNTMuMzEyNSwxMjc3LjQzNzUgTDE1My4zMTI1LDEyNzUuNjg3NSBMMTQ4LjM3NSwxMjc1LjY4NzUgTDE0OC4zNzUsMTI3Ny40Mzc1IFogIiBmaWxsPSIjMDAwMDAwIi8+PHRleHQgZmlsbD0iIzAwMDAwMCIgZm9udC1mYW1pbHk9InNhbnMtc2VyaWYiIGZvbnQtc2l6ZT0iMTQiIGxlbmd0aEFkanVzdD0ic3BhY2luZyIgdGV4dExlbmd0aD0iMTA1IiB4PSIxNzEuMjUiIHk9IjEyODYuNzQyMiI+UGxheWxpc3RNYW5hZ2VyPC90ZXh0PjxsaW5lIHN0eWxlPSJzdHJva2U6IzE4MTgxODtzdHJva2Utd2lkdGg6MC41OyIgeDE9IjYxLjUiIHgyPSIzNTMuNSIgeTE9IjEyOTciIHkyPSIxMjk3Ii8+PGVsbGlwc2UgY3g9IjcxLjUiIGN5PSIxMzA5Ljk5MjIiIGZpbGw9Im5vbmUiIHJ4PSIzIiByeT0iMyIgc3R5bGU9InN0cm9rZTojMDM4MDQ4O3N0cm9rZS13aWR0aDoxLjA7Ii8+PHRleHQgZmlsbD0iIzAwMDAwMCIgZm9udC1mYW1pbHk9InNhbnMtc2VyaWYiIGZvbnQtc2l6ZT0iMTQiIGxlbmd0aEFkanVzdD0ic3BhY2luZyIgdGV4dExlbmd0aD0iMTY4IiB4PSI4MC41IiB5PSIxMzE0LjIzNDQiPkxpc3QmbHQ7UGxheWxpc3QmZ3Q7IHBsYXlsaXN0czwvdGV4dD48bGluZSBzdHlsZT0ic3Ryb2tlOiMxODE4MTg7c3Ryb2tlLXdpZHRoOjAuNTsiIHgxPSI2MS41IiB4Mj0iMzUzLjUiIHkxPSIxMzE5Ljk4NDQiIHkyPSIxMzE5Ljk4NDQiLz48ZWxsaXBzZSBjeD0iNzEuNSIgY3k9IjEzMzIuOTc2NiIgZmlsbD0iIzg0QkU4NCIgcng9IjMiIHJ5PSIzIiBzdHlsZT0ic3Ryb2tlOiMwMzgwNDg7c3Ryb2tlLXdpZHRoOjEuMDsiLz48dGV4dCBmaWxsPSIjMDAwMDAwIiBmb250LWZhbWlseT0ic2Fucy1zZXJpZiIgZm9udC1zaXplPSIxNCIgbGVuZ3RoQWRqdXN0PSJzcGFjaW5nIiB0ZXh0TGVuZ3RoPSIyNTUiIHg9IjgwLjUiIHk9IjEzMzcuMjE4OCI+UGxheWxpc3QgY3JlYXRlUGxheWxpc3QoU3RyaW5nIG5hbWUpPC90ZXh0PjxlbGxpcHNlIGN4PSI3MS41IiBjeT0iMTM0Ny45NjA5IiBmaWxsPSIjODRCRTg0IiByeD0iMyIgcnk9IjMiIHN0eWxlPSJzdHJva2U6IzAzODA0ODtzdHJva2Utd2lkdGg6MS4wOyIvPjx0ZXh0IGZpbGw9IiMwMDAwMDAiIGZvbnQtZmFtaWx5PSJzYW5zLXNlcmlmIiBmb250LXNpemU9IjE0IiBsZW5ndGhBZGp1c3Q9InNwYWNpbmciIHRleHRMZW5ndGg9IjI2OCIgeD0iODAuNSIgeT0iMTM1Mi4yMDMxIj52b2lkIGRlbGV0ZVBsYXlsaXN0KFBsYXlsaXN0IHBsYXlsaXN0KTwvdGV4dD48ZWxsaXBzZSBjeD0iNzEuNSIgY3k9IjEzNjIuOTQ1MyIgZmlsbD0iIzg0QkU4NCIgcng9IjMiIHJ5PSIzIiBzdHlsZT0ic3Ryb2tlOiMwMzgwNDg7c3Ryb2tlLXdpZHRoOjEuMDsiLz48dGV4dCBmaWxsPSIjMDAwMDAwIiBmb250LWZhbWlseT0ic2Fucy1zZXJpZiIgZm9udC1zaXplPSIxNCIgbGVuZ3RoQWRqdXN0PSJzcGFjaW5nIiB0ZXh0TGVuZ3RoPSIyMjYiIHg9IjgwLjUiIHk9IjEzNjcuMTg3NSI+TGlzdCZsdDtQbGF5bGlzdCZndDsgZ2V0QWxsUGxheWxpc3RzKCk8L3RleHQ+PC9nPjwhLS1jbGFzcyBTZXR0aW5ncy0tPjxnIGlkPSJlbGVtX1NldHRpbmdzIj48cmVjdCBjb2RlTGluZT0iNzkiIGZpbGw9IiNGMUYxRjEiIGhlaWdodD0iMTM3LjkwNjMiIGlkPSJTZXR0aW5ncyIgcng9IjIuNSIgcnk9IjIuNSIgc3R5bGU9InN0cm9rZTojMTgxODE4O3N0cm9rZS13aWR0aDowLjU7IiB3aWR0aD0iMjE5IiB4PSI5OCIgeT0iMTUwIi8+PGVsbGlwc2UgY3g9IjE3NS4yNSIgY3k9IjE2NiIgZmlsbD0iI0FERDFCMiIgcng9IjExIiByeT0iMTEiIHN0eWxlPSJzdHJva2U6IzE4MTgxODtzdHJva2Utd2lkdGg6MS4wOyIvPjxwYXRoIGQ9Ik0xNzIuODc1LDE3MC4yNSBMMTcyLjg3NSwxNzIgTDE3Ny44MTI1LDE3MiBMMTc3LjgxMjUsMTcwLjI1IEwxNzIuODc1LDE3MC4yNSBaIE0xNzMuNTYyNSwxNzAuOTM3NSBRMTczLjU2MjUsMTcwLjkzNzUgMTczLjU2MjUsMTYxLjc1IEwxNzEuODEyNSwxNjEuNzUgUTE3MS44MTI1LDE2MS43NSAxNzEuODEyNSwxNzAuOTM3NSBMMTczLjU2MjUsMTcwLjkzNzUgWiBNMTc3LjEyNSwxNzAuOTM3NSBMMTc4Ljg3NSwxNzAuOTM3NSBRMTc4Ljg3NSwxNzAuOTM3NSAxNzguODc1LDE2OC4xMjUgTDE3Ny4xMjUsMTY4LjEyNSBRMTc3LjEyNSwxNjguMTI1IDE3Ny4xMjUsMTcwLjkzNzUgWiBNMTc3LjEyNSwxNjEuNzUgUTE3Ny4xMjUsMTYxLjc1IDE3Ny4xMjUsMTY0LjU2MjUgTDE3OC44NzUsMTY0LjU2MjUgUTE3OC44NzUsMTY0LjU2MjUgMTc4Ljg3NSwxNjEuNzUgTDE3Ny4xMjUsMTYxLjc1IFogTTE3Mi44NzUsMTYyLjQzNzUgTDE3Ny44MTI1LDE2Mi40Mzc1IEwxNzcuODEyNSwxNjAuNjg3NSBMMTcyLjg3NSwxNjAuNjg3NSBMMTcyLjg3NSwxNjIuNDM3NSBaICIgZmlsbD0iIzAwMDAwMCIvPjx0ZXh0IGZpbGw9IiMwMDAwMDAiIGZvbnQtZmFtaWx5PSJzYW5zLXNlcmlmIiBmb250LXNpemU9IjE0IiBsZW5ndGhBZGp1c3Q9InNwYWNpbmciIHRleHRMZW5ndGg9IjU2IiB4PSIxOTUuNzUiIHk9IjE3MS43NDIyIj5TZXR0aW5nczwvdGV4dD48bGluZSBzdHlsZT0ic3Ryb2tlOiMxODE4MTg7c3Ryb2tlLXdpZHRoOjAuNTsiIHgxPSI5OSIgeDI9IjMxNiIgeTE9IjE4MiIgeTI9IjE4MiIvPjxlbGxpcHNlIGN4PSIxMDkiIGN5PSIxOTQuOTkyMiIgZmlsbD0ibm9uZSIgcng9IjMiIHJ5PSIzIiBzdHlsZT0ic3Ryb2tlOiMwMzgwNDg7c3Ryb2tlLXdpZHRoOjEuMDsiLz48dGV4dCBmaWxsPSIjMDAwMDAwIiBmb250LWZhbWlseT0ic2Fucy1zZXJpZiIgZm9udC1zaXplPSIxNCIgbGVuZ3RoQWRqdXN0PSJzcGFjaW5nIiB0ZXh0TGVuZ3RoPSI3MSIgeD0iMTE4IiB5PSIxOTkuMjM0NCI+aW50IHZvbHVtZTwvdGV4dD48ZWxsaXBzZSBjeD0iMTA5IiBjeT0iMjA5Ljk3NjYiIGZpbGw9Im5vbmUiIHJ4PSIzIiByeT0iMyIgc3R5bGU9InN0cm9rZTojMDM4MDQ4O3N0cm9rZS13aWR0aDoxLjA7Ii8+PHRleHQgZmlsbD0iIzAwMDAwMCIgZm9udC1mYW1pbHk9InNhbnMtc2VyaWYiIGZvbnQtc2l6ZT0iMTQiIGxlbmd0aEFkanVzdD0ic3BhY2luZyIgdGV4dExlbmd0aD0iODUiIHg9IjExOCIgeT0iMjE0LjIxODgiPlN0cmluZyB0aGVtZTwvdGV4dD48bGluZSBzdHlsZT0ic3Ryb2tlOiMxODE4MTg7c3Ryb2tlLXdpZHRoOjAuNTsiIHgxPSI5OSIgeDI9IjMxNiIgeTE9IjIxOS45Njg4IiB5Mj0iMjE5Ljk2ODgiLz48ZWxsaXBzZSBjeD0iMTA5IiBjeT0iMjMyLjk2MDkiIGZpbGw9IiM4NEJFODQiIHJ4PSIzIiByeT0iMyIgc3R5bGU9InN0cm9rZTojMDM4MDQ4O3N0cm9rZS13aWR0aDoxLjA7Ii8+PHRleHQgZmlsbD0iIzAwMDAwMCIgZm9udC1mYW1pbHk9InNhbnMtc2VyaWYiIGZvbnQtc2l6ZT0iMTQiIGxlbmd0aEFkanVzdD0ic3BhY2luZyIgdGV4dExlbmd0aD0iMTg2IiB4PSIxMTgiIHk9IjIzNy4yMDMxIj52b2lkIHNldFZvbHVtZShpbnQgdm9sdW1lKTwvdGV4dD48ZWxsaXBzZSBjeD0iMTA5IiBjeT0iMjQ3Ljk0NTMiIGZpbGw9IiM4NEJFODQiIHJ4PSIzIiByeT0iMyIgc3R5bGU9InN0cm9rZTojMDM4MDQ4O3N0cm9rZS13aWR0aDoxLjA7Ii8+PHRleHQgZmlsbD0iIzAwMDAwMCIgZm9udC1mYW1pbHk9InNhbnMtc2VyaWYiIGZvbnQtc2l6ZT0iMTQiIGxlbmd0aEFkanVzdD0ic3BhY2luZyIgdGV4dExlbmd0aD0iMTA4IiB4PSIxMTgiIHk9IjI1Mi4xODc1Ij5pbnQgZ2V0Vm9sdW1lKCk8L3RleHQ+PGVsbGlwc2UgY3g9IjEwOSIgY3k9IjI2Mi45Mjk3IiBmaWxsPSIjODRCRTg0IiByeD0iMyIgcnk9IjMiIHN0eWxlPSJzdHJva2U6IzAzODA0ODtzdHJva2Utd2lkdGg6MS4wOyIvPjx0ZXh0IGZpbGw9IiMwMDAwMDAiIGZvbnQtZmFtaWx5PSJzYW5zLXNlcmlmIiBmb250LXNpemU9IjE0IiBsZW5ndGhBZGp1c3Q9InNwYWNpbmciIHRleHRMZW5ndGg9IjE5MyIgeD0iMTE4IiB5PSIyNjcuMTcxOSI+dm9pZCBzZXRUaGVtZShTdHJpbmcgdGhlbWUpPC90ZXh0PjxlbGxpcHNlIGN4PSIxMDkiIGN5PSIyNzcuOTE0MSIgZmlsbD0iIzg0QkU4NCIgcng9IjMiIHJ5PSIzIiBzdHlsZT0ic3Ryb2tlOiMwMzgwNDg7c3Ryb2tlLXdpZHRoOjEuMDsiLz48dGV4dCBmaWxsPSIjMDAwMDAwIiBmb250LWZhbWlseT0ic2Fucy1zZXJpZiIgZm9udC1zaXplPSIxNCIgbGVuZ3RoQWRqdXN0PSJzcGFjaW5nIiB0ZXh0TGVuZ3RoPSIxMjIiIHg9IjExOCIgeT0iMjgyLjE1NjMiPlN0cmluZyBnZXRUaGVtZSgpPC90ZXh0PjwvZz48IS0tY2xhc3MgRXF1YWxpemVyLS0+PGcgaWQ9ImVsZW1fRXF1YWxpemVyIj48cmVjdCBjb2RlTGluZT0iODgiIGZpbGw9IiNGMUYxRjEiIGhlaWdodD0iMTA3LjkzNzUiIGlkPSJFcXVhbGl6ZXIiIHJ4PSIyLjUiIHJ5PSIyLjUiIHN0eWxlPSJzdHJva2U6IzE4MTgxODtzdHJva2Utd2lkdGg6MC41OyIgd2lkdGg9IjI5NCIgeD0iNjAuNSIgeT0iNyIvPjxlbGxpcHNlIGN4PSIxNzEuNzUiIGN5PSIyMyIgZmlsbD0iI0FERDFCMiIgcng9IjExIiByeT0iMTEiIHN0eWxlPSJzdHJva2U6IzE4MTgxODtzdHJva2Utd2lkdGg6MS4wOyIvPjxwYXRoIGQ9Ik0xNjkuMzc1LDI3LjI1IEwxNjkuMzc1LDI5IEwxNzQuMzEyNSwyOSBMMTc0LjMxMjUsMjcuMjUgTDE2OS4zNzUsMjcuMjUgWiBNMTcwLjA2MjUsMjcuOTM3NSBRMTcwLjA2MjUsMjcuOTM3NSAxNzAuMDYyNSwxOC43NSBMMTY4LjMxMjUsMTguNzUgUTE2OC4zMTI1LDE4Ljc1IDE2OC4zMTI1LDI3LjkzNzUgTDE3MC4wNjI1LDI3LjkzNzUgWiBNMTczLjYyNSwyNy45Mzc1IEwxNzUuMzc1LDI3LjkzNzUgUTE3NS4zNzUsMjcuOTM3NSAxNzUuMzc1LDI1LjEyNSBMMTczLjYyNSwyNS4xMjUgUTE3My42MjUsMjUuMTI1IDE3My42MjUsMjcuOTM3NSBaIE0xNzMuNjI1LDE4Ljc1IFExNzMuNjI1LDE4Ljc1IDE3My42MjUsMjEuNTYyNSBMMTc1LjM3NSwyMS41NjI1IFExNzUuMzc1LDIxLjU2MjUgMTc1LjM3NSwxOC43NSBMMTczLjYyNSwxOC43NSBaIE0xNjkuMzc1LDE5LjQzNzUgTDE3NC4zMTI1LDE5LjQzNzUgTDE3NC4zMTI1LDE3LjY4NzUgTDE2OS4zNzUsMTcuNjg3NSBMMTY5LjM3NSwxOS40Mzc1IFogIiBmaWxsPSIjMDAwMDAwIi8+PHRleHQgZmlsbD0iIzAwMDAwMCIgZm9udC1mYW1pbHk9InNhbnMtc2VyaWYiIGZvbnQtc2l6ZT0iMTQiIGxlbmd0aEFkanVzdD0ic3BhY2luZyIgdGV4dExlbmd0aD0iNjMiIHg9IjE5Mi4yNSIgeT0iMjguNzQyMiI+RXF1YWxpemVyPC90ZXh0PjxsaW5lIHN0eWxlPSJzdHJva2U6IzE4MTgxODtzdHJva2Utd2lkdGg6MC41OyIgeDE9IjYxLjUiIHgyPSIzNTMuNSIgeTE9IjM5IiB5Mj0iMzkiLz48ZWxsaXBzZSBjeD0iNzEuNSIgY3k9IjUxLjk5MjIiIGZpbGw9Im5vbmUiIHJ4PSIzIiByeT0iMyIgc3R5bGU9InN0cm9rZTojMDM4MDQ4O3N0cm9rZS13aWR0aDoxLjA7Ii8+PHRleHQgZmlsbD0iIzAwMDAwMCIgZm9udC1mYW1pbHk9InNhbnMtc2VyaWYiIGZvbnQtc2l6ZT0iMTQiIGxlbmd0aEFkanVzdD0ic3BhY2luZyIgdGV4dExlbmd0aD0iMTA1IiB4PSI4MC41IiB5PSI1Ni4yMzQ0Ij5MaXN0Jmx0O2ludCZndDsgYmFuZHM8L3RleHQ+PGxpbmUgc3R5bGU9InN0cm9rZTojMTgxODE4O3N0cm9rZS13aWR0aDowLjU7IiB4MT0iNjEuNSIgeDI9IjM1My41IiB5MT0iNjEuOTg0NCIgeTI9IjYxLjk4NDQiLz48ZWxsaXBzZSBjeD0iNzEuNSIgY3k9Ijc0Ljk3NjYiIGZpbGw9IiM4NEJFODQiIHJ4PSIzIiByeT0iMyIgc3R5bGU9InN0cm9rZTojMDM4MDQ4O3N0cm9rZS13aWR0aDoxLjA7Ii8+PHRleHQgZmlsbD0iIzAwMDAwMCIgZm9udC1mYW1pbHk9InNhbnMtc2VyaWYiIGZvbnQtc2l6ZT0iMTQiIGxlbmd0aEFkanVzdD0ic3BhY2luZyIgdGV4dExlbmd0aD0iMjY4IiB4PSI4MC41IiB5PSI3OS4yMTg4Ij52b2lkIHNldEJhbmRMZXZlbChpbnQgYmFuZCwgaW50IGxldmVsKTwvdGV4dD48ZWxsaXBzZSBjeD0iNzEuNSIgY3k9Ijg5Ljk2MDkiIGZpbGw9IiM4NEJFODQiIHJ4PSIzIiByeT0iMyIgc3R5bGU9InN0cm9rZTojMDM4MDQ4O3N0cm9rZS13aWR0aDoxLjA7Ii8+PHRleHQgZmlsbD0iIzAwMDAwMCIgZm9udC1mYW1pbHk9InNhbnMtc2VyaWYiIGZvbnQtc2l6ZT0iMTQiIGxlbmd0aEFkanVzdD0ic3BhY2luZyIgdGV4dExlbmd0aD0iMTg0IiB4PSI4MC41IiB5PSI5NC4yMDMxIj5pbnQgZ2V0QmFuZExldmVsKGludCBiYW5kKTwvdGV4dD48ZWxsaXBzZSBjeD0iNzEuNSIgY3k9IjEwNC45NDUzIiBmaWxsPSIjODRCRTg0IiByeD0iMyIgcnk9IjMiIHN0eWxlPSJzdHJva2U6IzAzODA0ODtzdHJva2Utd2lkdGg6MS4wOyIvPjx0ZXh0IGZpbGw9IiMwMDAwMDAiIGZvbnQtZmFtaWx5PSJzYW5zLXNlcmlmIiBmb250LXNpemU9IjE0IiBsZW5ndGhBZGp1c3Q9InNwYWNpbmciIHRleHRMZW5ndGg9Ijg2IiB4PSI4MC41IiB5PSIxMDkuMTg3NSI+dm9pZCByZXNldCgpPC90ZXh0PjwvZz48IS0tbGluayBNdXNpY1BsYXllciB0byBQbGF5bGlzdC0tPjxnIGlkPSJsaW5rX011c2ljUGxheWVyX1BsYXlsaXN0Ij48cGF0aCBjb2RlTGluZT0iOTUiIGQ9Ik00MDguMjksMTAyNi40NiBDNDU5LjkyLDEwNTIuMTUgNTEzLjQ0LDEwNzguOCA1NTcuOTksMTEwMC45NyAiIGZpbGw9Im5vbmUiIGlkPSJNdXNpY1BsYXllci1QbGF5bGlzdCIgc3R5bGU9InN0cm9rZTojMTgxODE4O3N0cm9rZS13aWR0aDoxLjA7Ii8+PHBvbHlnb24gZmlsbD0iIzAwMDAwMCIgcG9pbnRzPSI0NjAuOTc2MiwxMDQyLjE4NSw0NTQuMTg4MiwxMDM1LjUyMzYsNDUxLjU2OTEsMTA0MC43ODU2LDQ2MC45NzYyLDEwNDIuMTg1IiBzdHlsZT0ic3Ryb2tlOiMwMDAwMDA7c3Ryb2tlLXdpZHRoOjEuMDsiLz48dGV4dCBmaWxsPSIjMDAwMDAwIiBmb250LWZhbWlseT0ic2Fucy1zZXJpZiIgZm9udC1zaXplPSIxMyIgbGVuZ3RoQWRqdXN0PSJzcGFjaW5nIiB0ZXh0TGVuZ3RoPSI0OCIgeD0iNDY1LjUiIHk9IjEwNDUuMjg5MSI+bWFuYWdlczwvdGV4dD48dGV4dCBmaWxsPSIjMDAwMDAwIiBmb250LWZhbWlseT0ic2Fucy1zZXJpZiIgZm9udC1zaXplPSIxMyIgbGVuZ3RoQWRqdXN0PSJzcGFjaW5nIiB0ZXh0TGVuZ3RoPSI3IiB4PSI0MTYuMjcwMSIgeT0iMTA0Mi45MDk2Ij4xPC90ZXh0Pjx0ZXh0IGZpbGw9IiMwMDAwMDAiIGZvbnQtZmFtaWx5PSJzYW5zLXNlcmlmIiBmb250LXNpemU9IjEzIiBsZW5ndGhBZGp1c3Q9InNwYWNpbmciIHRleHRMZW5ndGg9IjYiIHg9IjU0NC4wMjEzIiB5PSIxMTA5Ljk1MTkiPio8L3RleHQ+PC9nPjwhLS1saW5rIFVzZXIgdG8gUGxheWxpc3QtLT48ZyBpZD0ibGlua19Vc2VyX1BsYXlsaXN0Ij48cGF0aCBjb2RlTGluZT0iOTYiIGQ9Ik0zNzYuNTksMTE1MyBDNDM3LjMsMTE1MyA1MDQuMDcsMTE1MyA1NTcuOCwxMTUzICIgZmlsbD0ibm9uZSIgaWQ9IlVzZXItUGxheWxpc3QiIHN0eWxlPSJzdHJva2U6IzE4MTgxODtzdHJva2Utd2lkdGg6MS4wOyIvPjxwb2x5Z29uIGZpbGw9IiMwMDAwMDAiIHBvaW50cz0iNDcyLDExNDUuOTU3LDQ2Mi45NTQ5LDExNDMuMDE4MSw0NjIuOTU0OSwxMTQ4Ljg5Niw0NzIsMTE0NS45NTciIHN0eWxlPSJzdHJva2U6IzAwMDAwMDtzdHJva2Utd2lkdGg6MS4wOyIvPjx0ZXh0IGZpbGw9IiMwMDAwMDAiIGZvbnQtZmFtaWx5PSJzYW5zLXNlcmlmIiBmb250LXNpemU9IjEzIiBsZW5ndGhBZGp1c3Q9InNwYWNpbmciIHRleHRMZW5ndGg9IjI3IiB4PSI0NzYiIHk9IjExNTEuMjg5MSI+b3duczwvdGV4dD48dGV4dCBmaWxsPSIjMDAwMDAwIiBmb250LWZhbWlseT0ic2Fucy1zZXJpZiIgZm9udC1zaXplPSIxMyIgbGVuZ3RoQWRqdXN0PSJzcGFjaW5nIiB0ZXh0TGVuZ3RoPSI3IiB4PSIzODQuNDEwNSIgeT0iMTE2NS42MDY4Ij4xPC90ZXh0Pjx0ZXh0IGZpbGw9IiMwMDAwMDAiIGZvbnQtZmFtaWx5PSJzYW5zLXNlcmlmIiBmb250LXNpemU9IjEzIiBsZW5ndGhBZGp1c3Q9InNwYWNpbmciIHRleHRMZW5ndGg9IjYiIHg9IjU0NC4xNTciIHk9IjExNjUuNzgxIj4qPC90ZXh0PjwvZz48IS0tbGluayBMaWJyYXJ5IHRvIFNvbmctLT48ZyBpZD0ibGlua19MaWJyYXJ5X1NvbmciPjxwYXRoIGNvZGVMaW5lPSI5NyIgZD0iTTM2MS42LDQ1NS4yNyBDMzc3LjQ3LDQ2Mi44NiAzOTMuMTksNDcwLjgzIDQwOCw0NzkgQzQ1OS42OSw1MDcuNTIgNTE0LjE4LDU0My42NSA1NTkuNDEsNTc1LjUxICIgZmlsbD0ibm9uZSIgaWQ9IkxpYnJhcnktU29uZyIgc3R5bGU9InN0cm9rZTojMTgxODE4O3N0cm9rZS13aWR0aDoxLjA7Ii8+PHBvbHlnb24gZmlsbD0iIzAwMDAwMCIgcG9pbnRzPSI0NTcuNzcyNiw0OTUuNTU0MSw0NTEuNTcsNDg4LjM0NDYsNDQ4LjUxNjksNDkzLjM2NzMsNDU3Ljc3MjYsNDk1LjU1NDEiIHN0eWxlPSJzdHJva2U6IzAwMDAwMDtzdHJva2Utd2lkdGg6MS4wOyIvPjx0ZXh0IGZpbGw9IiMwMDAwMDAiIGZvbnQtZmFtaWx5PSJzYW5zLXNlcmlmIiBmb250LXNpemU9IjEzIiBsZW5ndGhBZGp1c3Q9InNwYWNpbmciIHRleHRMZW5ndGg9IjU0IiB4PSI0NjIuNSIgeT0iNDk4LjI4OTEiPmNvbnRhaW5zPC90ZXh0Pjx0ZXh0IGZpbGw9IiMwMDAwMDAiIGZvbnQtZmFtaWx5PSJzYW5zLXNlcmlmIiBmb250LXNpemU9IjEzIiBsZW5ndGhBZGp1c3Q9InNwYWNpbmciIHRleHRMZW5ndGg9IjciIHg9IjM2OS43MjYzIiB5PSI0NzEuMTgyNiI+MTwvdGV4dD48dGV4dCBmaWxsPSIjMDAwMDAwIiBmb250LWZhbWlseT0ic2Fucy1zZXJpZiIgZm9udC1zaXplPSIxMyIgbGVuZ3RoQWRqdXN0PSJzcGFjaW5nIiB0ZXh0TGVuZ3RoPSI2IiB4PSI1NDUuNTQ1NiIgeT0iNTgyLjY5NzMiPio8L3RleHQ+PC9nPjwhLS1saW5rIE11c2ljUGxheWVyIHRvIFNvbmctLT48ZyBpZD0ibGlua19NdXNpY1BsYXllcl9Tb25nIj48cGF0aCBjb2RlTGluZT0iOTgiIGQ9Ik0zOTYuNzYsODEyLjk2IEM0NTIuMzUsNzc5LjMgNTExLjEyLDc0My42OSA1NTkuMjMsNzE0LjU2ICIgZmlsbD0ibm9uZSIgaWQ9Ik11c2ljUGxheWVyLVNvbmciIHN0eWxlPSJzdHJva2U6IzE4MTgxODtzdHJva2Utd2lkdGg6MS4wOyIvPjxwb2x5Z29uIGZpbGw9IiMwMDAwMDAiIHBvaW50cz0iNDY3Ljc3NjgsNzMxLjM2NjgsNDU4LjUxNzUsNzMzLjUzODcsNDYxLjU2MjUsNzM4LjU2NjQsNDY3Ljc3NjgsNzMxLjM2NjgiIHN0eWxlPSJzdHJva2U6IzAwMDAwMDtzdHJva2Utd2lkdGg6MS4wOyIvPjx0ZXh0IGZpbGw9IiMwMDAwMDAiIGZvbnQtZmFtaWx5PSJzYW5zLXNlcmlmIiBmb250LXNpemU9IjEzIiBsZW5ndGhBZGp1c3Q9InNwYWNpbmciIHRleHRMZW5ndGg9IjM0IiB4PSI0NzIuNSIgeT0iNzM5LjI4OTEiPnBsYXlzPC90ZXh0Pjx0ZXh0IGZpbGw9IiMwMDAwMDAiIGZvbnQtZmFtaWx5PSJzYW5zLXNlcmlmIiBmb250LXNpemU9IjEzIiBsZW5ndGhBZGp1c3Q9InNwYWNpbmciIHRleHRMZW5ndGg9IjciIHg9IjQwMy40MDE4IiB5PSI4MDMuNDM3NCI+MTwvdGV4dD48dGV4dCBmaWxsPSIjMDAwMDAwIiBmb250LWZhbWlseT0ic2Fucy1zZXJpZiIgZm9udC1zaXplPSIxMyIgbGVuZ3RoQWRqdXN0PSJzcGFjaW5nIiB0ZXh0TGVuZ3RoPSI2IiB4PSI1NDUuMzUyNCIgeT0iNzMxLjk1ODgiPio8L3RleHQ+PC9nPjwhLS1saW5rIEFsYnVtIHRvIFNvbmctLT48ZyBpZD0ibGlua19BbGJ1bV9Tb25nIj48cGF0aCBjb2RlTGluZT0iOTkiIGQ9Ik0zMTMuMjMsNTkxLjIyIEMzODcuMiw2MDQuMSA0ODUuODgsNjIxLjI3IDU1OS40Nyw2MzQuMDcgIiBmaWxsPSJub25lIiBpZD0iQWxidW0tU29uZyIgc3R5bGU9InN0cm9rZTojMTgxODE4O3N0cm9rZS13aWR0aDoxLjA7Ii8+PHBvbHlnb24gZmlsbD0iIzAwMDAwMCIgcG9pbnRzPSI0NTguNDI2LDYwOC44MTQyLDQ1MC4wMTg3LDYwNC4zNjgxLDQ0OS4wMTEsNjEwLjE1OSw0NTguNDI2LDYwOC44MTQyIiBzdHlsZT0ic3Ryb2tlOiMwMDAwMDA7c3Ryb2tlLXdpZHRoOjEuMDsiLz48dGV4dCBmaWxsPSIjMDAwMDAwIiBmb250LWZhbWlseT0ic2Fucy1zZXJpZiIgZm9udC1zaXplPSIxMyIgbGVuZ3RoQWRqdXN0PSJzcGFjaW5nIiB0ZXh0TGVuZ3RoPSI1NCIgeD0iNDYyLjUiIHk9IjYxMy4yODkxIj5pbmNsdWRlczwvdGV4dD48dGV4dCBmaWxsPSIjMDAwMDAwIiBmb250LWZhbWlseT0ic2Fucy1zZXJpZiIgZm9udC1zaXplPSIxMyIgbGVuZ3RoQWRqdXN0PSJzcGFjaW5nIiB0ZXh0TGVuZ3RoPSI3IiB4PSIzMjAuOTEwMiIgeT0iNjA1LjI4MzIiPjE8L3RleHQ+PHRleHQgZmlsbD0iIzAwMDAwMCIgZm9udC1mYW1pbHk9InNhbnMtc2VyaWYiIGZvbnQtc2l6ZT0iMTMiIGxlbmd0aEFkanVzdD0ic3BhY2luZyIgdGV4dExlbmd0aD0iNiIgeD0iNTQ1LjYxIiB5PSI2NDUuNTU3OCI+KjwvdGV4dD48L2c+PCEtLWxpbmsgR2VucmUgdG8gU29uZy0tPjxnIGlkPSJsaW5rX0dlbnJlX1NvbmciPjxwYXRoIGNvZGVMaW5lPSIxMDAiIGQ9Ik0zNDcuOCw3MDYuNzYgQzQxNS45Niw2OTQuOSA0OTYuNTksNjgwLjg3IDU1OS4xNyw2NjkuOTggIiBmaWxsPSJub25lIiBpZD0iR2VucmUtU29uZyIgc3R5bGU9InN0cm9rZTojMTgxODE4O3N0cm9rZS13aWR0aDoxLjA7Ii8+PHBvbHlnb24gZmlsbD0iIzAwMDAwMCIgcG9pbnRzPSI0NDcuOTI2LDY3MC4wOTk5LDQzOC41MTEsNjY4Ljc1NTEsNDM5LjUxODYsNjc0LjU0NTksNDQ3LjkyNiw2NzAuMDk5OSIgc3R5bGU9InN0cm9rZTojMDAwMDAwO3N0cm9rZS13aWR0aDoxLjA7Ii8+PHRleHQgZmlsbD0iIzAwMDAwMCIgZm9udC1mYW1pbHk9InNhbnMtc2VyaWYiIGZvbnQtc2l6ZT0iMTMiIGxlbmd0aEFkanVzdD0ic3BhY2luZyIgdGV4dExlbmd0aD0iNzUiIHg9IjQ1MiIgeT0iNjc2LjI4OTEiPmNhdGVnb3JpemVzPC90ZXh0Pjx0ZXh0IGZpbGw9IiMwMDAwMDAiIGZvbnQtZmFtaWx5PSJzYW5zLXNlcmlmIiBmb250LXNpemU9IjEzIiBsZW5ndGhBZGp1c3Q9InNwYWNpbmciIHRleHRMZW5ndGg9IjciIHg9IjM1NS42NjQxIiB5PSI3MTguMTA1MiI+MTwvdGV4dD48dGV4dCBmaWxsPSIjMDAwMDAwIiBmb250LWZhbWlseT0ic2Fucy1zZXJpZiIgZm9udC1zaXplPSIxMyIgbGVuZ3RoQWRqdXN0PSJzcGFjaW5nIiB0ZXh0TGVuZ3RoPSI2IiB4PSI1NDUuNjIzNCIgeT0iNjg0LjAyNjgiPio8L3RleHQ+PC9nPjwhLS1saW5rIFBsYXlsaXN0TWFuYWdlciB0byBQbGF5bGlzdC0tPjxnIGlkPSJsaW5rX1BsYXlsaXN0TWFuYWdlcl9QbGF5bGlzdCI+PHBhdGggY29kZUxpbmU9IjEwMSIgZD0iTTM1NC41NSwxMjY2LjQzIEMzNzIuNTYsMTI1OS45MSAzOTAuNzEsMTI1My4zMSA0MDgsMTI0NyBDNDU3LjMzLDEyMjguOTkgNTExLjk3LDEyMDguODMgNTU3LjkzLDExOTEuODIgIiBmaWxsPSJub25lIiBpZD0iUGxheWxpc3RNYW5hZ2VyLVBsYXlsaXN0IiBzdHlsZT0ic3Ryb2tlOiMxODE4MTg7c3Ryb2tlLXdpZHRoOjEuMDsiLz48cG9seWdvbiBmaWxsPSIjMDAwMDAwIiBwb2ludHM9IjQ2MS4xOTQxLDExOTUuMjM1LDQ1MS42OTAyLDExOTUuNTkxMSw0NTMuNzE0NiwxMjAxLjEwOTMsNDYxLjE5NDEsMTE5NS4yMzUiIHN0eWxlPSJzdHJva2U6IzAwMDAwMDtzdHJva2Utd2lkdGg6MS4wOyIvPjx0ZXh0IGZpbGw9IiMwMDAwMDAiIGZvbnQtZmFtaWx5PSJzYW5zLXNlcmlmIiBmb250LXNpemU9IjEzIiBsZW5ndGhBZGp1c3Q9InNwYWNpbmciIHRleHRMZW5ndGg9IjQ4IiB4PSI0NjUuNSIgeT0iMTIwMi4yODkxIj5tYW5hZ2VzPC90ZXh0Pjx0ZXh0IGZpbGw9IiMwMDAwMDAiIGZvbnQtZmFtaWx5PSJzYW5zLXNlcmlmIiBmb250LXNpemU9IjEzIiBsZW5ndGhBZGp1c3Q9InNwYWNpbmciIHRleHRMZW5ndGg9IjciIHg9IjM2Mi4zMTI3IiB5PSIxMjc2LjM2ODgiPjE8L3RleHQ+PHRleHQgZmlsbD0iIzAwMDAwMCIgZm9udC1mYW1pbHk9InNhbnMtc2VyaWYiIGZvbnQtc2l6ZT0iMTMiIGxlbmd0aEFkanVzdD0ic3BhY2luZyIgdGV4dExlbmd0aD0iNiIgeD0iNTQzLjk1NjkiIHk9IjEyMDcuNDczNyI+KjwvdGV4dD48L2c+PCEtLVNSQz1bbkxMRFJ6aW0zQnRkTG4wdkVMa0FPalRZMkQxWTd2U0s2RDFrVHlMYzcwNm92NTVJa2NwT1ZueWJueFJhOWphQVI1V0VZVkZxSDNzSUp4SjJoR0RkVzZJelNyMTltajk5ZXNVcEtXYmh1VHZSTU52SXVlMDRGc1IwZHpTRkhqVEdVWUJLQlpudHdDT09YS0Ezajg0akp5MzJNd213VDZ6YTFJdHBZWFpDeWpTWU5HZEs4YU1pQ3NxNlFGcGNDZzBidDRsWlJHUUFnZGVxR08tSXJlcmRCUTc3ZWVabWFFdVlSQ21VRnYxZk5ocEx4bG5zZ3RCalgyc0E4RlBkTnpHT2hRLWM4b3VNRUVhS1BlV1dueTVwSTZyeXFvNUlTeEN5WVQwaGtCdTZnUzVZUU5IYmlucXJRaTlmcFYtZXI4Rk84VHpTaTFSRENWMlE1ei02YjVRbkdaUWxWcld1dFVNa3AyVk5hdjBySGZGUExEOWRjeFluYXlEUHEyWmYyQlBDVlo5SzlLN3hSNVAzLXJBejlONmRTRXB3YzZlZ2w0QTUyVWtZOFBJZmZJdWM4ZlNtNEpaUE9ObmNieE5TYUExM2RfNl9oUlQ1R1VOa3hkMFJ4TFRhUGhwMDNpdWlLZmtVdnR1Q2RZbklXb1F2bmEwbGtYbGxrNkVTNnF5UFktN3ZWdmFvZmROc2FYbzEyY3I5aWVxSnpjcEdsai1nLXBybjUtIC01NWxMdTFvdXhVXzNkTnROdHY0bU1Wd2pLX3B5aHAwQ3dubVZQTmNxT05Oa1pfQUdxUmVUREVnZWlrWS1ITE9tUjVjRTRVYlhVdjlpVUd2bVkzUmdPWkNHWjlQN3VfZ2lOSWR3Vkw5SUZNUzU2MzNFckYtNkVlSk5rS0tMYldSMjR5QUcyYmFqeUppdERuajR3N1VieFRsdmMzYlROQzd5cjd1VmwzSkludm5QTWlwWi11MHBERkVkMHdKc0thQUFWUnUxVjRheDhJM2Zwdzk0TzZYdk90UEx5bFl2cmdObUw1Tk5VRnQ0TS13cXNuOUtEaEFieFZ2RmRCbTAwXS0tPjwvZz48L3N2Zz4=;" vertex="1" parent="1">
            <mxGeometry x="-1100" y="2180" width="405.16" height="720" as="geometry" />
          </mxCell>
        </UserObject>
        <UserObject label="" plantUmlData="{&#xa;  &quot;data&quot;: &quot;@startuml\nnode \&quot;Client Device\&quot; {\n    component \&quot;Music Player Application\&quot; {\n        [User  Interface]\n        [Audio Player]\n        [Playlist Manager]\n        [Settings Manager]\n    }\n}\n\nnode \&quot;Web Server\&quot; {\n    component \&quot;User  Service\&quot; {\n        [Authentication Service]\n        [User  Profile Service]\n    }\n    component \&quot;Playlist Service\&quot; {\n        [Playlist Management]\n        [Song Recommendation]\n    }\n}\n\nnode \&quot;Database Server\&quot; {\n    component \&quot;Database\&quot; {\n        [User  Database]\n        [Playlist Database]\n        [Song Metadata Database]\n    }\n}\n\nnode \&quot;Cloud Storage\&quot; {\n    component \&quot;Music Files\&quot; {\n        [Music Library]\n    }\n}\n\nnode \&quot;Streaming Service\&quot; {\n    component \&quot;Streaming Server\&quot; {\n        [Audio Streaming]\n    }\n}\n\nnode \&quot;Notification Service\&quot; {\n    component \&quot;Notification System\&quot; {\n        [Push Notifications]\n        [Email Notifications]\n    }\n}\n\n&#39; Relationships\n[User  Interface] --&gt; [User  Service]\n[User  Interface] --&gt; [Playlist Service]\n[User  Service] --&gt; [Database]\n[Playlist Service] --&gt; [Database]\n[Playlist Manager] --&gt; [Streaming Server]\n[Streaming Server] --&gt; [Music Library]\n[Notification System] --&gt; [User  Service]\n@enduml&quot;,&#xa;  &quot;format&quot;: &quot;svg&quot;&#xa;}" id="c7S_zqKtltET6JresFuN-14">
          <mxCell style="shape=image;noLabel=1;verticalAlign=top;aspect=fixed;imageAspect=0;image=data:image/svg+xml,PD94bWwgdmVyc2lvbj0iMS4wIiBlbmNvZGluZz0idXMtYXNjaWkiIHN0YW5kYWxvbmU9Im5vIj8+PHN2ZyB4bWxucz0iaHR0cDovL3d3dy53My5vcmcvMjAwMC9zdmciIHhtbG5zOnhsaW5rPSJodHRwOi8vd3d3LnczLm9yZy8xOTk5L3hsaW5rIiBjb250ZW50U3R5bGVUeXBlPSJ0ZXh0L2NzcyIgaGVpZ2h0PSI3NjRweCIgcHJlc2VydmVBc3BlY3RSYXRpbz0ibm9uZSIgc3R5bGU9IndpZHRoOjE1NDFweDtoZWlnaHQ6NzY0cHg7YmFja2dyb3VuZDojRkZGRkZGOyIgdmVyc2lvbj0iMS4xIiB2aWV3Qm94PSIwIDAgMTU0MSA3NjQiIHdpZHRoPSIxNTQxcHgiIHpvb21BbmRQYW49Im1hZ25pZnkiPjxkZWZzLz48Zz48IS0tY2x1c3RlciBDbGllbnQgRGV2aWNlLS0+PGcgaWQ9ImNsdXN0ZXJfQ2xpZW50IERldmljZSI+PHBvbHlnb24gZmlsbD0ibm9uZSIgcG9pbnRzPSI1NDYsMzIsNTU2LDIyLDEzMDUsMjIsMTMwNSwxNzYsMTI5NSwxODYsNTQ2LDE4Niw1NDYsMzIiIHN0eWxlPSJzdHJva2U6IzE4MTgxODtzdHJva2Utd2lkdGg6MS4wOyIvPjxsaW5lIHN0eWxlPSJzdHJva2U6IzE4MTgxODtzdHJva2Utd2lkdGg6MS4wOyIgeDE9IjEyOTUiIHgyPSIxMzA1IiB5MT0iMzIiIHkyPSIyMiIvPjxsaW5lIHN0eWxlPSJzdHJva2U6IzE4MTgxODtzdHJva2Utd2lkdGg6MS4wOyIgeDE9IjU0NiIgeDI9IjEyOTUiIHkxPSIzMiIgeTI9IjMyIi8+PGxpbmUgc3R5bGU9InN0cm9rZTojMTgxODE4O3N0cm9rZS13aWR0aDoxLjA7IiB4MT0iMTI5NSIgeDI9IjEyOTUiIHkxPSIzMiIgeTI9IjE4NiIvPjx0ZXh0IGZpbGw9IiMwMDAwMDAiIGZvbnQtZmFtaWx5PSJzYW5zLXNlcmlmIiBmb250LXNpemU9IjE0IiBmb250LXdlaWdodD0iYm9sZCIgbGVuZ3RoQWRqdXN0PSJzcGFjaW5nIiB0ZXh0TGVuZ3RoPSI5MSIgeD0iODc2IiB5PSI0OC4yMzQ0Ij5DbGllbnQgRGV2aWNlPC90ZXh0PjwvZz48IS0tY2x1c3RlciBNdXNpYyBQbGF5ZXIgQXBwbGljYXRpb24tLT48ZyBpZD0iY2x1c3Rlcl9NdXNpYyBQbGF5ZXIgQXBwbGljYXRpb24iPjxyZWN0IGZpbGw9Im5vbmUiIGhlaWdodD0iOTQiIHJ4PSIyLjUiIHJ5PSIyLjUiIHN0eWxlPSJzdHJva2U6IzE4MTgxODtzdHJva2Utd2lkdGg6MS4wOyIgd2lkdGg9IjcxMSIgeD0iNTcwIiB5PSI2OCIvPjxyZWN0IGZpbGw9Im5vbmUiIGhlaWdodD0iMTAiIHN0eWxlPSJzdHJva2U6IzE4MTgxODtzdHJva2Utd2lkdGg6MS4wOyIgd2lkdGg9IjE1IiB4PSIxMjYxIiB5PSI3MyIvPjxyZWN0IGZpbGw9Im5vbmUiIGhlaWdodD0iMiIgc3R5bGU9InN0cm9rZTojMTgxODE4O3N0cm9rZS13aWR0aDoxLjA7IiB3aWR0aD0iNCIgeD0iMTI1OSIgeT0iNzUiLz48cmVjdCBmaWxsPSJub25lIiBoZWlnaHQ9IjIiIHN0eWxlPSJzdHJva2U6IzE4MTgxODtzdHJva2Utd2lkdGg6MS4wOyIgd2lkdGg9IjQiIHg9IjEyNTkiIHk9Ijc5Ii8+PHRleHQgZmlsbD0iIzAwMDAwMCIgZm9udC1mYW1pbHk9InNhbnMtc2VyaWYiIGZvbnQtc2l6ZT0iMTQiIGZvbnQtd2VpZ2h0PSJib2xkIiBsZW5ndGhBZGp1c3Q9InNwYWNpbmciIHRleHRMZW5ndGg9IjE2OCIgeD0iODQxLjUiIHk9Ijk0LjIzNDQiPk11c2ljIFBsYXllciBBcHBsaWNhdGlvbjwvdGV4dD48L2c+PCEtLWNsdXN0ZXIgV2ViIFNlcnZlci0tPjxnIGlkPSJjbHVzdGVyX1dlYiBTZXJ2ZXIiPjxwb2x5Z29uIGZpbGw9Im5vbmUiIHBvaW50cz0iMTgzLDIzNiwxOTMsMjI2LDEyMjMsMjI2LDEyMjMsNDEyLDEyMTMsNDIyLDE4Myw0MjIsMTgzLDIzNiIgc3R5bGU9InN0cm9rZTojMTgxODE4O3N0cm9rZS13aWR0aDoxLjA7Ii8+PGxpbmUgc3R5bGU9InN0cm9rZTojMTgxODE4O3N0cm9rZS13aWR0aDoxLjA7IiB4MT0iMTIxMyIgeDI9IjEyMjMiIHkxPSIyMzYiIHkyPSIyMjYiLz48bGluZSBzdHlsZT0ic3Ryb2tlOiMxODE4MTg7c3Ryb2tlLXdpZHRoOjEuMDsiIHgxPSIxODMiIHgyPSIxMjEzIiB5MT0iMjM2IiB5Mj0iMjM2Ii8+PGxpbmUgc3R5bGU9InN0cm9rZTojMTgxODE4O3N0cm9rZS13aWR0aDoxLjA7IiB4MT0iMTIxMyIgeDI9IjEyMTMiIHkxPSIyMzYiIHkyPSI0MjIiLz48dGV4dCBmaWxsPSIjMDAwMDAwIiBmb250LWZhbWlseT0ic2Fucy1zZXJpZiIgZm9udC1zaXplPSIxNCIgZm9udC13ZWlnaHQ9ImJvbGQiIGxlbmd0aEFkanVzdD0ic3BhY2luZyIgdGV4dExlbmd0aD0iNzAiIHg9IjY2NCIgeT0iMjUyLjIzNDQiPldlYiBTZXJ2ZXI8L3RleHQ+PC9nPjwhLS1jbHVzdGVyIFVzZXIgIFNlcnZpY2UtLT48ZyBpZD0iY2x1c3Rlcl9Vc2VyICBTZXJ2aWNlIj48cmVjdCBmaWxsPSJub25lIiBoZWlnaHQ9IjExMCIgcng9IjIuNSIgcnk9IjIuNSIgc3R5bGU9InN0cm9rZTojMTgxODE4O3N0cm9rZS13aWR0aDoxLjA7IiB3aWR0aD0iNDg0IiB4PSIyMTUiIHk9IjI4MCIvPjxyZWN0IGZpbGw9Im5vbmUiIGhlaWdodD0iMTAiIHN0eWxlPSJzdHJva2U6IzE4MTgxODtzdHJva2Utd2lkdGg6MS4wOyIgd2lkdGg9IjE1IiB4PSI2NzkiIHk9IjI4NSIvPjxyZWN0IGZpbGw9Im5vbmUiIGhlaWdodD0iMiIgc3R5bGU9InN0cm9rZTojMTgxODE4O3N0cm9rZS13aWR0aDoxLjA7IiB3aWR0aD0iNCIgeD0iNjc3IiB5PSIyODciLz48cmVjdCBmaWxsPSJub25lIiBoZWlnaHQ9IjIiIHN0eWxlPSJzdHJva2U6IzE4MTgxODtzdHJva2Utd2lkdGg6MS4wOyIgd2lkdGg9IjQiIHg9IjY3NyIgeT0iMjkxIi8+PHRleHQgZmlsbD0iIzAwMDAwMCIgZm9udC1mYW1pbHk9InNhbnMtc2VyaWYiIGZvbnQtc2l6ZT0iMTQiIGZvbnQtd2VpZ2h0PSJib2xkIiBsZW5ndGhBZGp1c3Q9InNwYWNpbmciIHRleHRMZW5ndGg9IjkxIiB4PSI0MTEuNSIgeT0iMzA2LjIzNDQiPlVzZXIgIFNlcnZpY2U8L3RleHQ+PC9nPjwhLS1jbHVzdGVyIFBsYXlsaXN0IFNlcnZpY2UtLT48ZyBpZD0iY2x1c3Rlcl9QbGF5bGlzdCBTZXJ2aWNlIj48cmVjdCBmaWxsPSJub25lIiBoZWlnaHQ9IjExMCIgcng9IjIuNSIgcnk9IjIuNSIgc3R5bGU9InN0cm9rZTojMTgxODE4O3N0cm9rZS13aWR0aDoxLjA7IiB3aWR0aD0iNDUyIiB4PSI3MzkiIHk9IjI4MCIvPjxyZWN0IGZpbGw9Im5vbmUiIGhlaWdodD0iMTAiIHN0eWxlPSJzdHJva2U6IzE4MTgxODtzdHJva2Utd2lkdGg6MS4wOyIgd2lkdGg9IjE1IiB4PSIxMTcxIiB5PSIyODUiLz48cmVjdCBmaWxsPSJub25lIiBoZWlnaHQ9IjIiIHN0eWxlPSJzdHJva2U6IzE4MTgxODtzdHJva2Utd2lkdGg6MS4wOyIgd2lkdGg9IjQiIHg9IjExNjkiIHk9IjI4NyIvPjxyZWN0IGZpbGw9Im5vbmUiIGhlaWdodD0iMiIgc3R5bGU9InN0cm9rZTojMTgxODE4O3N0cm9rZS13aWR0aDoxLjA7IiB3aWR0aD0iNCIgeD0iMTE2OSIgeT0iMjkxIi8+PHRleHQgZmlsbD0iIzAwMDAwMCIgZm9udC1mYW1pbHk9InNhbnMtc2VyaWYiIGZvbnQtc2l6ZT0iMTQiIGZvbnQtd2VpZ2h0PSJib2xkIiBsZW5ndGhBZGp1c3Q9InNwYWNpbmciIHRleHRMZW5ndGg9IjExMiIgeD0iOTA5IiB5PSIzMDYuMjM0NCI+UGxheWxpc3QgU2VydmljZTwvdGV4dD48L2c+PCEtLWNsdXN0ZXIgRGF0YWJhc2UgU2VydmVyLS0+PGcgaWQ9ImNsdXN0ZXJfRGF0YWJhc2UgU2VydmVyIj48cG9seWdvbiBmaWxsPSJub25lIiBwb2ludHM9IjQzOSw0NTYsNDQ5LDQ0Niw5MDIsNDQ2LDkwMiw3MzcsODkyLDc0Nyw0MzksNzQ3LDQzOSw0NTYiIHN0eWxlPSJzdHJva2U6IzE4MTgxODtzdHJva2Utd2lkdGg6MS4wOyIvPjxsaW5lIHN0eWxlPSJzdHJva2U6IzE4MTgxODtzdHJva2Utd2lkdGg6MS4wOyIgeDE9Ijg5MiIgeDI9IjkwMiIgeTE9IjQ1NiIgeTI9IjQ0NiIvPjxsaW5lIHN0eWxlPSJzdHJva2U6IzE4MTgxODtzdHJva2Utd2lkdGg6MS4wOyIgeDE9IjQzOSIgeDI9Ijg5MiIgeTE9IjQ1NiIgeTI9IjQ1NiIvPjxsaW5lIHN0eWxlPSJzdHJva2U6IzE4MTgxODtzdHJva2Utd2lkdGg6MS4wOyIgeDE9Ijg5MiIgeDI9Ijg5MiIgeTE9IjQ1NiIgeTI9Ijc0NyIvPjx0ZXh0IGZpbGw9IiMwMDAwMDAiIGZvbnQtZmFtaWx5PSJzYW5zLXNlcmlmIiBmb250LXNpemU9IjE0IiBmb250LXdlaWdodD0iYm9sZCIgbGVuZ3RoQWRqdXN0PSJzcGFjaW5nIiB0ZXh0TGVuZ3RoPSIxMDUiIHg9IjYxNCIgeT0iNDcyLjIzNDQiPkRhdGFiYXNlIFNlcnZlcjwvdGV4dD48L2c+PCEtLWNsdXN0ZXIgRGF0YWJhc2UtLT48ZyBpZD0iY2x1c3Rlcl9EYXRhYmFzZSI+PHJlY3QgZmlsbD0ibm9uZSIgaGVpZ2h0PSIyMTUiIHJ4PSIyLjUiIHJ5PSIyLjUiIHN0eWxlPSJzdHJva2U6IzE4MTgxODtzdHJva2Utd2lkdGg6MS4wOyIgd2lkdGg9IjM5OSIgeD0iNDcxIiB5PSI1MDAiLz48cmVjdCBmaWxsPSJub25lIiBoZWlnaHQ9IjEwIiBzdHlsZT0ic3Ryb2tlOiMxODE4MTg7c3Ryb2tlLXdpZHRoOjEuMDsiIHdpZHRoPSIxNSIgeD0iODUwIiB5PSI1MDUiLz48cmVjdCBmaWxsPSJub25lIiBoZWlnaHQ9IjIiIHN0eWxlPSJzdHJva2U6IzE4MTgxODtzdHJva2Utd2lkdGg6MS4wOyIgd2lkdGg9IjQiIHg9Ijg0OCIgeT0iNTA3Ii8+PHJlY3QgZmlsbD0ibm9uZSIgaGVpZ2h0PSIyIiBzdHlsZT0ic3Ryb2tlOiMxODE4MTg7c3Ryb2tlLXdpZHRoOjEuMDsiIHdpZHRoPSI0IiB4PSI4NDgiIHk9IjUxMSIvPjx0ZXh0IGZpbGw9IiMwMDAwMDAiIGZvbnQtZmFtaWx5PSJzYW5zLXNlcmlmIiBmb250LXNpemU9IjE0IiBmb250LXdlaWdodD0iYm9sZCIgbGVuZ3RoQWRqdXN0PSJzcGFjaW5nIiB0ZXh0TGVuZ3RoPSI1NiIgeD0iNjQyLjUiIHk9IjUyNi4yMzQ0Ij5EYXRhYmFzZTwvdGV4dD48L2c+PCEtLWNsdXN0ZXIgQ2xvdWQgU3RvcmFnZS0tPjxnIGlkPSJjbHVzdGVyX0Nsb3VkIFN0b3JhZ2UiPjxwb2x5Z29uIGZpbGw9Im5vbmUiIHBvaW50cz0iMTE4MSw0NzIsMTE5MSw0NjIsMTM5Myw0NjIsMTM5Myw2MTYsMTM4Myw2MjYsMTE4MSw2MjYsMTE4MSw0NzIiIHN0eWxlPSJzdHJva2U6IzE4MTgxODtzdHJva2Utd2lkdGg6MS4wOyIvPjxsaW5lIHN0eWxlPSJzdHJva2U6IzE4MTgxODtzdHJva2Utd2lkdGg6MS4wOyIgeDE9IjEzODMiIHgyPSIxMzkzIiB5MT0iNDcyIiB5Mj0iNDYyIi8+PGxpbmUgc3R5bGU9InN0cm9rZTojMTgxODE4O3N0cm9rZS13aWR0aDoxLjA7IiB4MT0iMTE4MSIgeDI9IjEzODMiIHkxPSI0NzIiIHkyPSI0NzIiLz48bGluZSBzdHlsZT0ic3Ryb2tlOiMxODE4MTg7c3Ryb2tlLXdpZHRoOjEuMDsiIHgxPSIxMzgzIiB4Mj0iMTM4MyIgeTE9IjQ3MiIgeTI9IjYyNiIvPjx0ZXh0IGZpbGw9IiMwMDAwMDAiIGZvbnQtZmFtaWx5PSJzYW5zLXNlcmlmIiBmb250LXNpemU9IjE0IiBmb250LXdlaWdodD0iYm9sZCIgbGVuZ3RoQWRqdXN0PSJzcGFjaW5nIiB0ZXh0TGVuZ3RoPSI5MSIgeD0iMTIzNy41IiB5PSI0ODguMjM0NCI+Q2xvdWQgU3RvcmFnZTwvdGV4dD48L2c+PCEtLWNsdXN0ZXIgTXVzaWMgRmlsZXMtLT48ZyBpZD0iY2x1c3Rlcl9NdXNpYyBGaWxlcyI+PHJlY3QgZmlsbD0ibm9uZSIgaGVpZ2h0PSI5NCIgcng9IjIuNSIgcnk9IjIuNSIgc3R5bGU9InN0cm9rZTojMTgxODE4O3N0cm9rZS13aWR0aDoxLjA7IiB3aWR0aD0iMTY0IiB4PSIxMjA1IiB5PSI1MDgiLz48cmVjdCBmaWxsPSJub25lIiBoZWlnaHQ9IjEwIiBzdHlsZT0ic3Ryb2tlOiMxODE4MTg7c3Ryb2tlLXdpZHRoOjEuMDsiIHdpZHRoPSIxNSIgeD0iMTM0OSIgeT0iNTEzIi8+PHJlY3QgZmlsbD0ibm9uZSIgaGVpZ2h0PSIyIiBzdHlsZT0ic3Ryb2tlOiMxODE4MTg7c3Ryb2tlLXdpZHRoOjEuMDsiIHdpZHRoPSI0IiB4PSIxMzQ3IiB5PSI1MTUiLz48cmVjdCBmaWxsPSJub25lIiBoZWlnaHQ9IjIiIHN0eWxlPSJzdHJva2U6IzE4MTgxODtzdHJva2Utd2lkdGg6MS4wOyIgd2lkdGg9IjQiIHg9IjEzNDciIHk9IjUxOSIvPjx0ZXh0IGZpbGw9IiMwMDAwMDAiIGZvbnQtZmFtaWx5PSJzYW5zLXNlcmlmIiBmb250LXNpemU9IjE0IiBmb250LXdlaWdodD0iYm9sZCIgbGVuZ3RoQWRqdXN0PSJzcGFjaW5nIiB0ZXh0TGVuZ3RoPSI3NyIgeD0iMTI0OC41IiB5PSI1MzQuMjM0NCI+TXVzaWMgRmlsZXM8L3RleHQ+PC9nPjwhLS1jbHVzdGVyIFN0cmVhbWluZyBTZXJ2aWNlLS0+PGcgaWQ9ImNsdXN0ZXJfU3RyZWFtaW5nIFNlcnZpY2UiPjxwb2x5Z29uIGZpbGw9Im5vbmUiIHBvaW50cz0iMTI0NywyMzYsMTI1NywyMjYsMTUyNCwyMjYsMTUyNCw0MTIsMTUxNCw0MjIsMTI0Nyw0MjIsMTI0NywyMzYiIHN0eWxlPSJzdHJva2U6IzE4MTgxODtzdHJva2Utd2lkdGg6MS4wOyIvPjxsaW5lIHN0eWxlPSJzdHJva2U6IzE4MTgxODtzdHJva2Utd2lkdGg6MS4wOyIgeDE9IjE1MTQiIHgyPSIxNTI0IiB5MT0iMjM2IiB5Mj0iMjI2Ii8+PGxpbmUgc3R5bGU9InN0cm9rZTojMTgxODE4O3N0cm9rZS13aWR0aDoxLjA7IiB4MT0iMTI0NyIgeDI9IjE1MTQiIHkxPSIyMzYiIHkyPSIyMzYiLz48bGluZSBzdHlsZT0ic3Ryb2tlOiMxODE4MTg7c3Ryb2tlLXdpZHRoOjEuMDsiIHgxPSIxNTE0IiB4Mj0iMTUxNCIgeTE9IjIzNiIgeTI9IjQyMiIvPjx0ZXh0IGZpbGw9IiMwMDAwMDAiIGZvbnQtZmFtaWx5PSJzYW5zLXNlcmlmIiBmb250LXNpemU9IjE0IiBmb250LXdlaWdodD0iYm9sZCIgbGVuZ3RoQWRqdXN0PSJzcGFjaW5nIiB0ZXh0TGVuZ3RoPSIxMjAiIHg9IjEzMjEuNSIgeT0iMjUyLjIzNDQiPlN0cmVhbWluZyBTZXJ2aWNlPC90ZXh0PjwvZz48IS0tY2x1c3RlciBTdHJlYW1pbmcgU2VydmVyLS0+PGcgaWQ9ImNsdXN0ZXJfU3RyZWFtaW5nIFNlcnZlciI+PHJlY3QgZmlsbD0ibm9uZSIgaGVpZ2h0PSIxMTAiIHJ4PSIyLjUiIHJ5PSIyLjUiIHN0eWxlPSJzdHJva2U6IzE4MTgxODtzdHJva2Utd2lkdGg6MS4wOyIgd2lkdGg9IjIxMyIgeD0iMTI3OSIgeT0iMjgwIi8+PHJlY3QgZmlsbD0ibm9uZSIgaGVpZ2h0PSIxMCIgc3R5bGU9InN0cm9rZTojMTgxODE4O3N0cm9rZS13aWR0aDoxLjA7IiB3aWR0aD0iMTUiIHg9IjE0NzIiIHk9IjI4NSIvPjxyZWN0IGZpbGw9Im5vbmUiIGhlaWdodD0iMiIgc3R5bGU9InN0cm9rZTojMTgxODE4O3N0cm9rZS13aWR0aDoxLjA7IiB3aWR0aD0iNCIgeD0iMTQ3MCIgeT0iMjg3Ii8+PHJlY3QgZmlsbD0ibm9uZSIgaGVpZ2h0PSIyIiBzdHlsZT0ic3Ryb2tlOiMxODE4MTg7c3Ryb2tlLXdpZHRoOjEuMDsiIHdpZHRoPSI0IiB4PSIxNDcwIiB5PSIyOTEiLz48dGV4dCBmaWxsPSIjMDAwMDAwIiBmb250LWZhbWlseT0ic2Fucy1zZXJpZiIgZm9udC1zaXplPSIxNCIgZm9udC13ZWlnaHQ9ImJvbGQiIGxlbmd0aEFkanVzdD0ic3BhY2luZyIgdGV4dExlbmd0aD0iMTEzIiB4PSIxMzI5IiB5PSIzMDYuMjM0NCI+U3RyZWFtaW5nIFNlcnZlcjwvdGV4dD48L2c+PCEtLWNsdXN0ZXIgTm90aWZpY2F0aW9uIFNlcnZpY2UtLT48ZyBpZD0iY2x1c3Rlcl9Ob3RpZmljYXRpb24gU2VydmljZSI+PHBvbHlnb24gZmlsbD0ibm9uZSIgcG9pbnRzPSIxNiwxNiwyNiw2LDUyMiw2LDUyMiwxOTIsNTEyLDIwMiwxNiwyMDIsMTYsMTYiIHN0eWxlPSJzdHJva2U6IzE4MTgxODtzdHJva2Utd2lkdGg6MS4wOyIvPjxsaW5lIHN0eWxlPSJzdHJva2U6IzE4MTgxODtzdHJva2Utd2lkdGg6MS4wOyIgeDE9IjUxMiIgeDI9IjUyMiIgeTE9IjE2IiB5Mj0iNiIvPjxsaW5lIHN0eWxlPSJzdHJva2U6IzE4MTgxODtzdHJva2Utd2lkdGg6MS4wOyIgeDE9IjE2IiB4Mj0iNTEyIiB5MT0iMTYiIHkyPSIxNiIvPjxsaW5lIHN0eWxlPSJzdHJva2U6IzE4MTgxODtzdHJva2Utd2lkdGg6MS4wOyIgeDE9IjUxMiIgeDI9IjUxMiIgeTE9IjE2IiB5Mj0iMjAyIi8+PHRleHQgZmlsbD0iIzAwMDAwMCIgZm9udC1mYW1pbHk9InNhbnMtc2VyaWYiIGZvbnQtc2l6ZT0iMTQiIGZvbnQtd2VpZ2h0PSJib2xkIiBsZW5ndGhBZGp1c3Q9InNwYWNpbmciIHRleHRMZW5ndGg9IjE0MCIgeD0iMTk1IiB5PSIzMi4yMzQ0Ij5Ob3RpZmljYXRpb24gU2VydmljZTwvdGV4dD48L2c+PCEtLWNsdXN0ZXIgTm90aWZpY2F0aW9uIFN5c3RlbS0tPjxnIGlkPSJjbHVzdGVyX05vdGlmaWNhdGlvbiBTeXN0ZW0iPjxyZWN0IGZpbGw9Im5vbmUiIGhlaWdodD0iMTEwIiByeD0iMi41IiByeT0iMi41IiBzdHlsZT0ic3Ryb2tlOiMxODE4MTg7c3Ryb2tlLXdpZHRoOjEuMDsiIHdpZHRoPSI0NDIiIHg9IjQ4IiB5PSI2MCIvPjxyZWN0IGZpbGw9Im5vbmUiIGhlaWdodD0iMTAiIHN0eWxlPSJzdHJva2U6IzE4MTgxODtzdHJva2Utd2lkdGg6MS4wOyIgd2lkdGg9IjE1IiB4PSI0NzAiIHk9IjY1Ii8+PHJlY3QgZmlsbD0ibm9uZSIgaGVpZ2h0PSIyIiBzdHlsZT0ic3Ryb2tlOiMxODE4MTg7c3Ryb2tlLXdpZHRoOjEuMDsiIHdpZHRoPSI0IiB4PSI0NjgiIHk9IjY3Ii8+PHJlY3QgZmlsbD0ibm9uZSIgaGVpZ2h0PSIyIiBzdHlsZT0ic3Ryb2tlOiMxODE4MTg7c3Ryb2tlLXdpZHRoOjEuMDsiIHdpZHRoPSI0IiB4PSI0NjgiIHk9IjcxIi8+PHRleHQgZmlsbD0iIzAwMDAwMCIgZm9udC1mYW1pbHk9InNhbnMtc2VyaWYiIGZvbnQtc2l6ZT0iMTQiIGZvbnQtd2VpZ2h0PSJib2xkIiBsZW5ndGhBZGp1c3Q9InNwYWNpbmciIHRleHRMZW5ndGg9IjEzNCIgeD0iMjAyIiB5PSI4Ni4yMzQ0Ij5Ob3RpZmljYXRpb24gU3lzdGVtPC90ZXh0PjwvZz48IS0tZW50aXR5IFVzZXIgIEludGVyZmFjZS0tPjxnIGlkPSJlbGVtX1VzZXIgIEludGVyZmFjZSI+PHJlY3QgZmlsbD0iI0YxRjFGMSIgaGVpZ2h0PSI0NC45ODQ0IiByeD0iMi41IiByeT0iMi41IiBzdHlsZT0ic3Ryb2tlOiMxODE4MTg7c3Ryb2tlLXdpZHRoOjAuNTsiIHdpZHRoPSIxNDUiIHg9Ijc3My41IiB5PSIxMDEiLz48cmVjdCBmaWxsPSIjRjFGMUYxIiBoZWlnaHQ9IjEwIiBzdHlsZT0ic3Ryb2tlOiMxODE4MTg7c3Ryb2tlLXdpZHRoOjAuNTsiIHdpZHRoPSIxNSIgeD0iODk4LjUiIHk9IjEwNiIvPjxyZWN0IGZpbGw9IiNGMUYxRjEiIGhlaWdodD0iMiIgc3R5bGU9InN0cm9rZTojMTgxODE4O3N0cm9rZS13aWR0aDowLjU7IiB3aWR0aD0iNCIgeD0iODk2LjUiIHk9IjEwOCIvPjxyZWN0IGZpbGw9IiNGMUYxRjEiIGhlaWdodD0iMiIgc3R5bGU9InN0cm9rZTojMTgxODE4O3N0cm9rZS13aWR0aDowLjU7IiB3aWR0aD0iNCIgeD0iODk2LjUiIHk9IjExMiIvPjx0ZXh0IGZpbGw9IiMwMDAwMDAiIGZvbnQtZmFtaWx5PSJzYW5zLXNlcmlmIiBmb250LXNpemU9IjE0IiBsZW5ndGhBZGp1c3Q9InNwYWNpbmciIHRleHRMZW5ndGg9IjEwNSIgeD0iNzg4LjUiIHk9IjEzNC4yMzQ0Ij5Vc2VyICBJbnRlcmZhY2U8L3RleHQ+PC9nPjwhLS1lbnRpdHkgQXVkaW8gUGxheWVyLS0+PGcgaWQ9ImVsZW1fQXVkaW8gUGxheWVyIj48cmVjdCBmaWxsPSIjRjFGMUYxIiBoZWlnaHQ9IjQ0Ljk4NDQiIHJ4PSIyLjUiIHJ5PSIyLjUiIHN0eWxlPSJzdHJva2U6IzE4MTgxODtzdHJva2Utd2lkdGg6MC41OyIgd2lkdGg9IjEyNCIgeD0iOTU0IiB5PSIxMDEiLz48cmVjdCBmaWxsPSIjRjFGMUYxIiBoZWlnaHQ9IjEwIiBzdHlsZT0ic3Ryb2tlOiMxODE4MTg7c3Ryb2tlLXdpZHRoOjAuNTsiIHdpZHRoPSIxNSIgeD0iMTA1OCIgeT0iMTA2Ii8+PHJlY3QgZmlsbD0iI0YxRjFGMSIgaGVpZ2h0PSIyIiBzdHlsZT0ic3Ryb2tlOiMxODE4MTg7c3Ryb2tlLXdpZHRoOjAuNTsiIHdpZHRoPSI0IiB4PSIxMDU2IiB5PSIxMDgiLz48cmVjdCBmaWxsPSIjRjFGMUYxIiBoZWlnaHQ9IjIiIHN0eWxlPSJzdHJva2U6IzE4MTgxODtzdHJva2Utd2lkdGg6MC41OyIgd2lkdGg9IjQiIHg9IjEwNTYiIHk9IjExMiIvPjx0ZXh0IGZpbGw9IiMwMDAwMDAiIGZvbnQtZmFtaWx5PSJzYW5zLXNlcmlmIiBmb250LXNpemU9IjE0IiBsZW5ndGhBZGp1c3Q9InNwYWNpbmciIHRleHRMZW5ndGg9Ijg0IiB4PSI5NjkiIHk9IjEzNC4yMzQ0Ij5BdWRpbyBQbGF5ZXI8L3RleHQ+PC9nPjwhLS1lbnRpdHkgUGxheWxpc3QgTWFuYWdlci0tPjxnIGlkPSJlbGVtX1BsYXlsaXN0IE1hbmFnZXIiPjxyZWN0IGZpbGw9IiNGMUYxRjEiIGhlaWdodD0iNDQuOTg0NCIgcng9IjIuNSIgcnk9IjIuNSIgc3R5bGU9InN0cm9rZTojMTgxODE4O3N0cm9rZS13aWR0aDowLjU7IiB3aWR0aD0iMTUyIiB4PSIxMTEzIiB5PSIxMDEiLz48cmVjdCBmaWxsPSIjRjFGMUYxIiBoZWlnaHQ9IjEwIiBzdHlsZT0ic3Ryb2tlOiMxODE4MTg7c3Ryb2tlLXdpZHRoOjAuNTsiIHdpZHRoPSIxNSIgeD0iMTI0NSIgeT0iMTA2Ii8+PHJlY3QgZmlsbD0iI0YxRjFGMSIgaGVpZ2h0PSIyIiBzdHlsZT0ic3Ryb2tlOiMxODE4MTg7c3Ryb2tlLXdpZHRoOjAuNTsiIHdpZHRoPSI0IiB4PSIxMjQzIiB5PSIxMDgiLz48cmVjdCBmaWxsPSIjRjFGMUYxIiBoZWlnaHQ9IjIiIHN0eWxlPSJzdHJva2U6IzE4MTgxODtzdHJva2Utd2lkdGg6MC41OyIgd2lkdGg9IjQiIHg9IjEyNDMiIHk9IjExMiIvPjx0ZXh0IGZpbGw9IiMwMDAwMDAiIGZvbnQtZmFtaWx5PSJzYW5zLXNlcmlmIiBmb250LXNpemU9IjE0IiBsZW5ndGhBZGp1c3Q9InNwYWNpbmciIHRleHRMZW5ndGg9IjExMiIgeD0iMTEyOCIgeT0iMTM0LjIzNDQiPlBsYXlsaXN0IE1hbmFnZXI8L3RleHQ+PC9nPjwhLS1lbnRpdHkgU2V0dGluZ3MgTWFuYWdlci0tPjxnIGlkPSJlbGVtX1NldHRpbmdzIE1hbmFnZXIiPjxyZWN0IGZpbGw9IiNGMUYxRjEiIGhlaWdodD0iNDQuOTg0NCIgcng9IjIuNSIgcnk9IjIuNSIgc3R5bGU9InN0cm9rZTojMTgxODE4O3N0cm9rZS13aWR0aDowLjU7IiB3aWR0aD0iMTUyIiB4PSI1ODYiIHk9IjEwMSIvPjxyZWN0IGZpbGw9IiNGMUYxRjEiIGhlaWdodD0iMTAiIHN0eWxlPSJzdHJva2U6IzE4MTgxODtzdHJva2Utd2lkdGg6MC41OyIgd2lkdGg9IjE1IiB4PSI3MTgiIHk9IjEwNiIvPjxyZWN0IGZpbGw9IiNGMUYxRjEiIGhlaWdodD0iMiIgc3R5bGU9InN0cm9rZTojMTgxODE4O3N0cm9rZS13aWR0aDowLjU7IiB3aWR0aD0iNCIgeD0iNzE2IiB5PSIxMDgiLz48cmVjdCBmaWxsPSIjRjFGMUYxIiBoZWlnaHQ9IjIiIHN0eWxlPSJzdHJva2U6IzE4MTgxODtzdHJva2Utd2lkdGg6MC41OyIgd2lkdGg9IjQiIHg9IjcxNiIgeT0iMTEyIi8+PHRleHQgZmlsbD0iIzAwMDAwMCIgZm9udC1mYW1pbHk9InNhbnMtc2VyaWYiIGZvbnQtc2l6ZT0iMTQiIGxlbmd0aEFkanVzdD0ic3BhY2luZyIgdGV4dExlbmd0aD0iMTEyIiB4PSI2MDEiIHk9IjEzNC4yMzQ0Ij5TZXR0aW5ncyBNYW5hZ2VyPC90ZXh0PjwvZz48IS0tZW50aXR5IEF1dGhlbnRpY2F0aW9uIFNlcnZpY2UtLT48ZyBpZD0iZWxlbV9BdXRoZW50aWNhdGlvbiBTZXJ2aWNlIj48cmVjdCBmaWxsPSIjRjFGMUYxIiBoZWlnaHQ9IjQ0Ljk4NDQiIHJ4PSIyLjUiIHJ5PSIyLjUiIHN0eWxlPSJzdHJva2U6IzE4MTgxODtzdHJva2Utd2lkdGg6MC41OyIgd2lkdGg9IjE5NCIgeD0iNDgxIiB5PSIzMjEiLz48cmVjdCBmaWxsPSIjRjFGMUYxIiBoZWlnaHQ9IjEwIiBzdHlsZT0ic3Ryb2tlOiMxODE4MTg7c3Ryb2tlLXdpZHRoOjAuNTsiIHdpZHRoPSIxNSIgeD0iNjU1IiB5PSIzMjYiLz48cmVjdCBmaWxsPSIjRjFGMUYxIiBoZWlnaHQ9IjIiIHN0eWxlPSJzdHJva2U6IzE4MTgxODtzdHJva2Utd2lkdGg6MC41OyIgd2lkdGg9IjQiIHg9IjY1MyIgeT0iMzI4Ii8+PHJlY3QgZmlsbD0iI0YxRjFGMSIgaGVpZ2h0PSIyIiBzdHlsZT0ic3Ryb2tlOiMxODE4MTg7c3Ryb2tlLXdpZHRoOjAuNTsiIHdpZHRoPSI0IiB4PSI2NTMiIHk9IjMzMiIvPjx0ZXh0IGZpbGw9IiMwMDAwMDAiIGZvbnQtZmFtaWx5PSJzYW5zLXNlcmlmIiBmb250LXNpemU9IjE0IiBsZW5ndGhBZGp1c3Q9InNwYWNpbmciIHRleHRMZW5ndGg9IjE1NCIgeD0iNDk2IiB5PSIzNTQuMjM0NCI+QXV0aGVudGljYXRpb24gU2VydmljZTwvdGV4dD48L2c+PCEtLWVudGl0eSBVc2VyICBQcm9maWxlIFNlcnZpY2UtLT48ZyBpZD0iZWxlbV9Vc2VyICBQcm9maWxlIFNlcnZpY2UiPjxyZWN0IGZpbGw9IiNGMUYxRjEiIGhlaWdodD0iNDQuOTg0NCIgcng9IjIuNSIgcnk9IjIuNSIgc3R5bGU9InN0cm9rZTojMTgxODE4O3N0cm9rZS13aWR0aDowLjU7IiB3aWR0aD0iMTg3IiB4PSIyNTguNSIgeT0iMzIxIi8+PHJlY3QgZmlsbD0iI0YxRjFGMSIgaGVpZ2h0PSIxMCIgc3R5bGU9InN0cm9rZTojMTgxODE4O3N0cm9rZS13aWR0aDowLjU7IiB3aWR0aD0iMTUiIHg9IjQyNS41IiB5PSIzMjYiLz48cmVjdCBmaWxsPSIjRjFGMUYxIiBoZWlnaHQ9IjIiIHN0eWxlPSJzdHJva2U6IzE4MTgxODtzdHJva2Utd2lkdGg6MC41OyIgd2lkdGg9IjQiIHg9IjQyMy41IiB5PSIzMjgiLz48cmVjdCBmaWxsPSIjRjFGMUYxIiBoZWlnaHQ9IjIiIHN0eWxlPSJzdHJva2U6IzE4MTgxODtzdHJva2Utd2lkdGg6MC41OyIgd2lkdGg9IjQiIHg9IjQyMy41IiB5PSIzMzIiLz48dGV4dCBmaWxsPSIjMDAwMDAwIiBmb250LWZhbWlseT0ic2Fucy1zZXJpZiIgZm9udC1zaXplPSIxNCIgbGVuZ3RoQWRqdXN0PSJzcGFjaW5nIiB0ZXh0TGVuZ3RoPSIxNDciIHg9IjI3My41IiB5PSIzNTQuMjM0NCI+VXNlciAgUHJvZmlsZSBTZXJ2aWNlPC90ZXh0PjwvZz48IS0tZW50aXR5IFBsYXlsaXN0IE1hbmFnZW1lbnQtLT48ZyBpZD0iZWxlbV9QbGF5bGlzdCBNYW5hZ2VtZW50Ij48cmVjdCBmaWxsPSIjRjFGMUYxIiBoZWlnaHQ9IjQ0Ljk4NDQiIHJ4PSIyLjUiIHJ5PSIyLjUiIHN0eWxlPSJzdHJva2U6IzE4MTgxODtzdHJva2Utd2lkdGg6MC41OyIgd2lkdGg9IjE3NCIgeD0iOTkzIiB5PSIzMjEiLz48cmVjdCBmaWxsPSIjRjFGMUYxIiBoZWlnaHQ9IjEwIiBzdHlsZT0ic3Ryb2tlOiMxODE4MTg7c3Ryb2tlLXdpZHRoOjAuNTsiIHdpZHRoPSIxNSIgeD0iMTE0NyIgeT0iMzI2Ii8+PHJlY3QgZmlsbD0iI0YxRjFGMSIgaGVpZ2h0PSIyIiBzdHlsZT0ic3Ryb2tlOiMxODE4MTg7c3Ryb2tlLXdpZHRoOjAuNTsiIHdpZHRoPSI0IiB4PSIxMTQ1IiB5PSIzMjgiLz48cmVjdCBmaWxsPSIjRjFGMUYxIiBoZWlnaHQ9IjIiIHN0eWxlPSJzdHJva2U6IzE4MTgxODtzdHJva2Utd2lkdGg6MC41OyIgd2lkdGg9IjQiIHg9IjExNDUiIHk9IjMzMiIvPjx0ZXh0IGZpbGw9IiMwMDAwMDAiIGZvbnQtZmFtaWx5PSJzYW5zLXNlcmlmIiBmb250LXNpemU9IjE0IiBsZW5ndGhBZGp1c3Q9InNwYWNpbmciIHRleHRMZW5ndGg9IjEzNCIgeD0iMTAwOCIgeT0iMzU0LjIzNDQiPlBsYXlsaXN0IE1hbmFnZW1lbnQ8L3RleHQ+PC9nPjwhLS1lbnRpdHkgU29uZyBSZWNvbW1lbmRhdGlvbi0tPjxnIGlkPSJlbGVtX1NvbmcgUmVjb21tZW5kYXRpb24iPjxyZWN0IGZpbGw9IiNGMUYxRjEiIGhlaWdodD0iNDQuOTg0NCIgcng9IjIuNSIgcnk9IjIuNSIgc3R5bGU9InN0cm9rZTojMTgxODE4O3N0cm9rZS13aWR0aDowLjU7IiB3aWR0aD0iMTc1IiB4PSI3ODIuNSIgeT0iMzIxIi8+PHJlY3QgZmlsbD0iI0YxRjFGMSIgaGVpZ2h0PSIxMCIgc3R5bGU9InN0cm9rZTojMTgxODE4O3N0cm9rZS13aWR0aDowLjU7IiB3aWR0aD0iMTUiIHg9IjkzNy41IiB5PSIzMjYiLz48cmVjdCBmaWxsPSIjRjFGMUYxIiBoZWlnaHQ9IjIiIHN0eWxlPSJzdHJva2U6IzE4MTgxODtzdHJva2Utd2lkdGg6MC41OyIgd2lkdGg9IjQiIHg9IjkzNS41IiB5PSIzMjgiLz48cmVjdCBmaWxsPSIjRjFGMUYxIiBoZWlnaHQ9IjIiIHN0eWxlPSJzdHJva2U6IzE4MTgxODtzdHJva2Utd2lkdGg6MC41OyIgd2lkdGg9IjQiIHg9IjkzNS41IiB5PSIzMzIiLz48dGV4dCBmaWxsPSIjMDAwMDAwIiBmb250LWZhbWlseT0ic2Fucy1zZXJpZiIgZm9udC1zaXplPSIxNCIgbGVuZ3RoQWRqdXN0PSJzcGFjaW5nIiB0ZXh0TGVuZ3RoPSIxMzUiIHg9Ijc5Ny41IiB5PSIzNTQuMjM0NCI+U29uZyBSZWNvbW1lbmRhdGlvbjwvdGV4dD48L2c+PCEtLWVudGl0eSBVc2VyICBEYXRhYmFzZS0tPjxnIGlkPSJlbGVtX1VzZXIgIERhdGFiYXNlIj48cmVjdCBmaWxsPSIjRjFGMUYxIiBoZWlnaHQ9IjQ0Ljk4NDQiIHJ4PSIyLjUiIHJ5PSIyLjUiIHN0eWxlPSJzdHJva2U6IzE4MTgxODtzdHJva2Utd2lkdGg6MC41OyIgd2lkdGg9IjEzOCIgeD0iNTE0IiB5PSI1NDEiLz48cmVjdCBmaWxsPSIjRjFGMUYxIiBoZWlnaHQ9IjEwIiBzdHlsZT0ic3Ryb2tlOiMxODE4MTg7c3Ryb2tlLXdpZHRoOjAuNTsiIHdpZHRoPSIxNSIgeD0iNjMyIiB5PSI1NDYiLz48cmVjdCBmaWxsPSIjRjFGMUYxIiBoZWlnaHQ9IjIiIHN0eWxlPSJzdHJva2U6IzE4MTgxODtzdHJva2Utd2lkdGg6MC41OyIgd2lkdGg9IjQiIHg9IjYzMCIgeT0iNTQ4Ii8+PHJlY3QgZmlsbD0iI0YxRjFGMSIgaGVpZ2h0PSIyIiBzdHlsZT0ic3Ryb2tlOiMxODE4MTg7c3Ryb2tlLXdpZHRoOjAuNTsiIHdpZHRoPSI0IiB4PSI2MzAiIHk9IjU1MiIvPjx0ZXh0IGZpbGw9IiMwMDAwMDAiIGZvbnQtZmFtaWx5PSJzYW5zLXNlcmlmIiBmb250LXNpemU9IjE0IiBsZW5ndGhBZGp1c3Q9InNwYWNpbmciIHRleHRMZW5ndGg9Ijk4IiB4PSI1MjkiIHk9IjU3NC4yMzQ0Ij5Vc2VyICBEYXRhYmFzZTwvdGV4dD48L2c+PCEtLWVudGl0eSBQbGF5bGlzdCBEYXRhYmFzZS0tPjxnIGlkPSJlbGVtX1BsYXlsaXN0IERhdGFiYXNlIj48cmVjdCBmaWxsPSIjRjFGMUYxIiBoZWlnaHQ9IjQ0Ljk4NDQiIHJ4PSIyLjUiIHJ5PSIyLjUiIHN0eWxlPSJzdHJva2U6IzE4MTgxODtzdHJva2Utd2lkdGg6MC41OyIgd2lkdGg9IjE1OSIgeD0iNjg3LjUiIHk9IjU0MSIvPjxyZWN0IGZpbGw9IiNGMUYxRjEiIGhlaWdodD0iMTAiIHN0eWxlPSJzdHJva2U6IzE4MTgxODtzdHJva2Utd2lkdGg6MC41OyIgd2lkdGg9IjE1IiB4PSI4MjYuNSIgeT0iNTQ2Ii8+PHJlY3QgZmlsbD0iI0YxRjFGMSIgaGVpZ2h0PSIyIiBzdHlsZT0ic3Ryb2tlOiMxODE4MTg7c3Ryb2tlLXdpZHRoOjAuNTsiIHdpZHRoPSI0IiB4PSI4MjQuNSIgeT0iNTQ4Ii8+PHJlY3QgZmlsbD0iI0YxRjFGMSIgaGVpZ2h0PSIyIiBzdHlsZT0ic3Ryb2tlOiMxODE4MTg7c3Ryb2tlLXdpZHRoOjAuNTsiIHdpZHRoPSI0IiB4PSI4MjQuNSIgeT0iNTUyIi8+PHRleHQgZmlsbD0iIzAwMDAwMCIgZm9udC1mYW1pbHk9InNhbnMtc2VyaWYiIGZvbnQtc2l6ZT0iMTQiIGxlbmd0aEFkanVzdD0ic3BhY2luZyIgdGV4dExlbmd0aD0iMTE5IiB4PSI3MDIuNSIgeT0iNTc0LjIzNDQiPlBsYXlsaXN0IERhdGFiYXNlPC90ZXh0PjwvZz48IS0tZW50aXR5IFNvbmcgTWV0YWRhdGEgRGF0YWJhc2UtLT48ZyBpZD0iZWxlbV9Tb25nIE1ldGFkYXRhIERhdGFiYXNlIj48cmVjdCBmaWxsPSIjRjFGMUYxIiBoZWlnaHQ9IjQ0Ljk4NDQiIHJ4PSIyLjUiIHJ5PSIyLjUiIHN0eWxlPSJzdHJva2U6IzE4MTgxODtzdHJva2Utd2lkdGg6MC41OyIgd2lkdGg9IjE5NCIgeD0iNTE0IiB5PSI2NDYiLz48cmVjdCBmaWxsPSIjRjFGMUYxIiBoZWlnaHQ9IjEwIiBzdHlsZT0ic3Ryb2tlOiMxODE4MTg7c3Ryb2tlLXdpZHRoOjAuNTsiIHdpZHRoPSIxNSIgeD0iNjg4IiB5PSI2NTEiLz48cmVjdCBmaWxsPSIjRjFGMUYxIiBoZWlnaHQ9IjIiIHN0eWxlPSJzdHJva2U6IzE4MTgxODtzdHJva2Utd2lkdGg6MC41OyIgd2lkdGg9IjQiIHg9IjY4NiIgeT0iNjUzIi8+PHJlY3QgZmlsbD0iI0YxRjFGMSIgaGVpZ2h0PSIyIiBzdHlsZT0ic3Ryb2tlOiMxODE4MTg7c3Ryb2tlLXdpZHRoOjAuNTsiIHdpZHRoPSI0IiB4PSI2ODYiIHk9IjY1NyIvPjx0ZXh0IGZpbGw9IiMwMDAwMDAiIGZvbnQtZmFtaWx5PSJzYW5zLXNlcmlmIiBmb250LXNpemU9IjE0IiBsZW5ndGhBZGp1c3Q9InNwYWNpbmciIHRleHRMZW5ndGg9IjE1NCIgeD0iNTI5IiB5PSI2NzkuMjM0NCI+U29uZyBNZXRhZGF0YSBEYXRhYmFzZTwvdGV4dD48L2c+PCEtLWVudGl0eSBNdXNpYyBMaWJyYXJ5LS0+PGcgaWQ9ImVsZW1fTXVzaWMgTGlicmFyeSI+PHJlY3QgZmlsbD0iI0YxRjFGMSIgaGVpZ2h0PSI0NC45ODQ0IiByeD0iMi41IiByeT0iMi41IiBzdHlsZT0ic3Ryb2tlOiMxODE4MTg7c3Ryb2tlLXdpZHRoOjAuNTsiIHdpZHRoPSIxMzEiIHg9IjEyMjEuNSIgeT0iNTQxIi8+PHJlY3QgZmlsbD0iI0YxRjFGMSIgaGVpZ2h0PSIxMCIgc3R5bGU9InN0cm9rZTojMTgxODE4O3N0cm9rZS13aWR0aDowLjU7IiB3aWR0aD0iMTUiIHg9IjEzMzIuNSIgeT0iNTQ2Ii8+PHJlY3QgZmlsbD0iI0YxRjFGMSIgaGVpZ2h0PSIyIiBzdHlsZT0ic3Ryb2tlOiMxODE4MTg7c3Ryb2tlLXdpZHRoOjAuNTsiIHdpZHRoPSI0IiB4PSIxMzMwLjUiIHk9IjU0OCIvPjxyZWN0IGZpbGw9IiNGMUYxRjEiIGhlaWdodD0iMiIgc3R5bGU9InN0cm9rZTojMTgxODE4O3N0cm9rZS13aWR0aDowLjU7IiB3aWR0aD0iNCIgeD0iMTMzMC41IiB5PSI1NTIiLz48dGV4dCBmaWxsPSIjMDAwMDAwIiBmb250LWZhbWlseT0ic2Fucy1zZXJpZiIgZm9udC1zaXplPSIxNCIgbGVuZ3RoQWRqdXN0PSJzcGFjaW5nIiB0ZXh0TGVuZ3RoPSI5MSIgeD0iMTIzNi41IiB5PSI1NzQuMjM0NCI+TXVzaWMgTGlicmFyeTwvdGV4dD48L2c+PCEtLWVudGl0eSBBdWRpbyBTdHJlYW1pbmctLT48ZyBpZD0iZWxlbV9BdWRpbyBTdHJlYW1pbmciPjxyZWN0IGZpbGw9IiNGMUYxRjEiIGhlaWdodD0iNDQuOTg0NCIgcng9IjIuNSIgcnk9IjIuNSIgc3R5bGU9InN0cm9rZTojMTgxODE4O3N0cm9rZS13aWR0aDowLjU7IiB3aWR0aD0iMTQ2IiB4PSIxMzIyIiB5PSIzMjEiLz48cmVjdCBmaWxsPSIjRjFGMUYxIiBoZWlnaHQ9IjEwIiBzdHlsZT0ic3Ryb2tlOiMxODE4MTg7c3Ryb2tlLXdpZHRoOjAuNTsiIHdpZHRoPSIxNSIgeD0iMTQ0OCIgeT0iMzI2Ii8+PHJlY3QgZmlsbD0iI0YxRjFGMSIgaGVpZ2h0PSIyIiBzdHlsZT0ic3Ryb2tlOiMxODE4MTg7c3Ryb2tlLXdpZHRoOjAuNTsiIHdpZHRoPSI0IiB4PSIxNDQ2IiB5PSIzMjgiLz48cmVjdCBmaWxsPSIjRjFGMUYxIiBoZWlnaHQ9IjIiIHN0eWxlPSJzdHJva2U6IzE4MTgxODtzdHJva2Utd2lkdGg6MC41OyIgd2lkdGg9IjQiIHg9IjE0NDYiIHk9IjMzMiIvPjx0ZXh0IGZpbGw9IiMwMDAwMDAiIGZvbnQtZmFtaWx5PSJzYW5zLXNlcmlmIiBmb250LXNpemU9IjE0IiBsZW5ndGhBZGp1c3Q9InNwYWNpbmciIHRleHRMZW5ndGg9IjEwNiIgeD0iMTMzNyIgeT0iMzU0LjIzNDQiPkF1ZGlvIFN0cmVhbWluZzwvdGV4dD48L2c+PCEtLWVudGl0eSBQdXNoIE5vdGlmaWNhdGlvbnMtLT48ZyBpZD0iZWxlbV9QdXNoIE5vdGlmaWNhdGlvbnMiPjxyZWN0IGZpbGw9IiNGMUYxRjEiIGhlaWdodD0iNDQuOTg0NCIgcng9IjIuNSIgcnk9IjIuNSIgc3R5bGU9InN0cm9rZTojMTgxODE4O3N0cm9rZS13aWR0aDowLjU7IiB3aWR0aD0iMTY2IiB4PSIzMDAiIHk9IjEwMSIvPjxyZWN0IGZpbGw9IiNGMUYxRjEiIGhlaWdodD0iMTAiIHN0eWxlPSJzdHJva2U6IzE4MTgxODtzdHJva2Utd2lkdGg6MC41OyIgd2lkdGg9IjE1IiB4PSI0NDYiIHk9IjEwNiIvPjxyZWN0IGZpbGw9IiNGMUYxRjEiIGhlaWdodD0iMiIgc3R5bGU9InN0cm9rZTojMTgxODE4O3N0cm9rZS13aWR0aDowLjU7IiB3aWR0aD0iNCIgeD0iNDQ0IiB5PSIxMDgiLz48cmVjdCBmaWxsPSIjRjFGMUYxIiBoZWlnaHQ9IjIiIHN0eWxlPSJzdHJva2U6IzE4MTgxODtzdHJva2Utd2lkdGg6MC41OyIgd2lkdGg9IjQiIHg9IjQ0NCIgeT0iMTEyIi8+PHRleHQgZmlsbD0iIzAwMDAwMCIgZm9udC1mYW1pbHk9InNhbnMtc2VyaWYiIGZvbnQtc2l6ZT0iMTQiIGxlbmd0aEFkanVzdD0ic3BhY2luZyIgdGV4dExlbmd0aD0iMTI2IiB4PSIzMTUiIHk9IjEzNC4yMzQ0Ij5QdXNoIE5vdGlmaWNhdGlvbnM8L3RleHQ+PC9nPjwhLS1lbnRpdHkgRW1haWwgTm90aWZpY2F0aW9ucy0tPjxnIGlkPSJlbGVtX0VtYWlsIE5vdGlmaWNhdGlvbnMiPjxyZWN0IGZpbGw9IiNGMUYxRjEiIGhlaWdodD0iNDQuOTg0NCIgcng9IjIuNSIgcnk9IjIuNSIgc3R5bGU9InN0cm9rZTojMTgxODE4O3N0cm9rZS13aWR0aDowLjU7IiB3aWR0aD0iMTc0IiB4PSI5MSIgeT0iMTAxIi8+PHJlY3QgZmlsbD0iI0YxRjFGMSIgaGVpZ2h0PSIxMCIgc3R5bGU9InN0cm9rZTojMTgxODE4O3N0cm9rZS13aWR0aDowLjU7IiB3aWR0aD0iMTUiIHg9IjI0NSIgeT0iMTA2Ii8+PHJlY3QgZmlsbD0iI0YxRjFGMSIgaGVpZ2h0PSIyIiBzdHlsZT0ic3Ryb2tlOiMxODE4MTg7c3Ryb2tlLXdpZHRoOjAuNTsiIHdpZHRoPSI0IiB4PSIyNDMiIHk9IjEwOCIvPjxyZWN0IGZpbGw9IiNGMUYxRjEiIGhlaWdodD0iMiIgc3R5bGU9InN0cm9rZTojMTgxODE4O3N0cm9rZS13aWR0aDowLjU7IiB3aWR0aD0iNCIgeD0iMjQzIiB5PSIxMTIiLz48dGV4dCBmaWxsPSIjMDAwMDAwIiBmb250LWZhbWlseT0ic2Fucy1zZXJpZiIgZm9udC1zaXplPSIxNCIgbGVuZ3RoQWRqdXN0PSJzcGFjaW5nIiB0ZXh0TGVuZ3RoPSIxMzQiIHg9IjEwNiIgeT0iMTM0LjIzNDQiPkVtYWlsIE5vdGlmaWNhdGlvbnM8L3RleHQ+PC9nPjwhLS1saW5rIFVzZXIgIEludGVyZmFjZSB0byBVc2VyICBTZXJ2aWNlLS0+PGcgaWQ9ImxpbmtfVXNlciAgSW50ZXJmYWNlX1VzZXIgIFNlcnZpY2UiPjxwYXRoIGQ9Ik04MzAuNzcsMTQ2LjA2IEM4MTQuNjYsMTY2LjgzIDc4Ny4xNSwxOTYuOTggNzU1LDIxMCBDNzI4LjYzLDIyMC42OCAyNjQuNTEsMTk5LjM4IDI0MywyMTggQzIzMi41NzI1LDIyNy4wMjc1IDIyNi4wNjYzLDIzOS4xNTE5IDIyMi4xODI3LDI1Mi4zMDIyIEMyMjAuMjQwOSwyNTguODc3MyAyMTguOTU0NywyNjUuNzA5IDIxOC4xNjE5LDI3Mi41MzgyIEMyMTcuOTYzNywyNzQuMjQ1NiAyMTcuNzk2NCwyNzUuOTUyNyAyMTcuNjU3MywyNzcuNjU1NyBDMjE3LjYyMjUsMjc4LjA4MTQgMjE3LjU4OTUsMjc4LjUwNjkgMjE3LjU1ODMsMjc4LjkzMjEgQzIxNy41NDI2LDI3OS4xNDQ3IDIxNy45NDM4LDI3My4zNzE2IDIxNy45MjksMjczLjU4NCAiIGZpbGw9Im5vbmUiIGlkPSJVc2VyICBJbnRlcmZhY2UtdG8tVXNlciAgU2VydmljZSIgc3R5bGU9InN0cm9rZTojMTgxODE4O3N0cm9rZS13aWR0aDoxLjA7Ii8+PHBvbHlnb24gZmlsbD0iIzE4MTgxOCIgcG9pbnRzPSIyMTcuNTEyNywyNzkuNTY5NiwyMjIuMTI3NSwyNzAuODY4OCwyMTcuODU5NiwyNzQuNTgxNiwyMTQuMTQ2OCwyNzAuMzEzNywyMTcuNTEyNywyNzkuNTY5NiIgc3R5bGU9InN0cm9rZTojMTgxODE4O3N0cm9rZS13aWR0aDoxLjA7Ii8+PC9nPjwhLS1saW5rIFVzZXIgIEludGVyZmFjZSB0byBQbGF5bGlzdCBTZXJ2aWNlLS0+PGcgaWQ9ImxpbmtfVXNlciAgSW50ZXJmYWNlX1BsYXlsaXN0IFNlcnZpY2UiPjxwYXRoIGQ9Ik04MjEuMiwxNDYuMTEgQzgwMi44NSwxNjMuNTggNzc4LjksMTg5Ljg0IDc2NiwyMTggQzc2MC4yNjI1LDIzMC41MjI1IDc1Ni4xOTgxLDI0NC40MjE5IDc1My4zMzA5LDI1OC4yNjIgQzc1MS44OTczLDI2NS4xODIxIDc1MC43NjMsMjcyLjA4NzQgNzQ5Ljg2ODYsMjc4Ljc5ODMgQzc0OS44NDA2LDI3OS4wMDgxIDc1MC41OTQsMjczLjI2ODYgNzUwLjU2NjUsMjczLjQ3OCAiIGZpbGw9Im5vbmUiIGlkPSJVc2VyICBJbnRlcmZhY2UtdG8tUGxheWxpc3QgU2VydmljZSIgc3R5bGU9InN0cm9rZTojMTgxODE4O3N0cm9rZS13aWR0aDoxLjA7Ii8+PHBvbHlnb24gZmlsbD0iIzE4MTgxOCIgcG9pbnRzPSI3NDkuNzg1NCwyNzkuNDI2OSw3NTQuOTIzLDI3MS4wMjQzLDc1MC40MzYzLDI3NC40Njk1LDc0Ni45OTExLDI2OS45ODI4LDc0OS43ODU0LDI3OS40MjY5IiBzdHlsZT0ic3Ryb2tlOiMxODE4MTg7c3Ryb2tlLXdpZHRoOjEuMDsiLz48L2c+PCEtLWxpbmsgVXNlciAgU2VydmljZSB0byBEYXRhYmFzZS0tPjxnIGlkPSJsaW5rX1VzZXIgIFNlcnZpY2VfRGF0YWJhc2UiPjxwYXRoIGQ9Ik0yMjYuNTUyMSwzOTAuMTM1NCBDMjI2LjU4MTYsMzkwLjI3ODIgMjI2LjYxMTMsMzkwLjQyMTEgMjI2LjY0MTMsMzkwLjU2NCBDMjI3LjU5OTMsMzk1LjEzNzYgMjI4Ljc5MDEsMzk5Ljc4NDggMjMwLjI2NzMsNDA0LjM2OCBDMjMzLjIyMTksNDEzLjUzNDQgMjM3LjMyMjUsNDIyLjQ0NSAyNDMsNDMwIEMyNzguNTcsNDc3LjMzIDMzNi4yOTc1LDUxMC4xNjc1IDM4NS43NTM3LDUzMS4zMTI1IEM0MTAuNDgxOSw1NDEuODg1IDQzMy4xNDIyLDU0OS41MzQ0IDQ0OS45MzExLDU1NC42MTA2IEM0NTguMzI1NSw1NTcuMTQ4OCA0NjUuMjUyMSw1NTkuMDQzNiA0NzAuMjM1NCw1NjAuMzM4OSBDNDcwLjM5MTIsNTYwLjM3OTQgNDY0LjczNjMsNTU4LjkxNjMgNDY0Ljg4ODIsNTU4Ljk1NTYgIiBmaWxsPSJub25lIiBpZD0iVXNlciAgU2VydmljZS10by1EYXRhYmFzZSIgc3R5bGU9InN0cm9rZTojMTgxODE4O3N0cm9rZS13aWR0aDoxLjA7Ii8+PHBvbHlnb24gZmlsbD0iIzE4MTgxOCIgcG9pbnRzPSI0NzAuNjk2OSw1NjAuNDU4Niw0NjIuOTg1OSw1NTQuMzMxNiw0NjUuODU2Myw1NTkuMjA2MSw0NjAuOTgxOSw1NjIuMDc2NSw0NzAuNjk2OSw1NjAuNDU4NiIgc3R5bGU9InN0cm9rZTojMTgxODE4O3N0cm9rZS13aWR0aDoxLjA7Ii8+PC9nPjwhLS1saW5rIFBsYXlsaXN0IFNlcnZpY2UgdG8gRGF0YWJhc2UtLT48ZyBpZD0ibGlua19QbGF5bGlzdCBTZXJ2aWNlX0RhdGFiYXNlIj48cGF0aCBkPSJNNzM4Ljk4NiwzNjcuMzc2NyBDNzM4Ljg3ODcsMzY3LjYzNDUgNzM4Ljc3MDMsMzY3Ljg5MzcgNzM4LjY2MDgsMzY4LjE1NDIgQzczOC40NDE3LDM2OC42NzUyIDczOC4yMTgxLDM2OS4yMDEyIDczNy45ODk5LDM2OS43MzIgQzczNy41MzM2LDM3MC43OTM2IDczNy4wNTkyLDM3MS44NzQxIDczNi41NjYzLDM3Mi45NzA0IEM3MzUuNTgwNywzNzUuMTYzMSA3MzQuNTIxNiwzNzcuNDE5NCA3MzMuMzg3NSwzNzkuNzE1IEM3MjQuMzE1LDM5OC4wOCA3MTAuNDQ1LDQxOC45NjUgNjkxLDQzMCBDNjcyLjMzLDQ0MC41OSA1MTMuOTksNDIzLjY4IDQ5OCw0MzggQzQ4Ny43NCw0NDcuMTkgNDgxLjM3OTQsNDU5LjM5NjkgNDc3LjYyMDIsNDcyLjU3OTIgQzQ3NS43NDA1LDQ3OS4xNzA0IDQ3NC41MTEzLDQ4Ni4wMDU0IDQ3My43NzAxLDQ5Mi44MjkyIEM0NzMuNTg0OCw0OTQuNTM1MSA0NzMuNDMwMSw0OTYuMjQwMyA0NzMuMzAzMyw0OTcuOTQwOSBDNDczLjI3MTYsNDk4LjM2NiA0NzMuMjQxNiw0OTguNzkwOCA0NzMuMjEzNCw0OTkuMjE1MyBDNDczLjE5OTIsNDk5LjQyNzUgNDczLjU2MDQsNDkzLjY1MTQgNDczLjU0NzEsNDkzLjg2MzUgIiBmaWxsPSJub25lIiBpZD0iUGxheWxpc3QgU2VydmljZS10by1EYXRhYmFzZSIgc3R5bGU9InN0cm9rZTojMTgxODE4O3N0cm9rZS13aWR0aDoxLjA7Ii8+PHBvbHlnb24gZmlsbD0iIzE4MTgxOCIgcG9pbnRzPSI0NzMuMTcyMyw0OTkuODUxOCw0NzcuNzI2Nyw0OTEuMTE5Miw0NzMuNDg0Niw0OTQuODYxNSw0NjkuNzQyMyw0OTAuNjE5NSw0NzMuMTcyMyw0OTkuODUxOCIgc3R5bGU9InN0cm9rZTojMTgxODE4O3N0cm9rZS13aWR0aDoxLjA7Ii8+PC9nPjwhLS1saW5rIFBsYXlsaXN0IE1hbmFnZXIgdG8gU3RyZWFtaW5nIFNlcnZlci0tPjxnIGlkPSJsaW5rX1BsYXlsaXN0IE1hbmFnZXJfU3RyZWFtaW5nIFNlcnZlciI+PHBhdGggZD0iTTExOTguNzUsMTQ2LjIgQzEyMTAuOTU1LDE3My4zNCAxMjMyLjUyNSwyMjEuMzE3NSAxMjUxLjI4MzgsMjYzLjA0NjMgQzEyNjAuNjYzMSwyODMuOTEwNiAxMjY5LjMzOTcsMzAzLjIxMjggMTI3NS43OTE0LDMxNy41NjcgQzEyNzYuNTk3OSwzMTkuMzYxMyAxMjc3LjM2OTYsMzIxLjA3ODMgMTI3OC4xMDM1LDMyMi43MTEzIEMxMjc4LjI4NywzMjMuMTE5NiAxMjc4LjQ2ODIsMzIzLjUyMjYgMTI3OC42NDY5LDMyMy45MjAzIEMxMjc4LjczNjMsMzI0LjExOTEgMTI3Ni4zNjU0LDMxOC44NDM5IDEyNzYuNDUzNSwzMTkuMDQwMSAiIGZpbGw9Im5vbmUiIGlkPSJQbGF5bGlzdCBNYW5hZ2VyLXRvLVN0cmVhbWluZyBTZXJ2ZXIiIHN0eWxlPSJzdHJva2U6IzE4MTgxODtzdHJva2Utd2lkdGg6MS4wOyIvPjxwb2x5Z29uIGZpbGw9IiMxODE4MTgiIHBvaW50cz0iMTI3OC45MTMyLDMyNC41MTI3LDEyNzguODcyMiwzMTQuNjY0LDEyNzYuODYzNSwzMTkuOTUyMiwxMjcxLjU3NTMsMzE3Ljk0MzUsMTI3OC45MTMyLDMyNC41MTI3IiBzdHlsZT0ic3Ryb2tlOiMxODE4MTg7c3Ryb2tlLXdpZHRoOjEuMDsiLz48L2c+PCEtLWxpbmsgU3RyZWFtaW5nIFNlcnZlciB0byBNdXNpYyBMaWJyYXJ5LS0+PGcgaWQ9ImxpbmtfU3RyZWFtaW5nIFNlcnZlcl9NdXNpYyBMaWJyYXJ5Ij48cGF0aCBkPSJNMTI4NywzOTAuNDQ3MSBDMTI4NywzOTAuNzI2OCAxMjg3LDM5MS4wMDczIDEyODcsMzkxLjI4ODYgQzEyODcsMzkyLjQxNCAxMjg3LDM5My41NTI3IDEyODcsMzk0LjcwMzkgQzEyODcsNDAzLjkxMzMgMTI4Nyw0MTMuOTIxOSAxMjg3LDQyNC4zMTI1IEMxMjg3LDQ2NS44NzUgMTI4Nyw1MDcuNTUgMTI4Nyw1MzQuNjQgIiBmaWxsPSJub25lIiBpZD0iU3RyZWFtaW5nIFNlcnZlci10by1NdXNpYyBMaWJyYXJ5IiBzdHlsZT0ic3Ryb2tlOiMxODE4MTg7c3Ryb2tlLXdpZHRoOjEuMDsiLz48cG9seWdvbiBmaWxsPSIjMTgxODE4IiBwb2ludHM9IjEyODcsNTQwLjY0LDEyOTEsNTMxLjY0LDEyODcsNTM1LjY0LDEyODMsNTMxLjY0LDEyODcsNTQwLjY0IiBzdHlsZT0ic3Ryb2tlOiMxODE4MTg7c3Ryb2tlLXdpZHRoOjEuMDsiLz48L2c+PCEtLWxpbmsgTm90aWZpY2F0aW9uIFN5c3RlbSB0byBVc2VyICBTZXJ2aWNlLS0+PGcgaWQ9ImxpbmtfTm90aWZpY2F0aW9uIFN5c3RlbV9Vc2VyICBTZXJ2aWNlIj48cGF0aCBkPSJNNjAuNzg3NiwxNzAuMzYyNyBDNjAuODQ3MSwxNzAuNjQ4MiA2MC45MDczLDE3MC45MzQyIDYwLjk2ODMsMTcxLjIyMDYgQzYxLjA5MDIsMTcxLjc5MzIgNjEuMjE1LDE3Mi4zNjczIDYxLjM0MywxNzIuOTQyNSBDNjEuNTk4OSwxNzQuMDkzIDYxLjg2NywxNzUuMjQ4MSA2Mi4xNDc5LDE3Ni40MDU5IEM2Mi43MDk3LDE3OC43MjE0IDYzLjMyMjgsMTgxLjA0NzggNjMuOTkxNywxODMuMzY5NCBDNjYuNjY3NSwxOTIuNjU1NiA3MC4yMzc1LDIwMS44NjUgNzUsMjEwIEM5Ni45NTUsMjQ3LjUgMTMzLjE1LDI4MC4xODUgMTY0LjI0ODgsMzAzLjcxIEMxNzkuNzk4MSwzMTUuNDcyNSAxOTQuMDczNCwzMjQuOTQ1IDIwNC42NTc3LDMzMS41ODQ0IEMyMDcuMzAzNywzMzMuMjQ0MiAyMDkuNzE5MSwzMzQuNzI3IDIxMS44NjYsMzM2LjAyNDIgQzIxMi45Mzk0LDMzNi42NzI4IDIwOC43ODY0LDMzNC4yMTIyIDIwOS43MjA5LDMzNC43NjY5ICIgZmlsbD0ibm9uZSIgaWQ9Ik5vdGlmaWNhdGlvbiBTeXN0ZW0tdG8tVXNlciAgU2VydmljZSIgc3R5bGU9InN0cm9rZTojMTgxODE4O3N0cm9rZS13aWR0aDoxLjA7Ii8+PHBvbHlnb24gZmlsbD0iIzE4MTgxOCIgcG9pbnRzPSIyMTQuODgwMywzMzcuODI5OCwyMDkuMTgzMSwzMjkuNzk1OSwyMTAuNTgwOCwzMzUuMjc3NCwyMDUuMDk5MywzMzYuNjc1MSwyMTQuODgwMywzMzcuODI5OCIgc3R5bGU9InN0cm9rZTojMTgxODE4O3N0cm9rZS13aWR0aDoxLjA7Ii8+PC9nPjwhLS1TUkM9W1RMRkJRaUNtNEJweEFxR2tGVUtOMlk1ZmVUMktLNUR3MjNkOHpZUFBhMktaaEdFWHZEeWhGLUg4aWdvUlRxUlFjUHNyTDFNbXJMT1dJNjh4azY0OUFfUU5DTmpBTEpUQVRsTkxsWkxPaWVGV1R6MWlxcEcySXF3ZWZBRHN2X1haQkNXLTk4NC15bjlFSnNKSkxnWjZ3cnd2QW1XcW5GUFN5YWkwdksyNHljOTJ3OTR6aWFwc1lkLVhPM2RlNi1ZNHQ0NTkxdGpzSFlMcWpQSEhsZ0VTT1hDN2hTdWU4Q0dWU1BqOVZ3ZkpQQXdzRHRuX0lieE9Eelo3QjUzck9jT01Udm51bUdxaS10SUNIMG1FSWVxeFdWTHd6YTNTUWs0SG1QRXE1UWdqTTR2QU1xa0JVXzlrSHNTMkpLRno0bWxEek50c1FhdVFVNnRaWldWZmxIbm9kakZtemNrWXAxZnlBUzlwYjdjWUhxWXg2dTh3WkJHckwtUUpaM1YxanZnWklBNnpaWFNSalhZZ0xzbkNEbGpQczdoendoQVJqY3cxNVVfVEg3SlYwLXNQdWxwNkNpRnpTMENaN2hqYnBhZTNDdWh1YzFYY3FrR19dLS0+PC9nPjwvc3ZnPg==;" vertex="1" parent="1">
            <mxGeometry x="-1350" y="2970" width="947.99" height="470" as="geometry" />
          </mxCell>
        </UserObject>
        <UserObject label="" plantUmlData="{&#xa;  &quot;data&quot;: &quot;@startuml\n[*] --&gt; Idle\n\nIdle --&gt; Playing : play()\nIdle --&gt; Stopped : stop()\n\nPlaying --&gt; Paused : pause()\nPlaying --&gt; Stopped : stop()\n\nPaused --&gt; Playing : play()\nPaused --&gt; Stopped : stop()\n\nStopped --&gt; Playing : play()\nStopped --&gt; Idle : idle()\n\n@enduml&quot;,&#xa;  &quot;format&quot;: &quot;svg&quot;&#xa;}" id="c7S_zqKtltET6JresFuN-17">
          <mxCell style="shape=image;noLabel=1;verticalAlign=top;aspect=fixed;imageAspect=0;image=data:image/svg+xml,PD94bWwgdmVyc2lvbj0iMS4wIiBlbmNvZGluZz0idXMtYXNjaWkiIHN0YW5kYWxvbmU9Im5vIj8+PHN2ZyB4bWxucz0iaHR0cDovL3d3dy53My5vcmcvMjAwMC9zdmciIHhtbG5zOnhsaW5rPSJodHRwOi8vd3d3LnczLm9yZy8xOTk5L3hsaW5rIiBjb250ZW50U3R5bGVUeXBlPSJ0ZXh0L2NzcyIgaGVpZ2h0PSI1MThweCIgcHJlc2VydmVBc3BlY3RSYXRpbz0ibm9uZSIgc3R5bGU9IndpZHRoOjM3OXB4O2hlaWdodDo1MThweDtiYWNrZ3JvdW5kOiNGRkZGRkY7IiB2ZXJzaW9uPSIxLjEiIHZpZXdCb3g9IjAgMCAzNzkgNTE4IiB3aWR0aD0iMzc5cHgiIHpvb21BbmRQYW49Im1hZ25pZnkiPjxkZWZzLz48Zz48ZWxsaXBzZSBjeD0iMzEyLjUzIiBjeT0iMTYiIGZpbGw9IiMyMjIyMjIiIHJ4PSIxMCIgcnk9IjEwIiBzdHlsZT0ic3Ryb2tlOiMyMjIyMjI7c3Ryb2tlLXdpZHRoOjEuMDsiLz48ZyBpZD0iSWRsZSI+PHJlY3QgZmlsbD0iI0YxRjFGMSIgaGVpZ2h0PSI1MCIgcng9IjEyLjUiIHJ5PSIxMi41IiBzdHlsZT0ic3Ryb2tlOiMxODE4MTg7c3Ryb2tlLXdpZHRoOjAuNTsiIHdpZHRoPSI1MCIgeD0iMjg3LjUzIiB5PSI4NyIvPjxsaW5lIHN0eWxlPSJzdHJva2U6IzE4MTgxODtzdHJva2Utd2lkdGg6MC41OyIgeDE9IjI4Ny41MyIgeDI9IjMzNy41MyIgeTE9IjExMS45ODQ0IiB5Mj0iMTExLjk4NDQiLz48dGV4dCBmaWxsPSIjMDAwMDAwIiBmb250LWZhbWlseT0ic2Fucy1zZXJpZiIgZm9udC1zaXplPSIxNCIgbGVuZ3RoQWRqdXN0PSJzcGFjaW5nIiB0ZXh0TGVuZ3RoPSIyOCIgeD0iMjk4LjUzIiB5PSIxMDUuMjM0NCI+SWRsZTwvdGV4dD48L2c+PGcgaWQ9IlBsYXlpbmciPjxyZWN0IGZpbGw9IiNGMUYxRjEiIGhlaWdodD0iNTAiIHJ4PSIxMi41IiByeT0iMTIuNSIgc3R5bGU9InN0cm9rZTojMTgxODE4O3N0cm9rZS13aWR0aDowLjU7IiB3aWR0aD0iNjkiIHg9IjEyMC4wMyIgeT0iMjEyIi8+PGxpbmUgc3R5bGU9InN0cm9rZTojMTgxODE4O3N0cm9rZS13aWR0aDowLjU7IiB4MT0iMTIwLjAzIiB4Mj0iMTg5LjAzIiB5MT0iMjM2Ljk4NDQiIHkyPSIyMzYuOTg0NCIvPjx0ZXh0IGZpbGw9IiMwMDAwMDAiIGZvbnQtZmFtaWx5PSJzYW5zLXNlcmlmIiBmb250LXNpemU9IjE0IiBsZW5ndGhBZGp1c3Q9InNwYWNpbmciIHRleHRMZW5ndGg9IjQ5IiB4PSIxMzAuMDMiIHk9IjIzMC4yMzQ0Ij5QbGF5aW5nPC90ZXh0PjwvZz48ZyBpZD0iU3RvcHBlZCI+PHJlY3QgZmlsbD0iI0YxRjFGMSIgaGVpZ2h0PSI1MCIgcng9IjEyLjUiIHJ5PSIxMi41IiBzdHlsZT0ic3Ryb2tlOiMxODE4MTg7c3Ryb2tlLXdpZHRoOjAuNTsiIHdpZHRoPSI2OSIgeD0iMTg0LjAzIiB5PSI0NjIiLz48bGluZSBzdHlsZT0ic3Ryb2tlOiMxODE4MTg7c3Ryb2tlLXdpZHRoOjAuNTsiIHgxPSIxODQuMDMiIHgyPSIyNTMuMDMiIHkxPSI0ODYuOTg0NCIgeTI9IjQ4Ni45ODQ0Ii8+PHRleHQgZmlsbD0iIzAwMDAwMCIgZm9udC1mYW1pbHk9InNhbnMtc2VyaWYiIGZvbnQtc2l6ZT0iMTQiIGxlbmd0aEFkanVzdD0ic3BhY2luZyIgdGV4dExlbmd0aD0iNDkiIHg9IjE5NC4wMyIgeT0iNDgwLjIzNDQiPlN0b3BwZWQ8L3RleHQ+PC9nPjxnIGlkPSJQYXVzZWQiPjxyZWN0IGZpbGw9IiNGMUYxRjEiIGhlaWdodD0iNTAiIHJ4PSIxMi41IiByeT0iMTIuNSIgc3R5bGU9InN0cm9rZTojMTgxODE4O3N0cm9rZS13aWR0aDowLjU7IiB3aWR0aD0iNjIiIHg9Ijg2LjUzIiB5PSIzMzciLz48bGluZSBzdHlsZT0ic3Ryb2tlOiMxODE4MTg7c3Ryb2tlLXdpZHRoOjAuNTsiIHgxPSI4Ni41MyIgeDI9IjE0OC41MyIgeTE9IjM2MS45ODQ0IiB5Mj0iMzYxLjk4NDQiLz48dGV4dCBmaWxsPSIjMDAwMDAwIiBmb250LWZhbWlseT0ic2Fucy1zZXJpZiIgZm9udC1zaXplPSIxNCIgbGVuZ3RoQWRqdXN0PSJzcGFjaW5nIiB0ZXh0TGVuZ3RoPSI0MiIgeD0iOTYuNTMiIHk9IjM1NS4yMzQ0Ij5QYXVzZWQ8L3RleHQ+PC9nPjwhLS1saW5rICpzdGFydCogdG8gSWRsZS0tPjxnIGlkPSJsaW5rXypzdGFydCpfSWRsZSI+PHBhdGggZD0iTTMxMi41MywyNi4wMSBDMzEyLjUzLDM5Ljg5IDMxMi41Myw2MC45NyAzMTIuNTMsODAuODQgIiBmaWxsPSJub25lIiBpZD0iKnN0YXJ0Ki10by1JZGxlIiBzdHlsZT0ic3Ryb2tlOiMxODE4MTg7c3Ryb2tlLXdpZHRoOjEuMDsiLz48cG9seWdvbiBmaWxsPSIjMTgxODE4IiBwb2ludHM9IjMxMi41Myw4Ni44NCwzMTYuNTMsNzcuODQsMzEyLjUzLDgxLjg0LDMwOC41Myw3Ny44NCwzMTIuNTMsODYuODQiIHN0eWxlPSJzdHJva2U6IzE4MTgxODtzdHJva2Utd2lkdGg6MS4wOyIvPjwvZz48IS0tbGluayBJZGxlIHRvIFBsYXlpbmctLT48ZyBpZD0ibGlua19JZGxlX1BsYXlpbmciPjxwYXRoIGQ9Ik0yODcuNDksMTMyLjQ5IEMyNTkuODIsMTU0LjAzIDIxOS45NjQxLDE4NS4wNTM3IDE5MC4xNDQxLDIwOC4yNzM3ICIgZmlsbD0ibm9uZSIgaWQ9IklkbGUtdG8tUGxheWluZyIgc3R5bGU9InN0cm9rZTojMTgxODE4O3N0cm9rZS13aWR0aDoxLjA7Ii8+PHBvbHlnb24gZmlsbD0iIzE4MTgxOCIgcG9pbnRzPSIxODUuNDEsMjExLjk2LDE5NC45Njg2LDIwOS41ODY2LDE4OS4zNTUxLDIwOC44ODgxLDE5MC4wNTM2LDIwMy4yNzQ1LDE4NS40MSwyMTEuOTYiIHN0eWxlPSJzdHJva2U6IzE4MTgxODtzdHJva2Utd2lkdGg6MS4wOyIvPjx0ZXh0IGZpbGw9IiMwMDAwMDAiIGZvbnQtZmFtaWx5PSJzYW5zLXNlcmlmIiBmb250LXNpemU9IjEzIiBsZW5ndGhBZGp1c3Q9InNwYWNpbmciIHRleHRMZW5ndGg9IjM5IiB4PSIyNDMuNTMiIHk9IjE4MC4yODkxIj5wbGF5KCk8L3RleHQ+PC9nPjwhLS1saW5rIElkbGUgdG8gU3RvcHBlZC0tPjxnIGlkPSJsaW5rX0lkbGVfU3RvcHBlZCI+PHBhdGggZD0iTTMwOS4xNSwxMzcuMTcgQzMwMi4wOSwxODUuMzQgMjg0LjIxLDI5Ni40OCAyNTcuNTMsMzg3IEMyNDkuODUsNDEzLjA1IDI0MC41MTksNDM2LjMxNjEgMjMxLjkyOSw0NTYuMTA2MSAiIGZpbGw9Im5vbmUiIGlkPSJJZGxlLXRvLVN0b3BwZWQiIHN0eWxlPSJzdHJva2U6IzE4MTgxODtzdHJva2Utd2lkdGg6MS4wOyIvPjxwb2x5Z29uIGZpbGw9IiMxODE4MTgiIHBvaW50cz0iMjI5LjU0LDQ2MS42MSwyMzYuNzkyOCw0NTQuOTQ2OCwyMzEuNTMwOCw0NTcuMDIzNCwyMjkuNDU0Miw0NTEuNzYxNSwyMjkuNTQsNDYxLjYxIiBzdHlsZT0ic3Ryb2tlOiMxODE4MTg7c3Ryb2tlLXdpZHRoOjEuMDsiLz48dGV4dCBmaWxsPSIjMDAwMDAwIiBmb250LWZhbWlseT0ic2Fucy1zZXJpZiIgZm9udC1zaXplPSIxMyIgbGVuZ3RoQWRqdXN0PSJzcGFjaW5nIiB0ZXh0TGVuZ3RoPSIzOSIgeD0iMjgxLjUzIiB5PSIzMDUuMjg5MSI+c3RvcCgpPC90ZXh0PjwvZz48IS0tbGluayBTdG9wcGVkIHRvIElkbGUtLT48ZyBpZD0ibGlua19TdG9wcGVkX0lkbGUiPjxwYXRoIGQ9Ik0yNDQuOTYsNDYxLjk1IEMyNTMuNzgsNDUzLjA5IDI2My4yMSw0NDIuNjEgMjcwLjUzLDQzMiBDMzA1LjQsMzgxLjQzIDMxNi4wOSwzNjYuOTUgMzI5LjUzLDMwNyBDMzQzLjEzLDI0Ni4yOCAzMzcuNywyMjguNTQgMzI4LjUzLDE2NyBDMzI3LjA0LDE1Ny4wNCAzMjUuOTY3NywxNTIuMDcxMiAzMjMuMDU3NywxNDIuODYxMiAiIGZpbGw9Im5vbmUiIGlkPSJTdG9wcGVkLXRvLUlkbGUiIHN0eWxlPSJzdHJva2U6IzE4MTgxODtzdHJva2Utd2lkdGg6MS4wOyIvPjxwb2x5Z29uIGZpbGw9IiMxODE4MTgiIHBvaW50cz0iMzIxLjI1LDEzNy4xNCwzMjAuMTQ3NCwxNDYuOTI2OSwzMjIuNzU2NCwxNDEuOTA3NywzMjcuNzc1NywxNDQuNTE2NywzMjEuMjUsMTM3LjE0IiBzdHlsZT0ic3Ryb2tlOiMxODE4MTg7c3Ryb2tlLXdpZHRoOjEuMDsiLz48dGV4dCBmaWxsPSIjMDAwMDAwIiBmb250LWZhbWlseT0ic2Fucy1zZXJpZiIgZm9udC1zaXplPSIxMyIgbGVuZ3RoQWRqdXN0PSJzcGFjaW5nIiB0ZXh0TGVuZ3RoPSIzOCIgeD0iMzMzLjUzIiB5PSIzMDUuMjg5MSI+aWRsZSgpPC90ZXh0PjwvZz48IS0tbGluayBQbGF5aW5nIHRvIFBhdXNlZC0tPjxnIGlkPSJsaW5rX1BsYXlpbmdfUGF1c2VkIj48cGF0aCBkPSJNMTE5LjcsMjQ4LjYxIEM5OS4xMiwyNTYuODggNzQuNzYsMjcwLjYyIDYyLjUzLDI5MiBDNTIuMSwzMTAuMjEgNjMuNzg4NSwzMjUuMDc4NyA4MS4zNjg1LDMzOC4zMjg3ICIgZmlsbD0ibm9uZSIgaWQ9IlBsYXlpbmctdG8tUGF1c2VkIiBzdHlsZT0ic3Ryb2tlOiMxODE4MTg7c3Ryb2tlLXdpZHRoOjEuMDsiLz48cG9seWdvbiBmaWxsPSIjMTgxODE4IiBwb2ludHM9Ijg2LjE2LDM0MS45NCw4MS4zODAzLDMzMy4zMjg3LDgyLjE2NzEsMzM4LjkzMDYsNzYuNTY1MiwzMzkuNzE3Myw4Ni4xNiwzNDEuOTQiIHN0eWxlPSJzdHJva2U6IzE4MTgxODtzdHJva2Utd2lkdGg6MS4wOyIvPjx0ZXh0IGZpbGw9IiMwMDAwMDAiIGZvbnQtZmFtaWx5PSJzYW5zLXNlcmlmIiBmb250LXNpemU9IjEzIiBsZW5ndGhBZGp1c3Q9InNwYWNpbmciIHRleHRMZW5ndGg9IjQ3IiB4PSI2My41MyIgeT0iMzA1LjI4OTEiPnBhdXNlKCk8L3RleHQ+PC9nPjwhLS1saW5rIFBhdXNlZCB0byBQbGF5aW5nLS0+PGcgaWQ9ImxpbmtfUGF1c2VkX1BsYXlpbmciPjxwYXRoIGQ9Ik0xMjQuODYsMzM2LjYzIEMxMzEuMzcsMzE0Ljk5IDEzOS4xMDMyLDI4OS4yODYxIDE0NS41NzMyLDI2Ny43NTYxICIgZmlsbD0ibm9uZSIgaWQ9IlBhdXNlZC10by1QbGF5aW5nIiBzdHlsZT0ic3Ryb2tlOiMxODE4MTg7c3Ryb2tlLXdpZHRoOjEuMDsiLz48cG9seWdvbiBmaWxsPSIjMTgxODE4IiBwb2ludHM9IjE0Ny4zLDI2Mi4wMSwxNDAuODc5MSwyNjkuNDc4LDE0NS44NjEsMjY2Ljc5ODUsMTQ4LjU0MDYsMjcxLjc4MDQsMTQ3LjMsMjYyLjAxIiBzdHlsZT0ic3Ryb2tlOiMxODE4MTg7c3Ryb2tlLXdpZHRoOjEuMDsiLz48dGV4dCBmaWxsPSIjMDAwMDAwIiBmb250LWZhbWlseT0ic2Fucy1zZXJpZiIgZm9udC1zaXplPSIxMyIgbGVuZ3RoQWRqdXN0PSJzcGFjaW5nIiB0ZXh0TGVuZ3RoPSIzOSIgeD0iMTM4LjUzIiB5PSIzMDUuMjg5MSI+cGxheSgpPC90ZXh0PjwvZz48IS0tbGluayBQbGF5aW5nIHRvIFN0b3BwZWQtLT48ZyBpZD0ibGlua19QbGF5aW5nX1N0b3BwZWQiPjxwYXRoIGQ9Ik0xMTkuNjEsMjUwIEM5Ny44OSwyNTguODggNzAuNTYsMjcyLjc3IDUxLjUzLDI5MiBDMjAuOTcsMzIyLjg4IDYsMzQ5Ljg2IDI4LjUzLDM4NyBDNjIuMzgsNDQyLjgxIDEzMy4yNzQsNDY3LjIzNjkgMTc4LjE4NCw0NzcuOTU2OSAiIGZpbGw9Im5vbmUiIGlkPSJQbGF5aW5nLXRvLVN0b3BwZWQiIHN0eWxlPSJzdHJva2U6IzE4MTgxODtzdHJva2Utd2lkdGg6MS4wOyIvPjxwb2x5Z29uIGZpbGw9IiMxODE4MTgiIHBvaW50cz0iMTg0LjAyLDQ3OS4zNSwxNzYuMTk0Niw0NzMuMzY5NywxNzkuMTU2Niw0NzguMTg5MSwxNzQuMzM3Miw0ODEuMTUxMSwxODQuMDIsNDc5LjM1IiBzdHlsZT0ic3Ryb2tlOiMxODE4MTg7c3Ryb2tlLXdpZHRoOjEuMDsiLz48dGV4dCBmaWxsPSIjMDAwMDAwIiBmb250LWZhbWlseT0ic2Fucy1zZXJpZiIgZm9udC1zaXplPSIxMyIgbGVuZ3RoQWRqdXN0PSJzcGFjaW5nIiB0ZXh0TGVuZ3RoPSIzOSIgeD0iMjkuNTMiIHk9IjM2Ny43ODkxIj5zdG9wKCk8L3RleHQ+PC9nPjwhLS1saW5rIFN0b3BwZWQgdG8gUGxheWluZy0tPjxnIGlkPSJsaW5rX1N0b3BwZWRfUGxheWluZyI+PHBhdGggZD0iTTIxNy40Miw0NjEuOTkgQzIxNS4wNyw0MjQuNjEgMjA3LjksMzUwLjcgMTg2LjUzLDI5MiBDMTgyLjc2LDI4MS42NiAxODAuMTQ2MywyNzYuMTY2NSAxNzQuNTM2MywyNjcuMTM2NSAiIGZpbGw9Im5vbmUiIGlkPSJTdG9wcGVkLXRvLVBsYXlpbmciIHN0eWxlPSJzdHJva2U6IzE4MTgxODtzdHJva2Utd2lkdGg6MS4wOyIvPjxwb2x5Z29uIGZpbGw9IiMxODE4MTgiIHBvaW50cz0iMTcxLjM3LDI2Mi4wNCwxNzIuNzIxNywyNzEuNzk1NywxNzQuMDA4NiwyNjYuMjg3MSwxNzkuNTE3MSwyNjcuNTczOSwxNzEuMzcsMjYyLjA0IiBzdHlsZT0ic3Ryb2tlOiMxODE4MTg7c3Ryb2tlLXdpZHRoOjEuMDsiLz48dGV4dCBmaWxsPSIjMDAwMDAwIiBmb250LWZhbWlseT0ic2Fucy1zZXJpZiIgZm9udC1zaXplPSIxMyIgbGVuZ3RoQWRqdXN0PSJzcGFjaW5nIiB0ZXh0TGVuZ3RoPSIzOSIgeD0iMjA5LjUzIiB5PSIzNjcuNzg5MSI+cGxheSgpPC90ZXh0PjwvZz48IS0tbGluayBQYXVzZWQgdG8gU3RvcHBlZC0tPjxnIGlkPSJsaW5rX1BhdXNlZF9TdG9wcGVkIj48cGF0aCBkPSJNMTI2LjM4LDM4Ny4xNyBDMTMyLjIxLDQwMS4xNCAxNDAuNzYsNDE4LjU1IDE1MS41Myw0MzIgQzE2MC42OCw0NDMuNDMgMTY3Ljg5Myw0NTAuMzUwNCAxNzkuMTczLDQ1OS4wNzA0ICIgZmlsbD0ibm9uZSIgaWQ9IlBhdXNlZC10by1TdG9wcGVkIiBzdHlsZT0ic3Ryb2tlOiMxODE4MTg7c3Ryb2tlLXdpZHRoOjEuMDsiLz48cG9seWdvbiBmaWxsPSIjMTgxODE4IiBwb2ludHM9IjE4My45Miw0NjIuNzQsMTc5LjI0Niw0NTQuMDcwOSwxNzkuOTY0Miw0NTkuNjgyLDE3NC4zNTMxLDQ2MC40MDAyLDE4My45Miw0NjIuNzQiIHN0eWxlPSJzdHJva2U6IzE4MTgxODtzdHJva2Utd2lkdGg6MS4wOyIvPjx0ZXh0IGZpbGw9IiMwMDAwMDAiIGZvbnQtZmFtaWx5PSJzYW5zLXNlcmlmIiBmb250LXNpemU9IjEzIiBsZW5ndGhBZGp1c3Q9InNwYWNpbmciIHRleHRMZW5ndGg9IjM5IiB4PSIxNTIuNTMiIHk9IjQzMC4yODkxIj5zdG9wKCk8L3RleHQ+PC9nPjwhLS1TUkM9W1l6UUFMVDNMakxGbUpDYjl2VTgyYU0xa0c0dllQTVBVa2VBTEdXNkdmUTY5YTBha29JeWVJNHExb1hHM01LMFBCZlhRaUJ4NHFjQW1QMDY4MFBINWJpSVk1UThTZ3VyOFNmV1FPSTlPVEk5QldqcmpmUDA5ZjNHcTBHMDBdLS0+PC9nPjwvc3ZnPg==;" vertex="1" parent="1">
            <mxGeometry x="-1136" y="3510" width="379" height="518" as="geometry" />
          </mxCell>
        </UserObject>
        <UserObject label="" plantUmlData="{&#xa;  &quot;data&quot;: &quot;@startuml\npackage \&quot;Music Player Application\&quot; {\n    [User  Interface] --&gt; [Music Player Component]\n    [User  Interface] --&gt; [Playlist Manager]\n    \n    [Music Player Component] --&gt; [Streaming Service]\n    [Music Player Component] --&gt; [Notification Service]\n    \n    [User  Management Service] --&gt; [Database]\n    [Music Library Service] --&gt; [Database]\n    \n    [Streaming Service] --&gt; [Cloud Storage]\n    \n    [User  Interface] --&gt; [User  Management Service]\n    [User  Interface] --&gt; [Music Library Service]\n}\n\n@enduml&quot;,&#xa;  &quot;format&quot;: &quot;svg&quot;&#xa;}" id="c7S_zqKtltET6JresFuN-18">
          <mxCell style="shape=image;noLabel=1;verticalAlign=top;aspect=fixed;imageAspect=0;image=data:image/svg+xml,PD94bWwgdmVyc2lvbj0iMS4wIiBlbmNvZGluZz0idXMtYXNjaWkiIHN0YW5kYWxvbmU9Im5vIj8+PHN2ZyB4bWxucz0iaHR0cDovL3d3dy53My5vcmcvMjAwMC9zdmciIHhtbG5zOnhsaW5rPSJodHRwOi8vd3d3LnczLm9yZy8xOTk5L3hsaW5rIiBjb250ZW50U3R5bGVUeXBlPSJ0ZXh0L2NzcyIgaGVpZ2h0PSI0MjJweCIgcHJlc2VydmVBc3BlY3RSYXRpbz0ibm9uZSIgc3R5bGU9IndpZHRoOjg5M3B4O2hlaWdodDo0MjJweDtiYWNrZ3JvdW5kOiNGRkZGRkY7IiB2ZXJzaW9uPSIxLjEiIHZpZXdCb3g9IjAgMCA4OTMgNDIyIiB3aWR0aD0iODkzcHgiIHpvb21BbmRQYW49Im1hZ25pZnkiPjxkZWZzLz48Zz48IS0tY2x1c3RlciBNdXNpYyBQbGF5ZXIgQXBwbGljYXRpb24tLT48ZyBpZD0iY2x1c3Rlcl9NdXNpYyBQbGF5ZXIgQXBwbGljYXRpb24iPjxwYXRoIGQ9Ik04LjUsNiBMMTc3LjUsNiBBMy43NSwzLjc1IDAgMCAxIDE4MCw4LjUgTDE4NywyNi45ODQ0IEw4ODMuNSwyNi45ODQ0IEEyLjUsMi41IDAgMCAxIDg4NiwyOS40ODQ0IEw4ODYsNDEyLjUgQTIuNSwyLjUgMCAwIDEgODgzLjUsNDE1IEw4LjUsNDE1IEEyLjUsMi41IDAgMCAxIDYsNDEyLjUgTDYsOC41IEEyLjUsMi41IDAgMCAxIDguNSw2ICIgZmlsbD0ibm9uZSIgc3R5bGU9InN0cm9rZTojMDAwMDAwO3N0cm9rZS13aWR0aDoxLjU7Ii8+PGxpbmUgc3R5bGU9InN0cm9rZTojMDAwMDAwO3N0cm9rZS13aWR0aDoxLjU7IiB4MT0iNiIgeDI9IjE4NyIgeTE9IjI2Ljk4NDQiIHkyPSIyNi45ODQ0Ii8+PHRleHQgZmlsbD0iIzAwMDAwMCIgZm9udC1mYW1pbHk9InNhbnMtc2VyaWYiIGZvbnQtc2l6ZT0iMTQiIGZvbnQtd2VpZ2h0PSJib2xkIiBsZW5ndGhBZGp1c3Q9InNwYWNpbmciIHRleHRMZW5ndGg9IjE2OCIgeD0iMTAiIHk9IjIxLjIzNDQiPk11c2ljIFBsYXllciBBcHBsaWNhdGlvbjwvdGV4dD48L2c+PCEtLWVudGl0eSBVc2VyICBJbnRlcmZhY2UtLT48ZyBpZD0iZWxlbV9Vc2VyICBJbnRlcmZhY2UiPjxyZWN0IGZpbGw9IiNGMUYxRjEiIGhlaWdodD0iNDQuOTg0NCIgcng9IjIuNSIgcnk9IjIuNSIgc3R5bGU9InN0cm9rZTojMTgxODE4O3N0cm9rZS13aWR0aDowLjU7IiB3aWR0aD0iMTQ1IiB4PSIzNjMuNSIgeT0iMzkiLz48cmVjdCBmaWxsPSIjRjFGMUYxIiBoZWlnaHQ9IjEwIiBzdHlsZT0ic3Ryb2tlOiMxODE4MTg7c3Ryb2tlLXdpZHRoOjAuNTsiIHdpZHRoPSIxNSIgeD0iNDg4LjUiIHk9IjQ0Ii8+PHJlY3QgZmlsbD0iI0YxRjFGMSIgaGVpZ2h0PSIyIiBzdHlsZT0ic3Ryb2tlOiMxODE4MTg7c3Ryb2tlLXdpZHRoOjAuNTsiIHdpZHRoPSI0IiB4PSI0ODYuNSIgeT0iNDYiLz48cmVjdCBmaWxsPSIjRjFGMUYxIiBoZWlnaHQ9IjIiIHN0eWxlPSJzdHJva2U6IzE4MTgxODtzdHJva2Utd2lkdGg6MC41OyIgd2lkdGg9IjQiIHg9IjQ4Ni41IiB5PSI1MCIvPjx0ZXh0IGZpbGw9IiMwMDAwMDAiIGZvbnQtZmFtaWx5PSJzYW5zLXNlcmlmIiBmb250LXNpemU9IjE0IiBsZW5ndGhBZGp1c3Q9InNwYWNpbmciIHRleHRMZW5ndGg9IjEwNSIgeD0iMzc4LjUiIHk9IjcyLjIzNDQiPlVzZXIgIEludGVyZmFjZTwvdGV4dD48L2c+PCEtLWVudGl0eSBNdXNpYyBQbGF5ZXIgQ29tcG9uZW50LS0+PGcgaWQ9ImVsZW1fTXVzaWMgUGxheWVyIENvbXBvbmVudCI+PHJlY3QgZmlsbD0iI0YxRjFGMSIgaGVpZ2h0PSI0NC45ODQ0IiByeD0iMi41IiByeT0iMi41IiBzdHlsZT0ic3Ryb2tlOiMxODE4MTg7c3Ryb2tlLXdpZHRoOjAuNTsiIHdpZHRoPSIxOTUiIHg9IjIxLjUiIHk9IjE0NCIvPjxyZWN0IGZpbGw9IiNGMUYxRjEiIGhlaWdodD0iMTAiIHN0eWxlPSJzdHJva2U6IzE4MTgxODtzdHJva2Utd2lkdGg6MC41OyIgd2lkdGg9IjE1IiB4PSIxOTYuNSIgeT0iMTQ5Ii8+PHJlY3QgZmlsbD0iI0YxRjFGMSIgaGVpZ2h0PSIyIiBzdHlsZT0ic3Ryb2tlOiMxODE4MTg7c3Ryb2tlLXdpZHRoOjAuNTsiIHdpZHRoPSI0IiB4PSIxOTQuNSIgeT0iMTUxIi8+PHJlY3QgZmlsbD0iI0YxRjFGMSIgaGVpZ2h0PSIyIiBzdHlsZT0ic3Ryb2tlOiMxODE4MTg7c3Ryb2tlLXdpZHRoOjAuNTsiIHdpZHRoPSI0IiB4PSIxOTQuNSIgeT0iMTU1Ii8+PHRleHQgZmlsbD0iIzAwMDAwMCIgZm9udC1mYW1pbHk9InNhbnMtc2VyaWYiIGZvbnQtc2l6ZT0iMTQiIGxlbmd0aEFkanVzdD0ic3BhY2luZyIgdGV4dExlbmd0aD0iMTU1IiB4PSIzNi41IiB5PSIxNzcuMjM0NCI+TXVzaWMgUGxheWVyIENvbXBvbmVudDwvdGV4dD48L2c+PCEtLWVudGl0eSBQbGF5bGlzdCBNYW5hZ2VyLS0+PGcgaWQ9ImVsZW1fUGxheWxpc3QgTWFuYWdlciI+PHJlY3QgZmlsbD0iI0YxRjFGMSIgaGVpZ2h0PSI0NC45ODQ0IiByeD0iMi41IiByeT0iMi41IiBzdHlsZT0ic3Ryb2tlOiMxODE4MTg7c3Ryb2tlLXdpZHRoOjAuNTsiIHdpZHRoPSIxNTIiIHg9IjI1MiIgeT0iMTQ0Ii8+PHJlY3QgZmlsbD0iI0YxRjFGMSIgaGVpZ2h0PSIxMCIgc3R5bGU9InN0cm9rZTojMTgxODE4O3N0cm9rZS13aWR0aDowLjU7IiB3aWR0aD0iMTUiIHg9IjM4NCIgeT0iMTQ5Ii8+PHJlY3QgZmlsbD0iI0YxRjFGMSIgaGVpZ2h0PSIyIiBzdHlsZT0ic3Ryb2tlOiMxODE4MTg7c3Ryb2tlLXdpZHRoOjAuNTsiIHdpZHRoPSI0IiB4PSIzODIiIHk9IjE1MSIvPjxyZWN0IGZpbGw9IiNGMUYxRjEiIGhlaWdodD0iMiIgc3R5bGU9InN0cm9rZTojMTgxODE4O3N0cm9rZS13aWR0aDowLjU7IiB3aWR0aD0iNCIgeD0iMzgyIiB5PSIxNTUiLz48dGV4dCBmaWxsPSIjMDAwMDAwIiBmb250LWZhbWlseT0ic2Fucy1zZXJpZiIgZm9udC1zaXplPSIxNCIgbGVuZ3RoQWRqdXN0PSJzcGFjaW5nIiB0ZXh0TGVuZ3RoPSIxMTIiIHg9IjI2NyIgeT0iMTc3LjIzNDQiPlBsYXlsaXN0IE1hbmFnZXI8L3RleHQ+PC9nPjwhLS1lbnRpdHkgU3RyZWFtaW5nIFNlcnZpY2UtLT48ZyBpZD0iZWxlbV9TdHJlYW1pbmcgU2VydmljZSI+PHJlY3QgZmlsbD0iI0YxRjFGMSIgaGVpZ2h0PSI0NC45ODQ0IiByeD0iMi41IiByeT0iMi41IiBzdHlsZT0ic3Ryb2tlOiMxODE4MTg7c3Ryb2tlLXdpZHRoOjAuNTsiIHdpZHRoPSIxNjAiIHg9IjMwIiB5PSIyNDkiLz48cmVjdCBmaWxsPSIjRjFGMUYxIiBoZWlnaHQ9IjEwIiBzdHlsZT0ic3Ryb2tlOiMxODE4MTg7c3Ryb2tlLXdpZHRoOjAuNTsiIHdpZHRoPSIxNSIgeD0iMTcwIiB5PSIyNTQiLz48cmVjdCBmaWxsPSIjRjFGMUYxIiBoZWlnaHQ9IjIiIHN0eWxlPSJzdHJva2U6IzE4MTgxODtzdHJva2Utd2lkdGg6MC41OyIgd2lkdGg9IjQiIHg9IjE2OCIgeT0iMjU2Ii8+PHJlY3QgZmlsbD0iI0YxRjFGMSIgaGVpZ2h0PSIyIiBzdHlsZT0ic3Ryb2tlOiMxODE4MTg7c3Ryb2tlLXdpZHRoOjAuNTsiIHdpZHRoPSI0IiB4PSIxNjgiIHk9IjI2MCIvPjx0ZXh0IGZpbGw9IiMwMDAwMDAiIGZvbnQtZmFtaWx5PSJzYW5zLXNlcmlmIiBmb250LXNpemU9IjE0IiBsZW5ndGhBZGp1c3Q9InNwYWNpbmciIHRleHRMZW5ndGg9IjEyMCIgeD0iNDUiIHk9IjI4Mi4yMzQ0Ij5TdHJlYW1pbmcgU2VydmljZTwvdGV4dD48L2c+PCEtLWVudGl0eSBOb3RpZmljYXRpb24gU2VydmljZS0tPjxnIGlkPSJlbGVtX05vdGlmaWNhdGlvbiBTZXJ2aWNlIj48cmVjdCBmaWxsPSIjRjFGMUYxIiBoZWlnaHQ9IjQ0Ljk4NDQiIHJ4PSIyLjUiIHJ5PSIyLjUiIHN0eWxlPSJzdHJva2U6IzE4MTgxODtzdHJva2Utd2lkdGg6MC41OyIgd2lkdGg9IjE4MCIgeD0iMjI1IiB5PSIyNDkiLz48cmVjdCBmaWxsPSIjRjFGMUYxIiBoZWlnaHQ9IjEwIiBzdHlsZT0ic3Ryb2tlOiMxODE4MTg7c3Ryb2tlLXdpZHRoOjAuNTsiIHdpZHRoPSIxNSIgeD0iMzg1IiB5PSIyNTQiLz48cmVjdCBmaWxsPSIjRjFGMUYxIiBoZWlnaHQ9IjIiIHN0eWxlPSJzdHJva2U6IzE4MTgxODtzdHJva2Utd2lkdGg6MC41OyIgd2lkdGg9IjQiIHg9IjM4MyIgeT0iMjU2Ii8+PHJlY3QgZmlsbD0iI0YxRjFGMSIgaGVpZ2h0PSIyIiBzdHlsZT0ic3Ryb2tlOiMxODE4MTg7c3Ryb2tlLXdpZHRoOjAuNTsiIHdpZHRoPSI0IiB4PSIzODMiIHk9IjI2MCIvPjx0ZXh0IGZpbGw9IiMwMDAwMDAiIGZvbnQtZmFtaWx5PSJzYW5zLXNlcmlmIiBmb250LXNpemU9IjE0IiBsZW5ndGhBZGp1c3Q9InNwYWNpbmciIHRleHRMZW5ndGg9IjE0MCIgeD0iMjQwIiB5PSIyODIuMjM0NCI+Tm90aWZpY2F0aW9uIFNlcnZpY2U8L3RleHQ+PC9nPjwhLS1lbnRpdHkgVXNlciAgTWFuYWdlbWVudCBTZXJ2aWNlLS0+PGcgaWQ9ImVsZW1fVXNlciAgTWFuYWdlbWVudCBTZXJ2aWNlIj48cmVjdCBmaWxsPSIjRjFGMUYxIiBoZWlnaHQ9IjQ0Ljk4NDQiIHJ4PSIyLjUiIHJ5PSIyLjUiIHN0eWxlPSJzdHJva2U6IzE4MTgxODtzdHJva2Utd2lkdGg6MC41OyIgd2lkdGg9IjIwOSIgeD0iNDM5LjUiIHk9IjE0NCIvPjxyZWN0IGZpbGw9IiNGMUYxRjEiIGhlaWdodD0iMTAiIHN0eWxlPSJzdHJva2U6IzE4MTgxODtzdHJva2Utd2lkdGg6MC41OyIgd2lkdGg9IjE1IiB4PSI2MjguNSIgeT0iMTQ5Ii8+PHJlY3QgZmlsbD0iI0YxRjFGMSIgaGVpZ2h0PSIyIiBzdHlsZT0ic3Ryb2tlOiMxODE4MTg7c3Ryb2tlLXdpZHRoOjAuNTsiIHdpZHRoPSI0IiB4PSI2MjYuNSIgeT0iMTUxIi8+PHJlY3QgZmlsbD0iI0YxRjFGMSIgaGVpZ2h0PSIyIiBzdHlsZT0ic3Ryb2tlOiMxODE4MTg7c3Ryb2tlLXdpZHRoOjAuNTsiIHdpZHRoPSI0IiB4PSI2MjYuNSIgeT0iMTU1Ii8+PHRleHQgZmlsbD0iIzAwMDAwMCIgZm9udC1mYW1pbHk9InNhbnMtc2VyaWYiIGZvbnQtc2l6ZT0iMTQiIGxlbmd0aEFkanVzdD0ic3BhY2luZyIgdGV4dExlbmd0aD0iMTY5IiB4PSI0NTQuNSIgeT0iMTc3LjIzNDQiPlVzZXIgIE1hbmFnZW1lbnQgU2VydmljZTwvdGV4dD48L2c+PCEtLWVudGl0eSBEYXRhYmFzZS0tPjxnIGlkPSJlbGVtX0RhdGFiYXNlIj48cmVjdCBmaWxsPSIjRjFGMUYxIiBoZWlnaHQ9IjQ0Ljk4NDQiIHJ4PSIyLjUiIHJ5PSIyLjUiIHN0eWxlPSJzdHJva2U6IzE4MTgxODtzdHJva2Utd2lkdGg6MC41OyIgd2lkdGg9Ijk2IiB4PSI2MTIiIHk9IjI0OSIvPjxyZWN0IGZpbGw9IiNGMUYxRjEiIGhlaWdodD0iMTAiIHN0eWxlPSJzdHJva2U6IzE4MTgxODtzdHJva2Utd2lkdGg6MC41OyIgd2lkdGg9IjE1IiB4PSI2ODgiIHk9IjI1NCIvPjxyZWN0IGZpbGw9IiNGMUYxRjEiIGhlaWdodD0iMiIgc3R5bGU9InN0cm9rZTojMTgxODE4O3N0cm9rZS13aWR0aDowLjU7IiB3aWR0aD0iNCIgeD0iNjg2IiB5PSIyNTYiLz48cmVjdCBmaWxsPSIjRjFGMUYxIiBoZWlnaHQ9IjIiIHN0eWxlPSJzdHJva2U6IzE4MTgxODtzdHJva2Utd2lkdGg6MC41OyIgd2lkdGg9IjQiIHg9IjY4NiIgeT0iMjYwIi8+PHRleHQgZmlsbD0iIzAwMDAwMCIgZm9udC1mYW1pbHk9InNhbnMtc2VyaWYiIGZvbnQtc2l6ZT0iMTQiIGxlbmd0aEFkanVzdD0ic3BhY2luZyIgdGV4dExlbmd0aD0iNTYiIHg9IjYyNyIgeT0iMjgyLjIzNDQiPkRhdGFiYXNlPC90ZXh0PjwvZz48IS0tZW50aXR5IE11c2ljIExpYnJhcnkgU2VydmljZS0tPjxnIGlkPSJlbGVtX011c2ljIExpYnJhcnkgU2VydmljZSI+PHJlY3QgZmlsbD0iI0YxRjFGMSIgaGVpZ2h0PSI0NC45ODQ0IiByeD0iMi41IiByeT0iMi41IiBzdHlsZT0ic3Ryb2tlOiMxODE4MTg7c3Ryb2tlLXdpZHRoOjAuNTsiIHdpZHRoPSIxODciIHg9IjY4My41IiB5PSIxNDQiLz48cmVjdCBmaWxsPSIjRjFGMUYxIiBoZWlnaHQ9IjEwIiBzdHlsZT0ic3Ryb2tlOiMxODE4MTg7c3Ryb2tlLXdpZHRoOjAuNTsiIHdpZHRoPSIxNSIgeD0iODUwLjUiIHk9IjE0OSIvPjxyZWN0IGZpbGw9IiNGMUYxRjEiIGhlaWdodD0iMiIgc3R5bGU9InN0cm9rZTojMTgxODE4O3N0cm9rZS13aWR0aDowLjU7IiB3aWR0aD0iNCIgeD0iODQ4LjUiIHk9IjE1MSIvPjxyZWN0IGZpbGw9IiNGMUYxRjEiIGhlaWdodD0iMiIgc3R5bGU9InN0cm9rZTojMTgxODE4O3N0cm9rZS13aWR0aDowLjU7IiB3aWR0aD0iNCIgeD0iODQ4LjUiIHk9IjE1NSIvPjx0ZXh0IGZpbGw9IiMwMDAwMDAiIGZvbnQtZmFtaWx5PSJzYW5zLXNlcmlmIiBmb250LXNpemU9IjE0IiBsZW5ndGhBZGp1c3Q9InNwYWNpbmciIHRleHRMZW5ndGg9IjE0NyIgeD0iNjk4LjUiIHk9IjE3Ny4yMzQ0Ij5NdXNpYyBMaWJyYXJ5IFNlcnZpY2U8L3RleHQ+PC9nPjwhLS1lbnRpdHkgQ2xvdWQgU3RvcmFnZS0tPjxnIGlkPSJlbGVtX0Nsb3VkIFN0b3JhZ2UiPjxyZWN0IGZpbGw9IiNGMUYxRjEiIGhlaWdodD0iNDQuOTg0NCIgcng9IjIuNSIgcnk9IjIuNSIgc3R5bGU9InN0cm9rZTojMTgxODE4O3N0cm9rZS13aWR0aDowLjU7IiB3aWR0aD0iMTMxIiB4PSI0NC41IiB5PSIzNTQiLz48cmVjdCBmaWxsPSIjRjFGMUYxIiBoZWlnaHQ9IjEwIiBzdHlsZT0ic3Ryb2tlOiMxODE4MTg7c3Ryb2tlLXdpZHRoOjAuNTsiIHdpZHRoPSIxNSIgeD0iMTU1LjUiIHk9IjM1OSIvPjxyZWN0IGZpbGw9IiNGMUYxRjEiIGhlaWdodD0iMiIgc3R5bGU9InN0cm9rZTojMTgxODE4O3N0cm9rZS13aWR0aDowLjU7IiB3aWR0aD0iNCIgeD0iMTUzLjUiIHk9IjM2MSIvPjxyZWN0IGZpbGw9IiNGMUYxRjEiIGhlaWdodD0iMiIgc3R5bGU9InN0cm9rZTojMTgxODE4O3N0cm9rZS13aWR0aDowLjU7IiB3aWR0aD0iNCIgeD0iMTUzLjUiIHk9IjM2NSIvPjx0ZXh0IGZpbGw9IiMwMDAwMDAiIGZvbnQtZmFtaWx5PSJzYW5zLXNlcmlmIiBmb250LXNpemU9IjE0IiBsZW5ndGhBZGp1c3Q9InNwYWNpbmciIHRleHRMZW5ndGg9IjkxIiB4PSI1OS41IiB5PSIzODcuMjM0NCI+Q2xvdWQgU3RvcmFnZTwvdGV4dD48L2c+PCEtLWxpbmsgVXNlciAgSW50ZXJmYWNlIHRvIE11c2ljIFBsYXllciBDb21wb25lbnQtLT48ZyBpZD0ibGlua19Vc2VyICBJbnRlcmZhY2VfTXVzaWMgUGxheWVyIENvbXBvbmVudCI+PHBhdGggZD0iTTM2OS41NSw4NC4wOSBDMzE1LjQ0LDEwMS42NyAyNDUuMTQ2LDEyNC41MDQ4IDE5MS4wNzYsMTQyLjA4NDggIiBmaWxsPSJub25lIiBpZD0iVXNlciAgSW50ZXJmYWNlLXRvLU11c2ljIFBsYXllciBDb21wb25lbnQiIHN0eWxlPSJzdHJva2U6IzE4MTgxODtzdHJva2Utd2lkdGg6MS4wOyIvPjxwb2x5Z29uIGZpbGw9IiMxODE4MTgiIHBvaW50cz0iMTg1LjM3LDE0My45NCwxOTUuMTY1OCwxNDQuOTYxMiwxOTAuMTI1LDE0Mi4zOTQsMTkyLjY5MjIsMTM3LjM1MzIsMTg1LjM3LDE0My45NCIgc3R5bGU9InN0cm9rZTojMTgxODE4O3N0cm9rZS13aWR0aDoxLjA7Ii8+PC9nPjwhLS1saW5rIFVzZXIgIEludGVyZmFjZSB0byBQbGF5bGlzdCBNYW5hZ2VyLS0+PGcgaWQ9ImxpbmtfVXNlciAgSW50ZXJmYWNlX1BsYXlsaXN0IE1hbmFnZXIiPjxwYXRoIGQ9Ik00MTMuMzYsODQuMDkgQzM5NC45MywxMDEuNjcgMzczLjM3MDUsMTIyLjIxNzUgMzU0Ljk1MDUsMTM5Ljc5NzUgIiBmaWxsPSJub25lIiBpZD0iVXNlciAgSW50ZXJmYWNlLXRvLVBsYXlsaXN0IE1hbmFnZXIiIHN0eWxlPSJzdHJva2U6IzE4MTgxODtzdHJva2Utd2lkdGg6MS4wOyIvPjxwb2x5Z29uIGZpbGw9IiMxODE4MTgiIHBvaW50cz0iMzUwLjYxLDE0My45NCwzNTkuODgyNCwxNDAuNjE5OSwzNTQuMjI3LDE0MC40ODc5LDM1NC4zNTksMTM0LjgzMjYsMzUwLjYxLDE0My45NCIgc3R5bGU9InN0cm9rZTojMTgxODE4O3N0cm9rZS13aWR0aDoxLjA7Ii8+PC9nPjwhLS1saW5rIE11c2ljIFBsYXllciBDb21wb25lbnQgdG8gU3RyZWFtaW5nIFNlcnZpY2UtLT48ZyBpZD0ibGlua19NdXNpYyBQbGF5ZXIgQ29tcG9uZW50X1N0cmVhbWluZyBTZXJ2aWNlIj48cGF0aCBkPSJNMTE3LjA5LDE4OS4zNCBDMTE1LjU2LDIwNi44MiAxMTMuOTUwMSwyMjUuMjQyNiAxMTIuNDMwMSwyNDIuNzEyNiAiIGZpbGw9Im5vbmUiIGlkPSJNdXNpYyBQbGF5ZXIgQ29tcG9uZW50LXRvLVN0cmVhbWluZyBTZXJ2aWNlIiBzdHlsZT0ic3Ryb2tlOiMxODE4MTg7c3Ryb2tlLXdpZHRoOjEuMDsiLz48cG9seWdvbiBmaWxsPSIjMTgxODE4IiBwb2ludHM9IjExMS45MSwyNDguNjksMTE2LjY3NTEsMjQwLjA3MDYsMTEyLjM0MzQsMjQzLjcwODgsMTA4LjcwNTIsMjM5LjM3NzIsMTExLjkxLDI0OC42OSIgc3R5bGU9InN0cm9rZTojMTgxODE4O3N0cm9rZS13aWR0aDoxLjA7Ii8+PC9nPjwhLS1saW5rIE11c2ljIFBsYXllciBDb21wb25lbnQgdG8gTm90aWZpY2F0aW9uIFNlcnZpY2UtLT48ZyBpZD0ibGlua19NdXNpYyBQbGF5ZXIgQ29tcG9uZW50X05vdGlmaWNhdGlvbiBTZXJ2aWNlIj48cGF0aCBkPSJNMTYwLjA5LDE4OS4wOSBDMTkzLjU0LDIwNi42NyAyMzUuMjE5MiwyMjguNTY4IDI2OC42NTkyLDI0Ni4xNDggIiBmaWxsPSJub25lIiBpZD0iTXVzaWMgUGxheWVyIENvbXBvbmVudC10by1Ob3RpZmljYXRpb24gU2VydmljZSIgc3R5bGU9InN0cm9rZTojMTgxODE4O3N0cm9rZS13aWR0aDoxLjA7Ii8+PHBvbHlnb24gZmlsbD0iIzE4MTgxOCIgcG9pbnRzPSIyNzMuOTcsMjQ4Ljk0LDI2Ny44NjUxLDI0MS4yMTE1LDI2OS41NDQzLDI0Ni42MTMzLDI2NC4xNDI0LDI0OC4yOTI2LDI3My45NywyNDguOTQiIHN0eWxlPSJzdHJva2U6IzE4MTgxODtzdHJva2Utd2lkdGg6MS4wOyIvPjwvZz48IS0tbGluayBVc2VyICBNYW5hZ2VtZW50IFNlcnZpY2UgdG8gRGF0YWJhc2UtLT48ZyBpZD0ibGlua19Vc2VyICBNYW5hZ2VtZW50IFNlcnZpY2VfRGF0YWJhc2UiPjxwYXRoIGQ9Ik01NjguMzIsMTg5LjA5IEM1ODguMTIsMjA2LjY3IDYxMS40NDUzLDIyNy4zNzQxIDYzMS4yMjUzLDI0NC45NTQxICIgZmlsbD0ibm9uZSIgaWQ9IlVzZXIgIE1hbmFnZW1lbnQgU2VydmljZS10by1EYXRhYmFzZSIgc3R5bGU9InN0cm9rZTojMTgxODE4O3N0cm9rZS13aWR0aDoxLjA7Ii8+PHBvbHlnb24gZmlsbD0iIzE4MTgxOCIgcG9pbnRzPSI2MzUuNzEsMjQ4Ljk0LDYzMS42NDAyLDIzOS45NzEzLDYzMS45NzI3LDI0NS42MTg0LDYyNi4zMjU3LDI0NS45NTEsNjM1LjcxLDI0OC45NCIgc3R5bGU9InN0cm9rZTojMTgxODE4O3N0cm9rZS13aWR0aDoxLjA7Ii8+PC9nPjwhLS1saW5rIE11c2ljIExpYnJhcnkgU2VydmljZSB0byBEYXRhYmFzZS0tPjxnIGlkPSJsaW5rX011c2ljIExpYnJhcnkgU2VydmljZV9EYXRhYmFzZSI+PHBhdGggZD0iTTc1Mi40NywxODkuMDkgQzczMi41LDIwNi42NyA3MDguOTUyNiwyMjcuMzk0MyA2ODguOTkyNiwyNDQuOTc0MyAiIGZpbGw9Im5vbmUiIGlkPSJNdXNpYyBMaWJyYXJ5IFNlcnZpY2UtdG8tRGF0YWJhc2UiIHN0eWxlPSJzdHJva2U6IzE4MTgxODtzdHJva2Utd2lkdGg6MS4wOyIvPjxwb2x5Z29uIGZpbGw9IiMxODE4MTgiIHBvaW50cz0iNjg0LjQ5LDI0OC45NCw2OTMuODg3NywyNDUuOTkzMiw2ODguMjQyMiwyNDUuNjM1Myw2ODguNjAwMSwyMzkuOTg5Nyw2ODQuNDksMjQ4Ljk0IiBzdHlsZT0ic3Ryb2tlOiMxODE4MTg7c3Ryb2tlLXdpZHRoOjEuMDsiLz48L2c+PCEtLWxpbmsgU3RyZWFtaW5nIFNlcnZpY2UgdG8gQ2xvdWQgU3RvcmFnZS0tPjxnIGlkPSJsaW5rX1N0cmVhbWluZyBTZXJ2aWNlX0Nsb3VkIFN0b3JhZ2UiPjxwYXRoIGQ9Ik0xMTAsMjk0LjM0IEMxMTAsMzExLjgyIDExMCwzMzAuMjIgMTEwLDM0Ny42OSAiIGZpbGw9Im5vbmUiIGlkPSJTdHJlYW1pbmcgU2VydmljZS10by1DbG91ZCBTdG9yYWdlIiBzdHlsZT0ic3Ryb2tlOiMxODE4MTg7c3Ryb2tlLXdpZHRoOjEuMDsiLz48cG9seWdvbiBmaWxsPSIjMTgxODE4IiBwb2ludHM9IjExMCwzNTMuNjksMTE0LDM0NC42OSwxMTAsMzQ4LjY5LDEwNiwzNDQuNjksMTEwLDM1My42OSIgc3R5bGU9InN0cm9rZTojMTgxODE4O3N0cm9rZS13aWR0aDoxLjA7Ii8+PC9nPjwhLS1saW5rIFVzZXIgIEludGVyZmFjZSB0byBVc2VyICBNYW5hZ2VtZW50IFNlcnZpY2UtLT48ZyBpZD0ibGlua19Vc2VyICBJbnRlcmZhY2VfVXNlciAgTWFuYWdlbWVudCBTZXJ2aWNlIj48cGF0aCBkPSJNNDU4LjY0LDg0LjA5IEM0NzcuMDcsMTAxLjY3IDQ5OC42Mjk1LDEyMi4yMTc1IDUxNy4wNDk1LDEzOS43OTc1ICIgZmlsbD0ibm9uZSIgaWQ9IlVzZXIgIEludGVyZmFjZS10by1Vc2VyICBNYW5hZ2VtZW50IFNlcnZpY2UiIHN0eWxlPSJzdHJva2U6IzE4MTgxODtzdHJva2Utd2lkdGg6MS4wOyIvPjxwb2x5Z29uIGZpbGw9IiMxODE4MTgiIHBvaW50cz0iNTIxLjM5LDE0My45NCw1MTcuNjQxLDEzNC44MzI2LDUxNy43NzMsMTQwLjQ4NzksNTEyLjExNzYsMTQwLjYxOTksNTIxLjM5LDE0My45NCIgc3R5bGU9InN0cm9rZTojMTgxODE4O3N0cm9rZS13aWR0aDoxLjA7Ii8+PC9nPjwhLS1saW5rIFVzZXIgIEludGVyZmFjZSB0byBNdXNpYyBMaWJyYXJ5IFNlcnZpY2UtLT48ZyBpZD0ibGlua19Vc2VyICBJbnRlcmZhY2VfTXVzaWMgTGlicmFyeSBTZXJ2aWNlIj48cGF0aCBkPSJNNTA3LjQ4LDg0LjA5IEM1NjUuNjgsMTAxLjY3IDY0MS42OTY2LDEyNC42MjQyIDY5OS44NjY2LDE0Mi4yMDQyICIgZmlsbD0ibm9uZSIgaWQ9IlVzZXIgIEludGVyZmFjZS10by1NdXNpYyBMaWJyYXJ5IFNlcnZpY2UiIHN0eWxlPSJzdHJva2U6IzE4MTgxODtzdHJva2Utd2lkdGg6MS4wOyIvPjxwb2x5Z29uIGZpbGw9IiMxODE4MTgiIHBvaW50cz0iNzA1LjYxLDE0My45NCw2OTguMTUyLDEzNy41MDc0LDcwMC44MjM4LDE0Mi40OTM1LDY5NS44Mzc3LDE0NS4xNjUzLDcwNS42MSwxNDMuOTQiIHN0eWxlPSJzdHJva2U6IzE4MTgxODtzdHJva2Utd2lkdGg6MS4wOyIvPjwvZz48IS0tU1JDPVtaUDdIMmU4bTU4UmxWT2czenh2MjQ3T0pQMEpJYk5Ybk41RDZTdkVwT28zSGt4VE9IMmZRa3p0X2RWeXhNdVZZWWVzNEVFa1Q0ZDNJRTRZMlJUVGY5UDJMREo3UzhfMmRFM2pfME5sM2FjZUtpZUdhc0swbm1iQlJUalA4bS1LUXlXZmh2SFdvREJ3UUdaV0cyLUMyYzNEOVI5TGY4OVRxS3R4Vzd6M0hpZ2hWa3VvdlJ5VVdxZGhpYW1kdTNYYWhURUVnV3dlOFFMWURYbG5TRU1ISlJWaUJ2NnA5cnl2cmZhLXNBRmR4UXdRa3FVQzldLS0+PC9nPjwvc3ZnPg==;" vertex="1" parent="1">
            <mxGeometry x="-1348.0000000000002" y="4080" width="893" height="422" as="geometry" />
          </mxCell>
        </UserObject>
        <UserObject label="" plantUmlData="{&#xa;  &quot;data&quot;: &quot;@startuml\nactor User\nparticipant \&quot;Music Player\&quot; as MP\nparticipant \&quot;Playlist Manager\&quot; as PM\nparticipant \&quot;Streaming Service\&quot; as SS\nparticipant \&quot;Notification Service\&quot; as NS\n\nUser  -&gt; MP : selectSong(songId)\nMP -&gt; PM : getSong(songId)\nPM -&gt; MP : returnSong(song)\nMP -&gt; SS : streamSong(song)\nSS -&gt; MP : streamData()\nMP -&gt; User : playSong()\n\nMP -&gt; NS : notifyPlaying(song)\nNS -&gt; User : displayNotification(\&quot;Now Playing: song title\&quot;)\n\n@enduml&quot;,&#xa;  &quot;format&quot;: &quot;svg&quot;&#xa;}" id="c7S_zqKtltET6JresFuN-19">
          <mxCell style="shape=image;noLabel=1;verticalAlign=top;aspect=fixed;imageAspect=0;image=data:image/svg+xml,PD94bWwgdmVyc2lvbj0iMS4wIiBlbmNvZGluZz0idXMtYXNjaWkiIHN0YW5kYWxvbmU9Im5vIj8+PHN2ZyB4bWxucz0iaHR0cDovL3d3dy53My5vcmcvMjAwMC9zdmciIHhtbG5zOnhsaW5rPSJodHRwOi8vd3d3LnczLm9yZy8xOTk5L3hsaW5rIiBjb250ZW50U3R5bGVUeXBlPSJ0ZXh0L2NzcyIgaGVpZ2h0PSI0MDJweCIgcHJlc2VydmVBc3BlY3RSYXRpbz0ibm9uZSIgc3R5bGU9IndpZHRoOjY3N3B4O2hlaWdodDo0MDJweDtiYWNrZ3JvdW5kOiNGRkZGRkY7IiB2ZXJzaW9uPSIxLjEiIHZpZXdCb3g9IjAgMCA2NzcgNDAyIiB3aWR0aD0iNjc3cHgiIHpvb21BbmRQYW49Im1hZ25pZnkiPjxkZWZzLz48Zz48bGluZSBzdHlsZT0ic3Ryb2tlOiMxODE4MTg7c3Ryb2tlLXdpZHRoOjAuNTtzdHJva2UtZGFzaGFycmF5OjUuMCw1LjA7IiB4MT0iMjIiIHgyPSIyMiIgeTE9Ijc5Ljk4NDQiIHkyPSIzMjMuMjk2OSIvPjxsaW5lIHN0eWxlPSJzdHJva2U6IzE4MTgxODtzdHJva2Utd2lkdGg6MC41O3N0cm9rZS1kYXNoYXJyYXk6NS4wLDUuMDsiIHgxPSIxNjciIHgyPSIxNjciIHkxPSI3OS45ODQ0IiB5Mj0iMzIzLjI5NjkiLz48bGluZSBzdHlsZT0ic3Ryb2tlOiMxODE4MTg7c3Ryb2tlLXdpZHRoOjAuNTtzdHJva2UtZGFzaGFycmF5OjUuMCw1LjA7IiB4MT0iMzAwIiB4Mj0iMzAwIiB5MT0iNzkuOTg0NCIgeTI9IjMyMy4yOTY5Ii8+PGxpbmUgc3R5bGU9InN0cm9rZTojMTgxODE4O3N0cm9rZS13aWR0aDowLjU7c3Ryb2tlLWRhc2hhcnJheTo1LjAsNS4wOyIgeDE9IjQ0MCIgeDI9IjQ0MCIgeTE9Ijc5Ljk4NDQiIHkyPSIzMjMuMjk2OSIvPjxsaW5lIHN0eWxlPSJzdHJva2U6IzE4MTgxODtzdHJva2Utd2lkdGg6MC41O3N0cm9rZS1kYXNoYXJyYXk6NS4wLDUuMDsiIHgxPSI1OTQiIHgyPSI1OTQiIHkxPSI3OS45ODQ0IiB5Mj0iMzIzLjI5NjkiLz48dGV4dCBmaWxsPSIjMDAwMDAwIiBmb250LWZhbWlseT0ic2Fucy1zZXJpZiIgZm9udC1zaXplPSIxNCIgbGVuZ3RoQWRqdXN0PSJzcGFjaW5nIiB0ZXh0TGVuZ3RoPSIyOCIgeD0iNSIgeT0iNzguMjM0NCI+VXNlcjwvdGV4dD48ZWxsaXBzZSBjeD0iMjIiIGN5PSIxMy41IiBmaWxsPSIjRTJFMkYwIiByeD0iOCIgcnk9IjgiIHN0eWxlPSJzdHJva2U6IzE4MTgxODtzdHJva2Utd2lkdGg6MC41OyIvPjxwYXRoIGQ9Ik0yMiwyMS41IEwyMiw0OC41IE05LDI5LjUgTDM1LDI5LjUgTTIyLDQ4LjUgTDksNjMuNSBNMjIsNDguNSBMMzUsNjMuNSAiIGZpbGw9Im5vbmUiIHN0eWxlPSJzdHJva2U6IzE4MTgxODtzdHJva2Utd2lkdGg6MC41OyIvPjx0ZXh0IGZpbGw9IiMwMDAwMDAiIGZvbnQtZmFtaWx5PSJzYW5zLXNlcmlmIiBmb250LXNpemU9IjE0IiBsZW5ndGhBZGp1c3Q9InNwYWNpbmciIHRleHRMZW5ndGg9IjI4IiB4PSI1IiB5PSIzMzUuNTMxMyI+VXNlcjwvdGV4dD48ZWxsaXBzZSBjeD0iMjIiIGN5PSIzNDUuNzgxMyIgZmlsbD0iI0UyRTJGMCIgcng9IjgiIHJ5PSI4IiBzdHlsZT0ic3Ryb2tlOiMxODE4MTg7c3Ryb2tlLXdpZHRoOjAuNTsiLz48cGF0aCBkPSJNMjIsMzUzLjc4MTMgTDIyLDM4MC43ODEzIE05LDM2MS43ODEzIEwzNSwzNjEuNzgxMyBNMjIsMzgwLjc4MTMgTDksMzk1Ljc4MTMgTTIyLDM4MC43ODEzIEwzNSwzOTUuNzgxMyAiIGZpbGw9Im5vbmUiIHN0eWxlPSJzdHJva2U6IzE4MTgxODtzdHJva2Utd2lkdGg6MC41OyIvPjxyZWN0IGZpbGw9IiNFMkUyRjAiIGhlaWdodD0iMjguOTg0NCIgcng9IjIuNSIgcnk9IjIuNSIgc3R5bGU9InN0cm9rZTojMTgxODE4O3N0cm9rZS13aWR0aDowLjU7IiB3aWR0aD0iOTgiIHg9IjExOCIgeT0iNTAiLz48dGV4dCBmaWxsPSIjMDAwMDAwIiBmb250LWZhbWlseT0ic2Fucy1zZXJpZiIgZm9udC1zaXplPSIxNCIgbGVuZ3RoQWRqdXN0PSJzcGFjaW5nIiB0ZXh0TGVuZ3RoPSI4NCIgeD0iMTI1IiB5PSI3MC4yMzQ0Ij5NdXNpYyBQbGF5ZXI8L3RleHQ+PHJlY3QgZmlsbD0iI0UyRTJGMCIgaGVpZ2h0PSIyOC45ODQ0IiByeD0iMi41IiByeT0iMi41IiBzdHlsZT0ic3Ryb2tlOiMxODE4MTg7c3Ryb2tlLXdpZHRoOjAuNTsiIHdpZHRoPSI5OCIgeD0iMTE4IiB5PSIzMjIuMjk2OSIvPjx0ZXh0IGZpbGw9IiMwMDAwMDAiIGZvbnQtZmFtaWx5PSJzYW5zLXNlcmlmIiBmb250LXNpemU9IjE0IiBsZW5ndGhBZGp1c3Q9InNwYWNpbmciIHRleHRMZW5ndGg9Ijg0IiB4PSIxMjUiIHk9IjM0Mi41MzEzIj5NdXNpYyBQbGF5ZXI8L3RleHQ+PHJlY3QgZmlsbD0iI0UyRTJGMCIgaGVpZ2h0PSIyOC45ODQ0IiByeD0iMi41IiByeT0iMi41IiBzdHlsZT0ic3Ryb2tlOiMxODE4MTg7c3Ryb2tlLXdpZHRoOjAuNTsiIHdpZHRoPSIxMjYiIHg9IjIzNyIgeT0iNTAiLz48dGV4dCBmaWxsPSIjMDAwMDAwIiBmb250LWZhbWlseT0ic2Fucy1zZXJpZiIgZm9udC1zaXplPSIxNCIgbGVuZ3RoQWRqdXN0PSJzcGFjaW5nIiB0ZXh0TGVuZ3RoPSIxMTIiIHg9IjI0NCIgeT0iNzAuMjM0NCI+UGxheWxpc3QgTWFuYWdlcjwvdGV4dD48cmVjdCBmaWxsPSIjRTJFMkYwIiBoZWlnaHQ9IjI4Ljk4NDQiIHJ4PSIyLjUiIHJ5PSIyLjUiIHN0eWxlPSJzdHJva2U6IzE4MTgxODtzdHJva2Utd2lkdGg6MC41OyIgd2lkdGg9IjEyNiIgeD0iMjM3IiB5PSIzMjIuMjk2OSIvPjx0ZXh0IGZpbGw9IiMwMDAwMDAiIGZvbnQtZmFtaWx5PSJzYW5zLXNlcmlmIiBmb250LXNpemU9IjE0IiBsZW5ndGhBZGp1c3Q9InNwYWNpbmciIHRleHRMZW5ndGg9IjExMiIgeD0iMjQ0IiB5PSIzNDIuNTMxMyI+UGxheWxpc3QgTWFuYWdlcjwvdGV4dD48cmVjdCBmaWxsPSIjRTJFMkYwIiBoZWlnaHQ9IjI4Ljk4NDQiIHJ4PSIyLjUiIHJ5PSIyLjUiIHN0eWxlPSJzdHJva2U6IzE4MTgxODtzdHJva2Utd2lkdGg6MC41OyIgd2lkdGg9IjEzNCIgeD0iMzczIiB5PSI1MCIvPjx0ZXh0IGZpbGw9IiMwMDAwMDAiIGZvbnQtZmFtaWx5PSJzYW5zLXNlcmlmIiBmb250LXNpemU9IjE0IiBsZW5ndGhBZGp1c3Q9InNwYWNpbmciIHRleHRMZW5ndGg9IjEyMCIgeD0iMzgwIiB5PSI3MC4yMzQ0Ij5TdHJlYW1pbmcgU2VydmljZTwvdGV4dD48cmVjdCBmaWxsPSIjRTJFMkYwIiBoZWlnaHQ9IjI4Ljk4NDQiIHJ4PSIyLjUiIHJ5PSIyLjUiIHN0eWxlPSJzdHJva2U6IzE4MTgxODtzdHJva2Utd2lkdGg6MC41OyIgd2lkdGg9IjEzNCIgeD0iMzczIiB5PSIzMjIuMjk2OSIvPjx0ZXh0IGZpbGw9IiMwMDAwMDAiIGZvbnQtZmFtaWx5PSJzYW5zLXNlcmlmIiBmb250LXNpemU9IjE0IiBsZW5ndGhBZGp1c3Q9InNwYWNpbmciIHRleHRMZW5ndGg9IjEyMCIgeD0iMzgwIiB5PSIzNDIuNTMxMyI+U3RyZWFtaW5nIFNlcnZpY2U8L3RleHQ+PHJlY3QgZmlsbD0iI0UyRTJGMCIgaGVpZ2h0PSIyOC45ODQ0IiByeD0iMi41IiByeT0iMi41IiBzdHlsZT0ic3Ryb2tlOiMxODE4MTg7c3Ryb2tlLXdpZHRoOjAuNTsiIHdpZHRoPSIxNTQiIHg9IjUxNyIgeT0iNTAiLz48dGV4dCBmaWxsPSIjMDAwMDAwIiBmb250LWZhbWlseT0ic2Fucy1zZXJpZiIgZm9udC1zaXplPSIxNCIgbGVuZ3RoQWRqdXN0PSJzcGFjaW5nIiB0ZXh0TGVuZ3RoPSIxNDAiIHg9IjUyNCIgeT0iNzAuMjM0NCI+Tm90aWZpY2F0aW9uIFNlcnZpY2U8L3RleHQ+PHJlY3QgZmlsbD0iI0UyRTJGMCIgaGVpZ2h0PSIyOC45ODQ0IiByeD0iMi41IiByeT0iMi41IiBzdHlsZT0ic3Ryb2tlOiMxODE4MTg7c3Ryb2tlLXdpZHRoOjAuNTsiIHdpZHRoPSIxNTQiIHg9IjUxNyIgeT0iMzIyLjI5NjkiLz48dGV4dCBmaWxsPSIjMDAwMDAwIiBmb250LWZhbWlseT0ic2Fucy1zZXJpZiIgZm9udC1zaXplPSIxNCIgbGVuZ3RoQWRqdXN0PSJzcGFjaW5nIiB0ZXh0TGVuZ3RoPSIxNDAiIHg9IjUyNCIgeT0iMzQyLjUzMTMiPk5vdGlmaWNhdGlvbiBTZXJ2aWNlPC90ZXh0Pjxwb2x5Z29uIGZpbGw9IiMxODE4MTgiIHBvaW50cz0iMTU1LDEwNS44OTg0LDE2NSwxMDkuODk4NCwxNTUsMTEzLjg5ODQsMTU5LDEwOS44OTg0IiBzdHlsZT0ic3Ryb2tlOiMxODE4MTg7c3Ryb2tlLXdpZHRoOjEuMDsiLz48bGluZSBzdHlsZT0ic3Ryb2tlOiMxODE4MTg7c3Ryb2tlLXdpZHRoOjEuMDsiIHgxPSIyMiIgeDI9IjE2MSIgeTE9IjEwOS44OTg0IiB5Mj0iMTA5Ljg5ODQiLz48dGV4dCBmaWxsPSIjMDAwMDAwIiBmb250LWZhbWlseT0ic2Fucy1zZXJpZiIgZm9udC1zaXplPSIxMyIgbGVuZ3RoQWRqdXN0PSJzcGFjaW5nIiB0ZXh0TGVuZ3RoPSIxMjEiIHg9IjI5IiB5PSIxMDYuMjczNCI+c2VsZWN0U29uZyhzb25nSWQpPC90ZXh0Pjxwb2x5Z29uIGZpbGw9IiMxODE4MTgiIHBvaW50cz0iMjg4LDEzMy44MTI1LDI5OCwxMzcuODEyNSwyODgsMTQxLjgxMjUsMjkyLDEzNy44MTI1IiBzdHlsZT0ic3Ryb2tlOiMxODE4MTg7c3Ryb2tlLXdpZHRoOjEuMDsiLz48bGluZSBzdHlsZT0ic3Ryb2tlOiMxODE4MTg7c3Ryb2tlLXdpZHRoOjEuMDsiIHgxPSIxNjciIHgyPSIyOTQiIHkxPSIxMzcuODEyNSIgeTI9IjEzNy44MTI1Ii8+PHRleHQgZmlsbD0iIzAwMDAwMCIgZm9udC1mYW1pbHk9InNhbnMtc2VyaWYiIGZvbnQtc2l6ZT0iMTMiIGxlbmd0aEFkanVzdD0ic3BhY2luZyIgdGV4dExlbmd0aD0iMTAxIiB4PSIxNzQiIHk9IjEzNC4xODc1Ij5nZXRTb25nKHNvbmdJZCk8L3RleHQ+PHBvbHlnb24gZmlsbD0iIzE4MTgxOCIgcG9pbnRzPSIxNzgsMTYxLjcyNjYsMTY4LDE2NS43MjY2LDE3OCwxNjkuNzI2NiwxNzQsMTY1LjcyNjYiIHN0eWxlPSJzdHJva2U6IzE4MTgxODtzdHJva2Utd2lkdGg6MS4wOyIvPjxsaW5lIHN0eWxlPSJzdHJva2U6IzE4MTgxODtzdHJva2Utd2lkdGg6MS4wOyIgeDE9IjE3MiIgeDI9IjI5OSIgeTE9IjE2NS43MjY2IiB5Mj0iMTY1LjcyNjYiLz48dGV4dCBmaWxsPSIjMDAwMDAwIiBmb250LWZhbWlseT0ic2Fucy1zZXJpZiIgZm9udC1zaXplPSIxMyIgbGVuZ3RoQWRqdXN0PSJzcGFjaW5nIiB0ZXh0TGVuZ3RoPSIxMDkiIHg9IjE4NCIgeT0iMTYyLjEwMTYiPnJldHVyblNvbmcoc29uZyk8L3RleHQ+PHBvbHlnb24gZmlsbD0iIzE4MTgxOCIgcG9pbnRzPSI0MjgsMTg5LjY0MDYsNDM4LDE5My42NDA2LDQyOCwxOTcuNjQwNiw0MzIsMTkzLjY0MDYiIHN0eWxlPSJzdHJva2U6IzE4MTgxODtzdHJva2Utd2lkdGg6MS4wOyIvPjxsaW5lIHN0eWxlPSJzdHJva2U6IzE4MTgxODtzdHJva2Utd2lkdGg6MS4wOyIgeDE9IjE2NyIgeDI9IjQzNCIgeTE9IjE5My42NDA2IiB5Mj0iMTkzLjY0MDYiLz48dGV4dCBmaWxsPSIjMDAwMDAwIiBmb250LWZhbWlseT0ic2Fucy1zZXJpZiIgZm9udC1zaXplPSIxMyIgbGVuZ3RoQWRqdXN0PSJzcGFjaW5nIiB0ZXh0TGVuZ3RoPSIxMDgiIHg9IjE3NCIgeT0iMTkwLjAxNTYiPnN0cmVhbVNvbmcoc29uZyk8L3RleHQ+PHBvbHlnb24gZmlsbD0iIzE4MTgxOCIgcG9pbnRzPSIxNzgsMjE3LjU1NDcsMTY4LDIyMS41NTQ3LDE3OCwyMjUuNTU0NywxNzQsMjIxLjU1NDciIHN0eWxlPSJzdHJva2U6IzE4MTgxODtzdHJva2Utd2lkdGg6MS4wOyIvPjxsaW5lIHN0eWxlPSJzdHJva2U6IzE4MTgxODtzdHJva2Utd2lkdGg6MS4wOyIgeDE9IjE3MiIgeDI9IjQzOSIgeTE9IjIyMS41NTQ3IiB5Mj0iMjIxLjU1NDciLz48dGV4dCBmaWxsPSIjMDAwMDAwIiBmb250LWZhbWlseT0ic2Fucy1zZXJpZiIgZm9udC1zaXplPSIxMyIgbGVuZ3RoQWRqdXN0PSJzcGFjaW5nIiB0ZXh0TGVuZ3RoPSI3OSIgeD0iMTg0IiB5PSIyMTcuOTI5NyI+c3RyZWFtRGF0YSgpPC90ZXh0Pjxwb2x5Z29uIGZpbGw9IiMxODE4MTgiIHBvaW50cz0iMzMsMjQ1LjQ2ODgsMjMsMjQ5LjQ2ODgsMzMsMjUzLjQ2ODgsMjksMjQ5LjQ2ODgiIHN0eWxlPSJzdHJva2U6IzE4MTgxODtzdHJva2Utd2lkdGg6MS4wOyIvPjxsaW5lIHN0eWxlPSJzdHJva2U6IzE4MTgxODtzdHJva2Utd2lkdGg6MS4wOyIgeDE9IjI3IiB4Mj0iMTY2IiB5MT0iMjQ5LjQ2ODgiIHkyPSIyNDkuNDY4OCIvPjx0ZXh0IGZpbGw9IiMwMDAwMDAiIGZvbnQtZmFtaWx5PSJzYW5zLXNlcmlmIiBmb250LXNpemU9IjEzIiBsZW5ndGhBZGp1c3Q9InNwYWNpbmciIHRleHRMZW5ndGg9IjY3IiB4PSIzOSIgeT0iMjQ1Ljg0MzgiPnBsYXlTb25nKCk8L3RleHQ+PHBvbHlnb24gZmlsbD0iIzE4MTgxOCIgcG9pbnRzPSI1ODIsMjczLjM4MjgsNTkyLDI3Ny4zODI4LDU4MiwyODEuMzgyOCw1ODYsMjc3LjM4MjgiIHN0eWxlPSJzdHJva2U6IzE4MTgxODtzdHJva2Utd2lkdGg6MS4wOyIvPjxsaW5lIHN0eWxlPSJzdHJva2U6IzE4MTgxODtzdHJva2Utd2lkdGg6MS4wOyIgeDE9IjE2NyIgeDI9IjU4OCIgeTE9IjI3Ny4zODI4IiB5Mj0iMjc3LjM4MjgiLz48dGV4dCBmaWxsPSIjMDAwMDAwIiBmb250LWZhbWlseT0ic2Fucy1zZXJpZiIgZm9udC1zaXplPSIxMyIgbGVuZ3RoQWRqdXN0PSJzcGFjaW5nIiB0ZXh0TGVuZ3RoPSIxMjYiIHg9IjE3NCIgeT0iMjczLjc1NzgiPm5vdGlmeVBsYXlpbmcoc29uZyk8L3RleHQ+PHBvbHlnb24gZmlsbD0iIzE4MTgxOCIgcG9pbnRzPSIzMywzMDEuMjk2OSwyMywzMDUuMjk2OSwzMywzMDkuMjk2OSwyOSwzMDUuMjk2OSIgc3R5bGU9InN0cm9rZTojMTgxODE4O3N0cm9rZS13aWR0aDoxLjA7Ii8+PGxpbmUgc3R5bGU9InN0cm9rZTojMTgxODE4O3N0cm9rZS13aWR0aDoxLjA7IiB4MT0iMjciIHgyPSI1OTMiIHkxPSIzMDUuMjk2OSIgeTI9IjMwNS4yOTY5Ii8+PHRleHQgZmlsbD0iIzAwMDAwMCIgZm9udC1mYW1pbHk9InNhbnMtc2VyaWYiIGZvbnQtc2l6ZT0iMTMiIGxlbmd0aEFkanVzdD0ic3BhY2luZyIgdGV4dExlbmd0aD0iMzA0IiB4PSIzOSIgeT0iMzAxLjY3MTkiPmRpc3BsYXlOb3RpZmljYXRpb24oIk5vdyBQbGF5aW5nOiBzb25nIHRpdGxlIik8L3RleHQ+PCEtLVNSQz1bTFAwblJpQ20zNEx0ZE9CbVAwLXpHOFBFTUpoOEM0M3EwOEoyNjBIU3NQMk81aGJ6QVM0c2g0SzN0dHlLSUdndzlsWkVkRG42SUlOOEhiNlh5d3lpMFFRNXRmbXdlMG4tUVdDNUJQOExGNE1RenozYXNuMWdPbGdIRTBEby1mTjBET05PZmlQTHZJYzFMRFJPMTRUcWhlbTZ5RjVmMHkwRENZeVM1RFN1enpjVWh5VldoNnZxeWFQZFJmNEwzcDZubGI4eXdRNFhiZ1Byb1drcHdsYlhQTlRJd1ctZEpkSTNwR3ZHZFM3ak8ycERPYmRjTlF1WlB4eUhCenYzU2I2bElfVHNXWl9PN1ZsSjk1M0hYUmxYN20wMF0tLT48L2c+PC9zdmc+;" vertex="1" parent="1">
            <mxGeometry x="-1240" y="4548" width="677" height="402" as="geometry" />
          </mxCell>
        </UserObject>
      </root>
    </mxGraphModel>
  </diagram>
</mxfile>
